<?xml version="1.0" encoding="UTF-8" standalone="no"?>
<!-- Created with Inkscape (http://www.inkscape.org/) -->

<svg
   xmlns:dc="http://purl.org/dc/elements/1.1/"
   xmlns:cc="http://creativecommons.org/ns#"
   xmlns:rdf="http://www.w3.org/1999/02/22-rdf-syntax-ns#"
   xmlns:svg="http://www.w3.org/2000/svg"
   xmlns="http://www.w3.org/2000/svg"
   xmlns:sodipodi="http://sodipodi.sourceforge.net/DTD/sodipodi-0.dtd"
   xmlns:inkscape="http://www.inkscape.org/namespaces/inkscape"
   id="svg2"
   version="1.1"
   inkscape:version="0.91 r13725"
   xml:space="preserve"
   width="501.25"
   height="426.25"
   viewBox="0 0 501.25 426.25"
   sodipodi:docname="3.svg"><metadata
     id="metadata8"><rdf:RDF><cc:Work
         rdf:about=""><dc:format>image/svg+xml</dc:format><dc:type
           rdf:resource="http://purl.org/dc/dcmitype/StillImage" /><dc:title></dc:title></cc:Work></rdf:RDF></metadata><defs
     id="defs6"><clipPath
       clipPathUnits="userSpaceOnUse"
       id="clipPath18"><path
         d="m 6,9 0,3401 4004,0 L 4010,9 6,9 Z"
         id="path20"
         inkscape:connector-curvature="0" /></clipPath><clipPath
       clipPathUnits="userSpaceOnUse"
       id="clipPath184"><path
         d="m 495,434.168 3195.83,0 0,2312.5 -3195.83,0 0,-2312.5 z"
         id="path186"
         inkscape:connector-curvature="0" /></clipPath><clipPath
       clipPathUnits="userSpaceOnUse"
       id="clipPath200"><path
         d="m 462.5,395 3472.5,0 0,2611.67 -3472.5,0 0,-2611.67 z"
         id="path202"
         inkscape:connector-curvature="0" /></clipPath><clipPath
       clipPathUnits="userSpaceOnUse"
       id="clipPath210"><path
         d="m 797.5,1186.67 242.5,0 0,242.5 -242.5,0 0,-242.5 z"
         id="path212"
         inkscape:connector-curvature="0" /></clipPath><clipPath
       clipPathUnits="userSpaceOnUse"
       id="clipPath226"><path
         d="m 6,9 4004,0 0,3401 L 6,3410 6,9 Z"
         id="path228"
         inkscape:connector-curvature="0" /></clipPath></defs><sodipodi:namedview
     pagecolor="#ffffff"
     bordercolor="#666666"
     borderopacity="1"
     objecttolerance="10"
     gridtolerance="10"
     guidetolerance="10"
     inkscape:pageopacity="0"
     inkscape:pageshadow="2"
     inkscape:window-width="1920"
     inkscape:window-height="1034"
     id="namedview4"
     showgrid="false"
     inkscape:zoom="0.55366569"
     inkscape:cx="713.00998"
     inkscape:cy="694.36157"
     inkscape:window-x="0"
     inkscape:window-y="0"
     inkscape:window-maximized="1"
     inkscape:current-layer="g10" /><g
     id="g10"
     inkscape:groupmode="layer"
     inkscape:label="ink_ext_XXXXXX"
     transform="matrix(1.25,0,0,-1.25,0,426.25)"><path
       inkscape:connector-curvature="0"
       id="path26"
       style="fill:none;stroke:#ffffff;stroke-width:0.5;stroke-linecap:butt;stroke-linejoin:round;stroke-miterlimit:10;stroke-dasharray:none;stroke-opacity:1"
       d="m 46.25,39.5832 0,261.0838 347.167,0 0,-261.0838 -347.167,0" /><path
       inkscape:connector-curvature="0"
       id="path28"
       style="fill:none;stroke:#000000;stroke-width:0.5;stroke-linecap:butt;stroke-linejoin:round;stroke-miterlimit:10;stroke-dasharray:none;stroke-opacity:1"
       d="m 46.25,39.5832 347.167,0" /><path
       inkscape:connector-curvature="0"
       id="path30"
       style="fill:none;stroke:#000000;stroke-width:0.5;stroke-linecap:butt;stroke-linejoin:round;stroke-miterlimit:10;stroke-dasharray:none;stroke-opacity:1"
       d="m 46.25,300.667 347.167,0" /><path
       inkscape:connector-curvature="0"
       id="path32"
       style="fill:none;stroke:#000000;stroke-width:0.5;stroke-linecap:butt;stroke-linejoin:round;stroke-miterlimit:10;stroke-dasharray:none;stroke-opacity:1"
       d="m 46.25,39.5832 0,261.0838" /><path
       inkscape:connector-curvature="0"
       id="path34"
       style="fill:none;stroke:#000000;stroke-width:0.5;stroke-linecap:butt;stroke-linejoin:round;stroke-miterlimit:10;stroke-dasharray:none;stroke-opacity:1"
       d="m 393.417,39.5832 0,261.0838" /><path
       inkscape:connector-curvature="0"
       id="path36"
       style="fill:none;stroke:#000000;stroke-width:0.5;stroke-linecap:butt;stroke-linejoin:round;stroke-miterlimit:10;stroke-dasharray:none;stroke-opacity:1"
       d="m 46.25,39.5832 347.167,0" /><path
       inkscape:connector-curvature="0"
       id="path38"
       style="fill:none;stroke:#000000;stroke-width:0.5;stroke-linecap:butt;stroke-linejoin:round;stroke-miterlimit:10;stroke-dasharray:none;stroke-opacity:1"
       d="m 46.25,39.5832 0,261.0838" /><path
       inkscape:connector-curvature="0"
       id="path40"
       style="fill:none;stroke:#000000;stroke-width:0.5;stroke-linecap:butt;stroke-linejoin:round;stroke-miterlimit:10;stroke-dasharray:none;stroke-opacity:1"
       d="m 46.25,39.5832 0,3.5" /><path
       inkscape:connector-curvature="0"
       id="path42"
       style="fill:none;stroke:#000000;stroke-width:0.5;stroke-linecap:butt;stroke-linejoin:round;stroke-miterlimit:10;stroke-dasharray:none;stroke-opacity:1"
       d="m 46.25,300.667 0,-3.417" /><text
       transform="scale(1,-1)"
       style="font-variant:normal;font-weight:bold;font-size:14px;font-family:Helvetica;-inkscape-font-specification:Helvetica-Bold;writing-mode:lr-tb;fill:#000000;fill-opacity:1;fill-rule:nonzero;stroke:none"
       id="text46"
       x="42.416801"
       y="-23.3332"><tspan
         x="42.416801"
         y="-23.3332"
         id="tspan48">0</tspan></text>
<path
       inkscape:connector-curvature="0"
       id="path50"
       style="fill:none;stroke:#000000;stroke-width:0.5;stroke-linecap:butt;stroke-linejoin:round;stroke-miterlimit:10;stroke-dasharray:none;stroke-opacity:1"
       d="m 133,39.5832 0,3.5" /><path
       inkscape:connector-curvature="0"
       id="path52"
       style="fill:none;stroke:#000000;stroke-width:0.5;stroke-linecap:butt;stroke-linejoin:round;stroke-miterlimit:10;stroke-dasharray:none;stroke-opacity:1"
       d="m 133,300.667 0,-3.417" /><text
       transform="scale(1,-1)"
       style="font-variant:normal;font-weight:bold;font-size:14px;font-family:Helvetica;-inkscape-font-specification:Helvetica-Bold;writing-mode:lr-tb;fill:#000000;fill-opacity:1;fill-rule:nonzero;stroke:none"
       id="text56"
       x="123.333"
       y="-23.3332"><tspan
         x="123.333 131.117 135.009"
         y="-23.3332"
         sodipodi:role="line"
         id="tspan58">0.5</tspan></text>
<path
       inkscape:connector-curvature="0"
       id="path60"
       style="fill:none;stroke:#000000;stroke-width:0.5;stroke-linecap:butt;stroke-linejoin:round;stroke-miterlimit:10;stroke-dasharray:none;stroke-opacity:1"
       d="m 219.833,39.5832 0,3.5" /><path
       inkscape:connector-curvature="0"
       id="path62"
       style="fill:none;stroke:#000000;stroke-width:0.5;stroke-linecap:butt;stroke-linejoin:round;stroke-miterlimit:10;stroke-dasharray:none;stroke-opacity:1"
       d="m 219.833,300.667 0,-3.417" /><text
       transform="scale(1,-1)"
       style="font-variant:normal;font-weight:bold;font-size:14px;font-family:Helvetica;-inkscape-font-specification:Helvetica-Bold;writing-mode:lr-tb;fill:#000000;fill-opacity:1;fill-rule:nonzero;stroke:none"
       id="text66"
       x="216"
       y="-23.3332"><tspan
         x="216"
         y="-23.3332"
         id="tspan68">1</tspan></text>
<path
       inkscape:connector-curvature="0"
       id="path70"
       style="fill:none;stroke:#000000;stroke-width:0.5;stroke-linecap:butt;stroke-linejoin:round;stroke-miterlimit:10;stroke-dasharray:none;stroke-opacity:1"
       d="m 306.583,39.5832 0,3.5" /><path
       inkscape:connector-curvature="0"
       id="path72"
       style="fill:none;stroke:#000000;stroke-width:0.5;stroke-linecap:butt;stroke-linejoin:round;stroke-miterlimit:10;stroke-dasharray:none;stroke-opacity:1"
       d="m 306.583,300.667 0,-3.417" /><text
       transform="scale(1,-1)"
       style="font-variant:normal;font-weight:bold;font-size:14px;font-family:Helvetica;-inkscape-font-specification:Helvetica-Bold;writing-mode:lr-tb;fill:#000000;fill-opacity:1;fill-rule:nonzero;stroke:none"
       id="text76"
       x="296.91699"
       y="-23.3332"><tspan
         x="296.91699 304.70099 308.59299"
         y="-23.3332"
         sodipodi:role="line"
         id="tspan78">1.5</tspan></text>
<path
       inkscape:connector-curvature="0"
       id="path80"
       style="fill:none;stroke:#000000;stroke-width:0.5;stroke-linecap:butt;stroke-linejoin:round;stroke-miterlimit:10;stroke-dasharray:none;stroke-opacity:1"
       d="m 393.417,39.5832 0,3.5" /><path
       inkscape:connector-curvature="0"
       id="path82"
       style="fill:none;stroke:#000000;stroke-width:0.5;stroke-linecap:butt;stroke-linejoin:round;stroke-miterlimit:10;stroke-dasharray:none;stroke-opacity:1"
       d="m 393.417,300.667 0,-3.417" /><text
       transform="scale(1,-1)"
       style="font-variant:normal;font-weight:bold;font-size:14px;font-family:Helvetica;-inkscape-font-specification:Helvetica-Bold;writing-mode:lr-tb;fill:#000000;fill-opacity:1;fill-rule:nonzero;stroke:none"
       id="text86"
       x="389.58301"
       y="-23.3332"><tspan
         x="389.58301"
         y="-23.3332"
         id="tspan88">2</tspan><tspan
         x="361.08301 368.867 372.759 380.543"
         y="-0.99999952"
         sodipodi:role="line"
         id="tspan90">x 10</tspan></text>
<text
       transform="scale(1,-1)"
       style="font-variant:normal;font-weight:bold;font-size:9.33333015px;font-family:Helvetica;-inkscape-font-specification:Helvetica-Bold;writing-mode:lr-tb;fill:#000000;fill-opacity:1;fill-rule:nonzero;stroke:none"
       id="text92"
       x="388.24979"
       y="-9.9167995"><tspan
         x="388.24979"
         y="-9.9167995"
         id="tspan94">5</tspan></text>
<path
       inkscape:connector-curvature="0"
       id="path96"
       style="fill:none;stroke:#000000;stroke-width:0.5;stroke-linecap:butt;stroke-linejoin:round;stroke-miterlimit:10;stroke-dasharray:none;stroke-opacity:1"
       d="m 46.25,39.5832 3.4168,0" /><path
       inkscape:connector-curvature="0"
       id="path98"
       style="fill:none;stroke:#000000;stroke-width:0.5;stroke-linecap:butt;stroke-linejoin:round;stroke-miterlimit:10;stroke-dasharray:none;stroke-opacity:1"
       d="m 393.417,39.5832 -3.5,0" /><text
       transform="scale(1,-1)"
       style="font-variant:normal;font-weight:bold;font-size:14px;font-family:Helvetica;-inkscape-font-specification:Helvetica-Bold;writing-mode:lr-tb;fill:#000000;fill-opacity:1;fill-rule:nonzero;stroke:none"
       id="text102"
       x="23.9168"
       y="-34.25"><tspan
         x="23.9168 31.7008 35.5928"
         y="-34.25"
         sodipodi:role="line"
         id="tspan104">0.5</tspan></text>
<path
       inkscape:connector-curvature="0"
       id="path106"
       style="fill:none;stroke:#000000;stroke-width:0.5;stroke-linecap:butt;stroke-linejoin:round;stroke-miterlimit:10;stroke-dasharray:none;stroke-opacity:1"
       d="m 46.25,83.1668 3.4168,0" /><path
       inkscape:connector-curvature="0"
       id="path108"
       style="fill:none;stroke:#000000;stroke-width:0.5;stroke-linecap:butt;stroke-linejoin:round;stroke-miterlimit:10;stroke-dasharray:none;stroke-opacity:1"
       d="m 393.417,83.1668 -3.5,0" /><text
       transform="scale(1,-1)"
       style="font-variant:normal;font-weight:bold;font-size:14px;font-family:Helvetica;-inkscape-font-specification:Helvetica-Bold;writing-mode:lr-tb;fill:#000000;fill-opacity:1;fill-rule:nonzero;stroke:none"
       id="text112"
       x="35.583199"
       y="-77.833199"><tspan
         x="35.583199"
         y="-77.833199"
         id="tspan114">1</tspan></text>
<path
       inkscape:connector-curvature="0"
       id="path116"
       style="fill:none;stroke:#000000;stroke-width:0.5;stroke-linecap:butt;stroke-linejoin:round;stroke-miterlimit:10;stroke-dasharray:none;stroke-opacity:1"
       d="m 46.25,126.667 3.4168,0" /><path
       inkscape:connector-curvature="0"
       id="path118"
       style="fill:none;stroke:#000000;stroke-width:0.5;stroke-linecap:butt;stroke-linejoin:round;stroke-miterlimit:10;stroke-dasharray:none;stroke-opacity:1"
       d="m 393.417,126.667 -3.5,0" /><text
       transform="scale(1,-1)"
       style="font-variant:normal;font-weight:bold;font-size:14px;font-family:Helvetica;-inkscape-font-specification:Helvetica-Bold;writing-mode:lr-tb;fill:#000000;fill-opacity:1;fill-rule:nonzero;stroke:none"
       id="text122"
       x="23.9168"
       y="-121.333"><tspan
         x="23.9168 31.7008 35.5928"
         y="-121.333"
         sodipodi:role="line"
         id="tspan124">1.5</tspan></text>
<path
       inkscape:connector-curvature="0"
       id="path126"
       style="fill:none;stroke:#000000;stroke-width:0.5;stroke-linecap:butt;stroke-linejoin:round;stroke-miterlimit:10;stroke-dasharray:none;stroke-opacity:1"
       d="m 46.25,170.167 3.4168,0" /><path
       inkscape:connector-curvature="0"
       id="path128"
       style="fill:none;stroke:#000000;stroke-width:0.5;stroke-linecap:butt;stroke-linejoin:round;stroke-miterlimit:10;stroke-dasharray:none;stroke-opacity:1"
       d="m 393.417,170.167 -3.5,0" /><text
       transform="scale(1,-1)"
       style="font-variant:normal;font-weight:bold;font-size:14px;font-family:Helvetica;-inkscape-font-specification:Helvetica-Bold;writing-mode:lr-tb;fill:#000000;fill-opacity:1;fill-rule:nonzero;stroke:none"
       id="text132"
       x="35.583199"
       y="-164.83299"><tspan
         x="35.583199"
         y="-164.83299"
         id="tspan134">2</tspan></text>
<path
       inkscape:connector-curvature="0"
       id="path136"
       style="fill:none;stroke:#000000;stroke-width:0.5;stroke-linecap:butt;stroke-linejoin:round;stroke-miterlimit:10;stroke-dasharray:none;stroke-opacity:1"
       d="m 46.25,213.667 3.4168,0" /><path
       inkscape:connector-curvature="0"
       id="path138"
       style="fill:none;stroke:#000000;stroke-width:0.5;stroke-linecap:butt;stroke-linejoin:round;stroke-miterlimit:10;stroke-dasharray:none;stroke-opacity:1"
       d="m 393.417,213.667 -3.5,0" /><text
       transform="scale(1,-1)"
       style="font-variant:normal;font-weight:bold;font-size:14px;font-family:Helvetica;-inkscape-font-specification:Helvetica-Bold;writing-mode:lr-tb;fill:#000000;fill-opacity:1;fill-rule:nonzero;stroke:none"
       id="text142"
       x="23.9168"
       y="-208.33299"><tspan
         x="23.9168 31.7008 35.5928"
         y="-208.33299"
         sodipodi:role="line"
         id="tspan144">2.5</tspan></text>
<path
       inkscape:connector-curvature="0"
       id="path146"
       style="fill:none;stroke:#000000;stroke-width:0.5;stroke-linecap:butt;stroke-linejoin:round;stroke-miterlimit:10;stroke-dasharray:none;stroke-opacity:1"
       d="m 46.25,257.167 3.4168,0" /><path
       inkscape:connector-curvature="0"
       id="path148"
       style="fill:none;stroke:#000000;stroke-width:0.5;stroke-linecap:butt;stroke-linejoin:round;stroke-miterlimit:10;stroke-dasharray:none;stroke-opacity:1"
       d="m 393.417,257.167 -3.5,0" /><text
       transform="scale(1,-1)"
       style="font-variant:normal;font-weight:bold;font-size:14px;font-family:Helvetica;-inkscape-font-specification:Helvetica-Bold;writing-mode:lr-tb;fill:#000000;fill-opacity:1;fill-rule:nonzero;stroke:none"
       id="text152"
       x="35.583199"
       y="-251.83299"><tspan
         x="35.583199"
         y="-251.83299"
         id="tspan154">3</tspan></text>
<path
       inkscape:connector-curvature="0"
       id="path156"
       style="fill:none;stroke:#000000;stroke-width:0.5;stroke-linecap:butt;stroke-linejoin:round;stroke-miterlimit:10;stroke-dasharray:none;stroke-opacity:1"
       d="m 46.25,300.667 3.4168,0" /><path
       inkscape:connector-curvature="0"
       id="path158"
       style="fill:none;stroke:#000000;stroke-width:0.5;stroke-linecap:butt;stroke-linejoin:round;stroke-miterlimit:10;stroke-dasharray:none;stroke-opacity:1"
       d="m 393.417,300.667 -3.5,0" /><text
       transform="scale(1,-1)"
       style="font-variant:normal;font-weight:bold;font-size:14px;font-family:Helvetica;-inkscape-font-specification:Helvetica-Bold;writing-mode:lr-tb;fill:#000000;fill-opacity:1;fill-rule:nonzero;stroke:none"
       id="text162"
       x="23.9168"
       y="-295.33301"><tspan
         x="23.9168 31.7008 35.5928"
         y="-295.33301"
         sodipodi:role="line"
         id="tspan164">3.5</tspan><tspan
         x="46.25 54.034 57.926003 65.709999"
         y="-305.1666"
         sodipodi:role="line"
         id="tspan166">x 10</tspan></text>
<text
       transform="scale(1,-1)"
       style="font-variant:normal;font-weight:bold;font-size:9.33333015px;font-family:Helvetica;-inkscape-font-specification:Helvetica-Bold;writing-mode:lr-tb;fill:#000000;fill-opacity:1;fill-rule:nonzero;stroke:none"
       id="text168"
       x="73.416801"
       y="-314.08301"><tspan
         x="73.416801 78.867462"
         y="-314.08301"
         sodipodi:role="line"
         id="tspan170">−4</tspan></text>
<path
       inkscape:connector-curvature="0"
       id="path172"
       style="fill:none;stroke:#000000;stroke-width:0.5;stroke-linecap:butt;stroke-linejoin:round;stroke-miterlimit:10;stroke-dasharray:none;stroke-opacity:1"
       d="m 46.25,39.5832 347.167,0" /><path
       inkscape:connector-curvature="0"
       id="path174"
       style="fill:none;stroke:#000000;stroke-width:0.5;stroke-linecap:butt;stroke-linejoin:round;stroke-miterlimit:10;stroke-dasharray:none;stroke-opacity:1"
       d="m 46.25,300.667 347.167,0" /><path
       inkscape:connector-curvature="0"
       id="path176"
       style="fill:none;stroke:#000000;stroke-width:0.5;stroke-linecap:butt;stroke-linejoin:round;stroke-miterlimit:10;stroke-dasharray:none;stroke-opacity:1"
       d="m 46.25,39.5832 0,261.0838" /><path
       inkscape:connector-curvature="0"
       id="path178"
       style="fill:none;stroke:#000000;stroke-width:0.5;stroke-linecap:butt;stroke-linejoin:round;stroke-miterlimit:10;stroke-dasharray:none;stroke-opacity:1"
       d="m 393.417,39.5832 0,261.0838" /><path
       inkscape:connector-curvature="0"
       id="path188"
       style="fill:none;stroke:#0000ff;stroke-width:0.5;stroke-linecap:butt;stroke-linejoin:round;stroke-miterlimit:10;stroke-dasharray:none;stroke-opacity:1"
       d="m 123.25,194 c 0,-2.485 -2.015,-4.5 -4.5,-4.5 -2.485,0 -4.5,2.015 -4.5,4.5 0,2.485 2.015,4.5 4.5,4.5 2.485,0 4.5,-2.015 4.5,-4.5" /><path
       inkscape:connector-curvature="0"
       id="path190"
       style="fill:none;stroke:#0000ff;stroke-width:0.5;stroke-linecap:butt;stroke-linejoin:round;stroke-miterlimit:10;stroke-dasharray:none;stroke-opacity:1"
       d="m 186.167,227.417 c 0,-2.485 -2.015,-4.5 -4.5,-4.5 -2.485,0 -4.5,2.015 -4.5,4.5 0,2.485 2.015,4.5 4.5,4.5 2.485,0 4.5,-2.015 4.5,-4.5" /><path
       inkscape:connector-curvature="0"
       id="path192"
       style="fill:none;stroke:#0000ff;stroke-width:0.5;stroke-linecap:butt;stroke-linejoin:round;stroke-miterlimit:10;stroke-dasharray:none;stroke-opacity:1"
       d="m 63.0832,52.5832 c 0,-2.4852 -2.0148,-4.5 -4.5,-4.5 -2.4852,0 -4.5,2.0148 -4.5,4.5 0,2.4852 2.0148,4.5 4.5,4.5 2.4852,0 4.5,-2.0148 4.5,-4.5" /><path
       inkscape:connector-curvature="0"
       id="path194"
       style="fill:none;stroke:#0000ff;stroke-width:0.5;stroke-linecap:butt;stroke-linejoin:round;stroke-miterlimit:10;stroke-dasharray:none;stroke-opacity:1"
       d="m 364.417,265.583 c 0,-2.485 -2.015,-4.5 -4.5,-4.5 -2.485,0 -4.5,2.015 -4.5,4.5 0,2.485 2.015,4.5 4.5,4.5 2.485,0 4.5,-2.015 4.5,-4.5" /><path
       inkscape:connector-curvature="0"
       id="path204"
       style="fill:none;stroke:#0000ff;stroke-width:0.5;stroke-linecap:butt;stroke-linejoin:round;stroke-miterlimit:10;stroke-dasharray:none;stroke-opacity:1"
       d="m 58.5832,53.3332 3,13.0836 3.0836,12.1664 3,11.1668 3.0832,10.333 3,9.584 3.0832,8.75 3.0836,8.083 3,7.5 3.0832,6.917 3,6.333 3.0832,6 3,5.5 3.0836,5.167 3.0002,4.75 3.083,4.5 3,4.25 3.083,3.916 3,3.667 3.084,3.5 3,3.25 3.083,3.083 3,2.917 3.083,2.75 3,2.583 3.084,2.5 3.083,2.334 3,2.25 3.083,2.083 3,2 3.084,1.917 3,1.833 3.083,1.75 3,1.667 3.083,1.583 3,1.583 3.084,1.417 3,1.417 3.083,1.333 3,1.25 3.083,1.25 3,1.25 3.084,1.083 3,1.167 3.083,1 3.083,1.083 3,0.917 3.084,1 3,0.917 3.083,0.916 3,0.834 3.083,0.833 3,0.75 3.084,0.833 3,0.75 3.083,0.667 3,0.75 3.083,0.667 3,0.666 3.084,0.667 3,0.583 3.083,0.667 3,0.583 3.083,0.5 3.084,0.584 3,0.583 3.083,0.5 3,0.5 3.083,0.5 3,0.5 3.084,0.5 3,0.417 3.083,0.416 3,0.5 3.083,0.417 3,0.417 3.084,0.416 3,0.334 3.083,0.416 3,0.417 3.083,0.333 3.084,0.334 3,0.416 3.083,0.334 3,0.333 3.083,0.333 3,0.334 3.084,0.25 3,0.333 3.083,0.333 3,0.25 3.083,0.334 3,0.25 3.084,0.25 3,0.333 3.083,0.25 3,0.25 3.083,0.25 3,0.25 3.084,0.25" /><g
       id="g224"
       clip-path="url(#clipPath226)"
       transform="scale(0.1,0.1)"><g
         id="g230"
         transform="scale(10,10)"><text
           transform="matrix(1,0,0,-1,61.9168,325.583)"
           style="font-variant:normal;font-weight:bold;font-size:12px;font-family:Helvetica;-inkscape-font-specification:Helvetica-Bold;writing-mode:lr-tb;fill:#000000;fill-opacity:1;fill-rule:nonzero;stroke:none"
           id="text232"><tspan
             x="0 6.6719999 13.68 22.344 29.676001 36.348 43.68 51.012001 58.344002 63.012001 70.344002 77.015999 80.351997 87.024002 97.692001 104.364 109.032 112.368 119.04 125.712 133.04401 140.37601 147.048 150.384 157.056 164.388 171.72 178.392 185.724 193.056 199.728 206.39999 213.73199 217.06799 223.74001 230.412 237.084 243.756 247.092 251.088 254.424 261.75601 268.42801 272.42401 279.09601 283.76401 287.10001 293.772 297.76801 301.104 308.112 315.12"
             y="0"
             sodipodi:role="line"
             id="tspan234">3−Chaoborus americanus Johannsen 1903 [instar 4] −&gt; </tspan><tspan
             x="54.083199 62.7472 66.083199 72.755203 80.087196 84.083199 91.415199 102.0832 109.4152 116.0872 119.4232 123.4192 130.0912 134.7592 141.4312 144.7672 148.1032 151.43919 154.77521 162.77921 170.11121 177.44321 184.77521 191.4472 224.11121 227.4472 231.44321 238.1152 245.4472 252.77921 256.1152 260.11121"
             y="14.0832"
             sodipodi:role="line"
             id="tspan236">Diaptomus tyrelli Poppe  [adult]</tspan></text>
<text
           transform="matrix(1,0,0,-1,161.5,8.4998)"
           style="font-variant:normal;font-weight:bold;font-size:14px;font-family:Helvetica;-inkscape-font-specification:Helvetica-Bold;writing-mode:lr-tb;fill:#000000;fill-opacity:1;fill-rule:nonzero;stroke:none"
           id="text238"><tspan
             x="0 10.108 17.892 25.676001 34.23 42.784 48.23 56.014 63.798 67.690002 76.244003 84.028 92.582001 100.366 104.258 108.92"
             y="0"
             sodipodi:role="line"
             id="tspan240">Resource density</tspan></text>
<text
           transform="matrix(0,1,1,0,16.1668,110.167)"
           style="font-variant:normal;font-weight:bold;font-size:14px;font-family:Helvetica;-inkscape-font-specification:Helvetica-Bold;writing-mode:lr-tb;fill:#000000;fill-opacity:1;fill-rule:nonzero;stroke:none"
           id="text242"><tspan
             x="0 10.108 18.662001 27.216 35 43.554001 56 64.554001 69.216003 73.108002 81.662003 90.216003 94.108002 99.554001 107.338 112"
             y="0"
             sodipodi:role="line"
             id="tspan244">Consumption rate</tspan></text>
</g></g><path
       inkscape:connector-curvature="0"
       id="path188-3"
       style="fill:none;stroke:#0000ff;stroke-width:0.5;stroke-linecap:butt;stroke-linejoin:round;stroke-miterlimit:10;stroke-dasharray:none;stroke-opacity:1"
       d="m 96.282224,130.66563 c 0,-2.485 -2.015,-4.5 -4.5,-4.5 -2.485,0 -4.5,2.015 -4.5,4.5 0,2.485 2.015,4.5 4.5,4.5 2.485,0 4.5,-2.015 4.5,-4.5" /></g></svg>