<?xml version="1.0" encoding="UTF-8" standalone="no"?>
<svg
   xmlns:dc="http://purl.org/dc/elements/1.1/"
   xmlns:cc="http://creativecommons.org/ns#"
   xmlns:rdf="http://www.w3.org/1999/02/22-rdf-syntax-ns#"
   xmlns:svg="http://www.w3.org/2000/svg"
   xmlns="http://www.w3.org/2000/svg"
   viewBox="0 0 900 450"
   height="450"
   width="900"
   xml:space="preserve"
   version="1.1"
   id="svg2"><metadata
     id="metadata8"><rdf:RDF><cc:Work
         rdf:about=""><dc:format>image/svg+xml</dc:format><dc:type
           rdf:resource="http://purl.org/dc/dcmitype/StillImage" /></cc:Work></rdf:RDF></metadata><defs
     id="defs6"><clipPath
       id="clipPath30"
       clipPathUnits="userSpaceOnUse"><path
         id="path32"
         d="m 51.52,36.52 319.73,0 0,279.74 -319.73,0 0,-279.74 z" /></clipPath><clipPath
       id="clipPath82"
       clipPathUnits="userSpaceOnUse"><path
         id="path84"
         d="m 51.52,36.52 319.73,0 0,279.74 -319.73,0 0,-279.74 z" /></clipPath><clipPath
       id="clipPath150"
       clipPathUnits="userSpaceOnUse"><path
         id="path152"
         d="m 51.52,316.26 319.73,0 0,14.4 -319.73,0 0,-14.4 z" /></clipPath><clipPath
       id="clipPath174"
       clipPathUnits="userSpaceOnUse"><path
         id="path176"
         d="m 371.26,36.52 319.73,0 0,279.74 -319.73,0 0,-279.74 z" /></clipPath><clipPath
       id="clipPath214"
       clipPathUnits="userSpaceOnUse"><path
         id="path216"
         d="m 371.26,36.52 319.73,0 0,279.74 -319.73,0 0,-279.74 z" /></clipPath><clipPath
       id="clipPath286"
       clipPathUnits="userSpaceOnUse"><path
         id="path288"
         d="m 371.26,316.26 319.73,0 0,14.4 -319.73,0 0,-14.4 z" /></clipPath></defs><g
     transform="matrix(1.25,0,0,-1.25,0,450)"
     id="g10"><g
       id="g12" /><g
       id="g14"><text
         id="text16"
         style="font-variant:normal;font-weight:normal;font-size:12px;font-family:Helvetica;-inkscape-font-specification:Helvetica;writing-mode:lr-tb;fill:#000000;fill-opacity:1;fill-rule:nonzero;stroke:none"
         transform="matrix(0,1,1,0,14.62,149.86)"><tspan
           id="tspan18"
           y="0"
           x="0 2.664 9.3360004 16.007999 24.672001 30.372 37.043999 39.708 46.380001">logCvalue</tspan></text>
</g><g
       id="g20" /><g
       id="g22" /><g
       id="g24" /><g
       id="g26"><g
         clip-path="url(#clipPath30)"
         id="g28" /></g><g
       id="g34" /><g
       id="g36" /><g
       id="g38" /><g
       id="g40"><path
         id="path42"
         style="fill:none;stroke:#000000;stroke-width:0.75;stroke-linecap:round;stroke-linejoin:round;stroke-miterlimit:10;stroke-dasharray:none;stroke-opacity:1"
         d="m 51.52,115.23 -5.67,0" /><path
         id="path44"
         style="fill:none;stroke:#000000;stroke-width:0.75;stroke-linecap:round;stroke-linejoin:round;stroke-miterlimit:10;stroke-dasharray:none;stroke-opacity:1"
         d="m 51.52,196.71 -5.67,0" /><path
         id="path46"
         style="fill:none;stroke:#000000;stroke-width:0.75;stroke-linecap:round;stroke-linejoin:round;stroke-miterlimit:10;stroke-dasharray:none;stroke-opacity:1"
         d="m 51.52,278.19 -5.67,0" /><text
         id="text48"
         style="font-variant:normal;font-weight:normal;font-size:10px;font-family:Helvetica;-inkscape-font-specification:Helvetica;writing-mode:lr-tb;fill:#000000;fill-opacity:1;fill-rule:nonzero;stroke:none"
         transform="matrix(1,0,0,-1,26.29,111.64)"><tspan
           id="tspan50"
           y="0"
           x="0 5.5599999 8.3400002">1.0</tspan></text>
<text
         id="text52"
         style="font-variant:normal;font-weight:normal;font-size:10px;font-family:Helvetica;-inkscape-font-specification:Helvetica;writing-mode:lr-tb;fill:#000000;fill-opacity:1;fill-rule:nonzero;stroke:none"
         transform="matrix(1,0,0,-1,26.29,193.12)"><tspan
           id="tspan54"
           y="0"
           x="0 5.5599999 8.3400002">1.5</tspan></text>
<text
         id="text56"
         style="font-variant:normal;font-weight:normal;font-size:10px;font-family:Helvetica;-inkscape-font-specification:Helvetica;writing-mode:lr-tb;fill:#000000;fill-opacity:1;fill-rule:nonzero;stroke:none"
         transform="matrix(1,0,0,-1,26.29,274.6)"><tspan
           id="tspan58"
           y="0"
           x="0 5.5599999 8.3400002">2.0</tspan></text>
</g><g
       id="g60" /><g
       id="g62"><text
         id="text64"
         style="font-variant:normal;font-weight:normal;font-size:10px;font-family:Helvetica;-inkscape-font-specification:Helvetica;writing-mode:lr-tb;fill:#000000;fill-opacity:1;fill-rule:nonzero;stroke:none"
         transform="matrix(1,0,0,-1,89.8,23.67)"><tspan
           id="tspan66"
           y="0"
           x="0 7.2199998 12.78 16.360001 21.92 24.139999 28.889999 34.450001 37.779999">Carnivore</tspan></text>
<text
         id="text68"
         style="font-variant:normal;font-weight:normal;font-size:10px;font-family:Helvetica;-inkscape-font-specification:Helvetica;writing-mode:lr-tb;fill:#000000;fill-opacity:1;fill-rule:nonzero;stroke:none"
         transform="matrix(1,0,0,-1,189.85,23.67)"><tspan
           id="tspan70"
           y="0"
           x="0 7.2199998 12.78 16.110001 21.67 23.889999 28.639999 34.200001 37.529999">Herbivore</tspan></text>
<text
         id="text72"
         style="font-variant:normal;font-weight:normal;font-size:10px;font-family:Helvetica;-inkscape-font-specification:Helvetica;writing-mode:lr-tb;fill:#000000;fill-opacity:1;fill-rule:nonzero;stroke:none"
         transform="matrix(1,0,0,-1,289.76,23.67)"><tspan
           id="tspan74"
           y="0"
           x="0 7.7800002 16.110001 21.67 23.889999 28.639999 34.200001 37.529999">Omnivore</tspan></text>
</g><g
       id="g76" /><g
       id="g78"><g
         clip-path="url(#clipPath82)"
         id="g80"><path
           id="path86"
           style="fill:none;stroke:#0080ff;stroke-width:0.75;stroke-linecap:round;stroke-linejoin:round;stroke-miterlimit:10;stroke-dasharray:none;stroke-opacity:1"
           d="m 86.49,104.18 0,18.19 0,0 49.96,0 0,0 0,-18.19 0,-23.42 0,0 -49.96,0 0,0 0,23.42 0,0" /><path
           id="path88"
           style="fill:none;stroke:#0080ff;stroke-width:0.75;stroke-linecap:round;stroke-linejoin:round;stroke-miterlimit:10;stroke-dasharray:none;stroke-opacity:1"
           d="m 186.41,111.09 0,33.26 0,0 49.96,0 0,0 0,-33.26 0,-25.22 0,0 -49.96,0 0,0 0,25.22 0,0" /><path
           id="path90"
           style="fill:none;stroke:#0080ff;stroke-width:0.75;stroke-linecap:round;stroke-linejoin:round;stroke-miterlimit:10;stroke-dasharray:none;stroke-opacity:1"
           d="m 286.33,150.49 0,13.77 0,0 49.96,0 0,0 0,-13.77 0,-28.99 0,0 -49.96,0 0,0 0,28.99 0,0" /><path
           id="path92"
           style="fill:none;stroke:#0080ff;stroke-width:0.75;stroke-linecap:round;stroke-linejoin:round;stroke-miterlimit:10;stroke-dasharray:2.25, 3.75;stroke-dashoffset:0;stroke-opacity:1"
           d="m 111.47,80.76 0,-27.06" /><path
           id="path94"
           style="fill:none;stroke:#0080ff;stroke-width:0.75;stroke-linecap:round;stroke-linejoin:round;stroke-miterlimit:10;stroke-dasharray:2.25, 3.75;stroke-dashoffset:0;stroke-opacity:1"
           d="m 211.39,85.87 0,-20.64" /><path
           id="path96"
           style="fill:none;stroke:#0080ff;stroke-width:0.75;stroke-linecap:round;stroke-linejoin:round;stroke-miterlimit:10;stroke-dasharray:2.25, 3.75;stroke-dashoffset:0;stroke-opacity:1"
           d="m 311.31,121.5 0,-38.53" /><path
           id="path98"
           style="fill:none;stroke:#0080ff;stroke-width:0.75;stroke-linecap:round;stroke-linejoin:round;stroke-miterlimit:10;stroke-dasharray:2.25, 3.75;stroke-dashoffset:0;stroke-opacity:1"
           d="m 111.47,122.37 0,60.23" /><path
           id="path100"
           style="fill:none;stroke:#0080ff;stroke-width:0.75;stroke-linecap:round;stroke-linejoin:round;stroke-miterlimit:10;stroke-dasharray:2.25, 3.75;stroke-dashoffset:0;stroke-opacity:1"
           d="m 211.39,144.35 0,46.37" /><path
           id="path102"
           style="fill:none;stroke:#0080ff;stroke-width:0.75;stroke-linecap:round;stroke-linejoin:round;stroke-miterlimit:10;stroke-dasharray:2.25, 3.75;stroke-dashoffset:0;stroke-opacity:1"
           d="m 311.31,164.26 0,57.3" /><path
           id="path104"
           style="fill:none;stroke:#0080ff;stroke-width:0.75;stroke-linecap:round;stroke-linejoin:round;stroke-miterlimit:10;stroke-dasharray:2.25, 3.75;stroke-dashoffset:0;stroke-opacity:1"
           d="m 86.49,53.7 49.96,0" /><path
           id="path106"
           style="fill:none;stroke:#0080ff;stroke-width:0.75;stroke-linecap:round;stroke-linejoin:round;stroke-miterlimit:10;stroke-dasharray:2.25, 3.75;stroke-dashoffset:0;stroke-opacity:1"
           d="m 186.41,65.23 49.96,0" /><path
           id="path108"
           style="fill:none;stroke:#0080ff;stroke-width:0.75;stroke-linecap:round;stroke-linejoin:round;stroke-miterlimit:10;stroke-dasharray:2.25, 3.75;stroke-dashoffset:0;stroke-opacity:1"
           d="m 286.33,82.97 49.96,0" /><path
           id="path110"
           style="fill:none;stroke:#0080ff;stroke-width:0.75;stroke-linecap:round;stroke-linejoin:round;stroke-miterlimit:10;stroke-dasharray:2.25, 3.75;stroke-dashoffset:0;stroke-opacity:1"
           d="m 86.49,182.6 49.96,0" /><path
           id="path112"
           style="fill:none;stroke:#0080ff;stroke-width:0.75;stroke-linecap:round;stroke-linejoin:round;stroke-miterlimit:10;stroke-dasharray:2.25, 3.75;stroke-dashoffset:0;stroke-opacity:1"
           d="m 186.41,190.72 49.96,0" /><path
           id="path114"
           style="fill:none;stroke:#0080ff;stroke-width:0.75;stroke-linecap:round;stroke-linejoin:round;stroke-miterlimit:10;stroke-dasharray:2.25, 3.75;stroke-dashoffset:0;stroke-opacity:1"
           d="m 286.33,221.56 49.96,0" /><text
           id="text116"
           style="font-variant:normal;font-weight:normal;font-size:8.31000042px;font-family:ZapfDingbats;-inkscape-font-specification:ZapfDingbats;writing-mode:lr-tb;fill:#000000;fill-opacity:1;fill-rule:nonzero;stroke:none"
           transform="matrix(1,0,0,-1,108.18,101.29)"><tspan
             id="tspan118"
             y="0"
             x="0">●</tspan></text>
<text
           id="text120"
           style="font-variant:normal;font-weight:normal;font-size:8.31000042px;font-family:ZapfDingbats;-inkscape-font-specification:ZapfDingbats;writing-mode:lr-tb;fill:#000000;fill-opacity:1;fill-rule:nonzero;stroke:none"
           transform="matrix(1,0,0,-1,208.1,108.2)"><tspan
             id="tspan122"
             y="0"
             x="0">●</tspan></text>
<text
           id="text124"
           style="font-variant:normal;font-weight:normal;font-size:8.31000042px;font-family:ZapfDingbats;-inkscape-font-specification:ZapfDingbats;writing-mode:lr-tb;fill:#000000;fill-opacity:1;fill-rule:nonzero;stroke:none"
           transform="matrix(1,0,0,-1,308.02,147.61)"><tspan
             id="tspan126"
             y="0"
             x="0">●</tspan></text>
<text
           id="text128"
           style="font-variant:normal;font-weight:normal;font-size:6.6500001px;font-family:ZapfDingbats;-inkscape-font-specification:ZapfDingbats;writing-mode:lr-tb;fill:none;stroke:#0080ff;stroke-width:0.75;stroke-linecap:round;stroke-linejoin:round;stroke-miterlimit:10;stroke-dasharray:none;stroke-opacity:1"
           transform="matrix(1,0,0,-1,108.84,183.83)"><tspan
             id="tspan130"
             y="0"
             x="0">●</tspan></text>
<text
           id="text132"
           style="font-variant:normal;font-weight:normal;font-size:6.6500001px;font-family:ZapfDingbats;-inkscape-font-specification:ZapfDingbats;writing-mode:lr-tb;fill:none;stroke:#0080ff;stroke-width:0.75;stroke-linecap:round;stroke-linejoin:round;stroke-miterlimit:10;stroke-dasharray:none;stroke-opacity:1"
           transform="matrix(1,0,0,-1,108.84,208.28)"><tspan
             id="tspan134"
             y="0"
             x="0">●</tspan></text>
</g></g><g
       id="g136" /><g
       id="g138"><path
         id="path140"
         style="fill:none;stroke:#000000;stroke-width:0.75;stroke-linecap:round;stroke-linejoin:round;stroke-miterlimit:10;stroke-dasharray:none;stroke-opacity:1"
         d="m 51.52,36.52 319.73,0 0,279.74 -319.73,0 0,-279.74 z" /></g><g
       id="g142" /><g
       id="g144" /><g
       id="g146"><g
         clip-path="url(#clipPath150)"
         id="g148"><path
           id="path154"
           style="fill:#ffe5cc;fill-opacity:1;fill-rule:nonzero;stroke:#ffe5cc;stroke-width:0.75;stroke-linecap:round;stroke-linejoin:round;stroke-miterlimit:10;stroke-dasharray:none;stroke-opacity:1"
           d="m 51.52,316.26 319.73,0 0,14.4 -319.73,0 0,-14.4 z" /><text
           id="text156"
           style="font-variant:normal;font-weight:normal;font-size:12px;font-family:Helvetica;-inkscape-font-specification:Helvetica;writing-mode:lr-tb;fill:#000000;fill-opacity:1;fill-rule:nonzero;stroke:none"
           transform="matrix(1,0,0,-1,203.72,319.15)"><tspan
             id="tspan158"
             y="0"
             x="0 8.6639996">No</tspan></text>
</g></g><g
       id="g160" /><g
       id="g162"><path
         id="path164"
         style="fill:none;stroke:#000000;stroke-width:0.75;stroke-linecap:round;stroke-linejoin:round;stroke-miterlimit:10;stroke-dasharray:none;stroke-opacity:1"
         d="m 51.52,316.26 319.73,0 0,14.4 -319.73,0 0,-14.4 z" /></g><g
       id="g166" /><g
       id="g168" /><g
       id="g170"><g
         clip-path="url(#clipPath174)"
         id="g172" /></g><g
       id="g178" /><g
       id="g180" /><g
       id="g182" /><g
       id="g184" /><g
       id="g186" /><g
       id="g188"><text
         id="text190"
         style="font-variant:normal;font-weight:normal;font-size:10px;font-family:Helvetica;-inkscape-font-specification:Helvetica;writing-mode:lr-tb;fill:#000000;fill-opacity:1;fill-rule:nonzero;stroke:none"
         transform="matrix(1,0,0,-1,409.54,23.67)"><tspan
           id="tspan192"
           y="0"
           x="0 7.2199998 12.78 16.360001 21.92 24.139999 28.889999 34.450001 37.779999">Carnivore</tspan></text>
<text
         id="text194"
         style="font-variant:normal;font-weight:normal;font-size:10px;font-family:Helvetica;-inkscape-font-specification:Helvetica;writing-mode:lr-tb;fill:#000000;fill-opacity:1;fill-rule:nonzero;stroke:none"
         transform="matrix(1,0,0,-1,509.58,23.67)"><tspan
           id="tspan196"
           y="0"
           x="0 7.2199998 12.78 16.110001 21.67 23.889999 28.639999 34.200001 37.529999">Herbivore</tspan></text>
<text
         id="text198"
         style="font-variant:normal;font-weight:normal;font-size:10px;font-family:Helvetica;-inkscape-font-specification:Helvetica;writing-mode:lr-tb;fill:#000000;fill-opacity:1;fill-rule:nonzero;stroke:none"
         transform="matrix(1,0,0,-1,609.5,23.67)"><tspan
           id="tspan200"
           y="0"
           x="0 7.7800002 16.110001 21.67 23.889999 28.639999 34.200001 37.529999">Omnivore</tspan></text>
<path
         id="path202"
         style="fill:none;stroke:#000000;stroke-width:0.75;stroke-linecap:round;stroke-linejoin:round;stroke-miterlimit:10;stroke-dasharray:none;stroke-opacity:1"
         d="m 690.99,115.23 5.67,0" /><path
         id="path204"
         style="fill:none;stroke:#000000;stroke-width:0.75;stroke-linecap:round;stroke-linejoin:round;stroke-miterlimit:10;stroke-dasharray:none;stroke-opacity:1"
         d="m 690.99,196.71 5.67,0" /><path
         id="path206"
         style="fill:none;stroke:#000000;stroke-width:0.75;stroke-linecap:round;stroke-linejoin:round;stroke-miterlimit:10;stroke-dasharray:none;stroke-opacity:1"
         d="m 690.99,278.19 5.67,0" /></g><g
       id="g208" /><g
       id="g210"><g
         clip-path="url(#clipPath214)"
         id="g212"><path
           id="path218"
           style="fill:none;stroke:#0080ff;stroke-width:0.75;stroke-linecap:round;stroke-linejoin:round;stroke-miterlimit:10;stroke-dasharray:none;stroke-opacity:1"
           d="m 406.23,131.29 0,46.07 0,0 49.96,0 0,0 0,-46.07 0,-10.65 0,0 -49.96,0 0,0 0,10.65 0,0" /><path
           id="path220"
           style="fill:none;stroke:#0080ff;stroke-width:0.75;stroke-linecap:round;stroke-linejoin:round;stroke-miterlimit:10;stroke-dasharray:none;stroke-opacity:1"
           d="m 506.15,166.14 0,13.26 0,0 49.95,0 0,0 0,-13.26 0,-23.31 0,0 -49.95,0 0,0 0,23.31 0,0" /><path
           id="path222"
           style="fill:none;stroke:#0080ff;stroke-width:0.75;stroke-linecap:round;stroke-linejoin:round;stroke-miterlimit:10;stroke-dasharray:none;stroke-opacity:1"
           d="m 606.06,162.36 0,32.77 0,0 49.96,0 0,0 0,-32.77 0,-26.51 0,0 -49.96,0 0,0 0,26.51 0,0" /><path
           id="path224"
           style="fill:none;stroke:#0080ff;stroke-width:0.75;stroke-linecap:round;stroke-linejoin:round;stroke-miterlimit:10;stroke-dasharray:2.25, 3.75;stroke-dashoffset:0;stroke-opacity:1"
           d="m 431.21,120.64 0,-19.05" /><path
           id="path226"
           style="fill:none;stroke:#0080ff;stroke-width:0.75;stroke-linecap:round;stroke-linejoin:round;stroke-miterlimit:10;stroke-dasharray:2.25, 3.75;stroke-dashoffset:0;stroke-opacity:1"
           d="m 531.13,142.83 0,-38.65" /><path
           id="path228"
           style="fill:none;stroke:#0080ff;stroke-width:0.75;stroke-linecap:round;stroke-linejoin:round;stroke-miterlimit:10;stroke-dasharray:2.25, 3.75;stroke-dashoffset:0;stroke-opacity:1"
           d="m 631.04,135.85 0,-42.96" /><path
           id="path230"
           style="fill:none;stroke:#0080ff;stroke-width:0.75;stroke-linecap:round;stroke-linejoin:round;stroke-miterlimit:10;stroke-dasharray:2.25, 3.75;stroke-dashoffset:0;stroke-opacity:1"
           d="m 431.21,177.36 0,75.36" /><path
           id="path232"
           style="fill:none;stroke:#0080ff;stroke-width:0.75;stroke-linecap:round;stroke-linejoin:round;stroke-miterlimit:10;stroke-dasharray:2.25, 3.75;stroke-dashoffset:0;stroke-opacity:1"
           d="m 531.13,179.4 0,47.48" /><path
           id="path234"
           style="fill:none;stroke:#0080ff;stroke-width:0.75;stroke-linecap:round;stroke-linejoin:round;stroke-miterlimit:10;stroke-dasharray:2.25, 3.75;stroke-dashoffset:0;stroke-opacity:1"
           d="m 631.04,195.13 0,34.05" /><path
           id="path236"
           style="fill:none;stroke:#0080ff;stroke-width:0.75;stroke-linecap:round;stroke-linejoin:round;stroke-miterlimit:10;stroke-dasharray:2.25, 3.75;stroke-dashoffset:0;stroke-opacity:1"
           d="m 406.23,101.59 49.96,0" /><path
           id="path238"
           style="fill:none;stroke:#0080ff;stroke-width:0.75;stroke-linecap:round;stroke-linejoin:round;stroke-miterlimit:10;stroke-dasharray:2.25, 3.75;stroke-dashoffset:0;stroke-opacity:1"
           d="m 506.15,104.18 49.95,0" /><path
           id="path240"
           style="fill:none;stroke:#0080ff;stroke-width:0.75;stroke-linecap:round;stroke-linejoin:round;stroke-miterlimit:10;stroke-dasharray:2.25, 3.75;stroke-dashoffset:0;stroke-opacity:1"
           d="m 606.06,92.89 49.96,0" /><path
           id="path242"
           style="fill:none;stroke:#0080ff;stroke-width:0.75;stroke-linecap:round;stroke-linejoin:round;stroke-miterlimit:10;stroke-dasharray:2.25, 3.75;stroke-dashoffset:0;stroke-opacity:1"
           d="m 406.23,252.72 49.96,0" /><path
           id="path244"
           style="fill:none;stroke:#0080ff;stroke-width:0.75;stroke-linecap:round;stroke-linejoin:round;stroke-miterlimit:10;stroke-dasharray:2.25, 3.75;stroke-dashoffset:0;stroke-opacity:1"
           d="m 506.15,226.88 49.95,0" /><path
           id="path246"
           style="fill:none;stroke:#0080ff;stroke-width:0.75;stroke-linecap:round;stroke-linejoin:round;stroke-miterlimit:10;stroke-dasharray:2.25, 3.75;stroke-dashoffset:0;stroke-opacity:1"
           d="m 606.06,229.18 49.96,0" /><text
           id="text248"
           style="font-variant:normal;font-weight:normal;font-size:8.31000042px;font-family:ZapfDingbats;-inkscape-font-specification:ZapfDingbats;writing-mode:lr-tb;fill:#000000;fill-opacity:1;fill-rule:nonzero;stroke:none"
           transform="matrix(1,0,0,-1,427.92,128.4)"><tspan
             id="tspan250"
             y="0"
             x="0">●</tspan></text>
<text
           id="text252"
           style="font-variant:normal;font-weight:normal;font-size:8.31000042px;font-family:ZapfDingbats;-inkscape-font-specification:ZapfDingbats;writing-mode:lr-tb;fill:#000000;fill-opacity:1;fill-rule:nonzero;stroke:none"
           transform="matrix(1,0,0,-1,527.83,163.25)"><tspan
             id="tspan254"
             y="0"
             x="0">●</tspan></text>
<text
           id="text256"
           style="font-variant:normal;font-weight:normal;font-size:8.31000042px;font-family:ZapfDingbats;-inkscape-font-specification:ZapfDingbats;writing-mode:lr-tb;fill:#000000;fill-opacity:1;fill-rule:nonzero;stroke:none"
           transform="matrix(1,0,0,-1,627.75,159.48)"><tspan
             id="tspan258"
             y="0"
             x="0">●</tspan></text>
<text
           id="text260"
           style="font-variant:normal;font-weight:normal;font-size:6.6500001px;font-family:ZapfDingbats;-inkscape-font-specification:ZapfDingbats;writing-mode:lr-tb;fill:none;stroke:#0080ff;stroke-width:0.75;stroke-linecap:round;stroke-linejoin:round;stroke-miterlimit:10;stroke-dasharray:none;stroke-opacity:1"
           transform="matrix(1,0,0,-1,528.49,248.08)"><tspan
             id="tspan262"
             y="0"
             x="0">●</tspan></text>
<text
           id="text264"
           style="font-variant:normal;font-weight:normal;font-size:6.6500001px;font-family:ZapfDingbats;-inkscape-font-specification:ZapfDingbats;writing-mode:lr-tb;fill:none;stroke:#0080ff;stroke-width:0.75;stroke-linecap:round;stroke-linejoin:round;stroke-miterlimit:10;stroke-dasharray:none;stroke-opacity:1"
           transform="matrix(1,0,0,-1,528.49,76.22)"><tspan
             id="tspan266"
             y="0"
             x="0">●</tspan></text>
<text
           id="text268"
           style="font-variant:normal;font-weight:normal;font-size:6.6500001px;font-family:ZapfDingbats;-inkscape-font-specification:ZapfDingbats;writing-mode:lr-tb;fill:none;stroke:#0080ff;stroke-width:0.75;stroke-linecap:round;stroke-linejoin:round;stroke-miterlimit:10;stroke-dasharray:none;stroke-opacity:1"
           transform="matrix(1,0,0,-1,528.49,296.78)"><tspan
             id="tspan270"
             y="0"
             x="0">●</tspan></text>
</g></g><g
       id="g272" /><g
       id="g274"><path
         id="path276"
         style="fill:none;stroke:#000000;stroke-width:0.75;stroke-linecap:round;stroke-linejoin:round;stroke-miterlimit:10;stroke-dasharray:none;stroke-opacity:1"
         d="m 371.26,36.52 319.73,0 0,279.74 -319.73,0 0,-279.74 z" /></g><g
       id="g278" /><g
       id="g280" /><g
       id="g282"><g
         clip-path="url(#clipPath286)"
         id="g284"><path
           id="path290"
           style="fill:#ffe5cc;fill-opacity:1;fill-rule:nonzero;stroke:#ffe5cc;stroke-width:0.75;stroke-linecap:round;stroke-linejoin:round;stroke-miterlimit:10;stroke-dasharray:none;stroke-opacity:1"
           d="m 371.26,316.26 319.73,0 0,14.4 -319.73,0 0,-14.4 z" /><text
           id="text292"
           style="font-variant:normal;font-weight:normal;font-size:12px;font-family:Helvetica;-inkscape-font-specification:Helvetica;writing-mode:lr-tb;fill:#000000;fill-opacity:1;fill-rule:nonzero;stroke:none"
           transform="matrix(1,0,0,-1,521.63,319.15)"><tspan
             id="tspan294"
             y="0"
             x="0 6.3239999 12.996">Yes</tspan></text>
</g></g><g
       id="g296" /><g
       id="g298"><path
         id="path300"
         style="fill:none;stroke:#000000;stroke-width:0.75;stroke-linecap:round;stroke-linejoin:round;stroke-miterlimit:10;stroke-dasharray:none;stroke-opacity:1"
         d="m 371.26,316.26 319.73,0 0,14.4 -319.73,0 0,-14.4 z" /></g><g
       id="g302" /><g
       id="g304" /><g
       id="g306" /><g
       id="g308" /></g></svg>