<?xml version="1.0" encoding="UTF-8" standalone="no"?>
<svg
   xmlns:dc="http://purl.org/dc/elements/1.1/"
   xmlns:cc="http://creativecommons.org/ns#"
   xmlns:rdf="http://www.w3.org/1999/02/22-rdf-syntax-ns#"
   xmlns:svg="http://www.w3.org/2000/svg"
   xmlns="http://www.w3.org/2000/svg"
   viewBox="0 0 540 450"
   height="450"
   width="540"
   xml:space="preserve"
   version="1.1"
   id="svg2"><metadata
     id="metadata8"><rdf:RDF><cc:Work
         rdf:about=""><dc:format>image/svg+xml</dc:format><dc:type
           rdf:resource="http://purl.org/dc/dcmitype/StillImage" /></cc:Work></rdf:RDF></metadata><defs
     id="defs6"><clipPath
       id="clipPath104"
       clipPathUnits="userSpaceOnUse"><path
         id="path106"
         d="m 59.04,73.44 342.72,0 0,227.52 -342.72,0 0,-227.52 z" /></clipPath></defs><g
     transform="matrix(1.25,0,0,-1.25,0,450)"
     id="g10"><g
       id="g12" /><g
       id="g14"><path
         id="path16"
         style="fill:#ffffff;fill-opacity:1;fill-rule:nonzero;stroke:#000000;stroke-width:0.75;stroke-linecap:round;stroke-linejoin:round;stroke-miterlimit:10;stroke-dasharray:none;stroke-opacity:1"
         d="m 71.73,73.44 39.67,0 0,155.84 -39.67,0 0,-155.84 z" /><path
         id="path18"
         style="fill:#b3b3b3;fill-opacity:1;fill-rule:nonzero;stroke:#000000;stroke-width:0.75;stroke-linecap:round;stroke-linejoin:round;stroke-miterlimit:10;stroke-dasharray:none;stroke-opacity:1"
         d="m 111.4,73.44 39.67,0 0,197.26 -39.67,0 0,-197.26 z" /><path
         id="path20"
         style="fill:#ffffff;fill-opacity:1;fill-rule:nonzero;stroke:#000000;stroke-width:0.75;stroke-linecap:round;stroke-linejoin:round;stroke-miterlimit:10;stroke-dasharray:none;stroke-opacity:1"
         d="m 190.73,73.44 39.67,0 0,164.54 -39.67,0 0,-164.54 z" /><path
         id="path22"
         style="fill:#b3b3b3;fill-opacity:1;fill-rule:nonzero;stroke:#000000;stroke-width:0.75;stroke-linecap:round;stroke-linejoin:round;stroke-miterlimit:10;stroke-dasharray:none;stroke-opacity:1"
         d="m 230.4,73.44 39.67,0 0,210.89 -39.67,0 0,-210.89 z" /><path
         id="path24"
         style="fill:#ffffff;fill-opacity:1;fill-rule:nonzero;stroke:#000000;stroke-width:0.75;stroke-linecap:round;stroke-linejoin:round;stroke-miterlimit:10;stroke-dasharray:none;stroke-opacity:1"
         d="m 309.73,73.44 39.67,0 0,193.68 -39.67,0 0,-193.68 z" /><path
         id="path26"
         style="fill:#b3b3b3;fill-opacity:1;fill-rule:nonzero;stroke:#000000;stroke-width:0.75;stroke-linecap:round;stroke-linejoin:round;stroke-miterlimit:10;stroke-dasharray:none;stroke-opacity:1"
         d="m 349.4,73.44 39.67,0 0,211.11 -39.67,0 0,-211.11 z" /></g><g
       id="g28"><text
         id="text30"
         style="font-variant:normal;font-weight:normal;font-size:12px;font-family:Helvetica;-inkscape-font-specification:Helvetica;writing-mode:lr-tb;fill:#000000;fill-opacity:1;fill-rule:nonzero;stroke:none"
         transform="matrix(1,0,0,-1,85.4,47.52)"><tspan
           id="tspan32"
           y="0"
           x="0 8.6639996 15.336 19.632 26.304001 28.968 34.667999 41.34 45.335999">Carnivore</tspan></text>
<text
         id="text34"
         style="font-variant:normal;font-weight:normal;font-size:12px;font-family:Helvetica;-inkscape-font-specification:Helvetica;writing-mode:lr-tb;fill:#000000;fill-opacity:1;fill-rule:nonzero;stroke:none"
         transform="matrix(1,0,0,-1,204.55,47.52)"><tspan
           id="tspan36"
           y="0"
           x="0 8.6639996 15.336 19.332001 26.004 28.667999 34.368 41.040001 45.035999">Herbivore</tspan></text>
<text
         id="text38"
         style="font-variant:normal;font-weight:normal;font-size:12px;font-family:Helvetica;-inkscape-font-specification:Helvetica;writing-mode:lr-tb;fill:#000000;fill-opacity:1;fill-rule:nonzero;stroke:none"
         transform="matrix(1,0,0,-1,323.55,47.52)"><tspan
           id="tspan40"
           y="0"
           x="0 9.3360004 19.332001 26.004 28.667999 34.368 41.040001 45.035999">Omnivore</tspan></text>
</g><g
       id="g42"><text
         id="text44"
         style="font-variant:normal;font-weight:normal;font-size:12px;font-family:Helvetica;-inkscape-font-specification:Helvetica;writing-mode:lr-tb;fill:#000000;fill-opacity:1;fill-rule:nonzero;stroke:none"
         transform="matrix(0,1,1,0,12.96,145)"><tspan
           id="tspan46"
           y="0"
           x="0 2.664 9.3360004 16.007999 19.344 28.007999 31.344 37.043999 43.716 46.380001 53.051998 59.723999 63.060001 67.056 73.727997 80.400002">log C value (pg)</tspan></text>
</g><g
       id="g48"><path
         id="path50"
         style="fill:none;stroke:#000000;stroke-width:0.75;stroke-linecap:round;stroke-linejoin:round;stroke-miterlimit:10;stroke-dasharray:none;stroke-opacity:1"
         d="m 59.04,73.44 0,227.52" /><path
         id="path52"
         style="fill:none;stroke:#000000;stroke-width:0.75;stroke-linecap:round;stroke-linejoin:round;stroke-miterlimit:10;stroke-dasharray:none;stroke-opacity:1"
         d="m 59.04,73.44 -7.2,0" /><path
         id="path54"
         style="fill:none;stroke:#000000;stroke-width:0.75;stroke-linecap:round;stroke-linejoin:round;stroke-miterlimit:10;stroke-dasharray:none;stroke-opacity:1"
         d="m 59.04,105.94 -7.2,0" /><path
         id="path56"
         style="fill:none;stroke:#000000;stroke-width:0.75;stroke-linecap:round;stroke-linejoin:round;stroke-miterlimit:10;stroke-dasharray:none;stroke-opacity:1"
         d="m 59.04,138.45 -7.2,0" /><path
         id="path58"
         style="fill:none;stroke:#000000;stroke-width:0.75;stroke-linecap:round;stroke-linejoin:round;stroke-miterlimit:10;stroke-dasharray:none;stroke-opacity:1"
         d="m 59.04,170.95 -7.2,0" /><path
         id="path60"
         style="fill:none;stroke:#000000;stroke-width:0.75;stroke-linecap:round;stroke-linejoin:round;stroke-miterlimit:10;stroke-dasharray:none;stroke-opacity:1"
         d="m 59.04,203.45 -7.2,0" /><path
         id="path62"
         style="fill:none;stroke:#000000;stroke-width:0.75;stroke-linecap:round;stroke-linejoin:round;stroke-miterlimit:10;stroke-dasharray:none;stroke-opacity:1"
         d="m 59.04,235.95 -7.2,0" /><path
         id="path64"
         style="fill:none;stroke:#000000;stroke-width:0.75;stroke-linecap:round;stroke-linejoin:round;stroke-miterlimit:10;stroke-dasharray:none;stroke-opacity:1"
         d="m 59.04,268.46 -7.2,0" /><path
         id="path66"
         style="fill:none;stroke:#000000;stroke-width:0.75;stroke-linecap:round;stroke-linejoin:round;stroke-miterlimit:10;stroke-dasharray:none;stroke-opacity:1"
         d="m 59.04,300.96 -7.2,0" /><text
         id="text68"
         style="font-variant:normal;font-weight:normal;font-size:12px;font-family:Helvetica;-inkscape-font-specification:Helvetica;writing-mode:lr-tb;fill:#000000;fill-opacity:1;fill-rule:nonzero;stroke:none"
         transform="matrix(0,1,1,0,41.76,65.1)"><tspan
           id="tspan70"
           y="0"
           x="0 6.6719999 10.008">0.0</tspan></text>
<text
         id="text72"
         style="font-variant:normal;font-weight:normal;font-size:12px;font-family:Helvetica;-inkscape-font-specification:Helvetica;writing-mode:lr-tb;fill:#000000;fill-opacity:1;fill-rule:nonzero;stroke:none"
         transform="matrix(0,1,1,0,41.76,97.6)"><tspan
           id="tspan74"
           y="0"
           x="0 6.6719999 10.008">0.2</tspan></text>
<text
         id="text76"
         style="font-variant:normal;font-weight:normal;font-size:12px;font-family:Helvetica;-inkscape-font-specification:Helvetica;writing-mode:lr-tb;fill:#000000;fill-opacity:1;fill-rule:nonzero;stroke:none"
         transform="matrix(0,1,1,0,41.76,130.11)"><tspan
           id="tspan78"
           y="0"
           x="0 6.6719999 10.008">0.4</tspan></text>
<text
         id="text80"
         style="font-variant:normal;font-weight:normal;font-size:12px;font-family:Helvetica;-inkscape-font-specification:Helvetica;writing-mode:lr-tb;fill:#000000;fill-opacity:1;fill-rule:nonzero;stroke:none"
         transform="matrix(0,1,1,0,41.76,162.61)"><tspan
           id="tspan82"
           y="0"
           x="0 6.6719999 10.008">0.6</tspan></text>
<text
         id="text84"
         style="font-variant:normal;font-weight:normal;font-size:12px;font-family:Helvetica;-inkscape-font-specification:Helvetica;writing-mode:lr-tb;fill:#000000;fill-opacity:1;fill-rule:nonzero;stroke:none"
         transform="matrix(0,1,1,0,41.76,195.11)"><tspan
           id="tspan86"
           y="0"
           x="0 6.6719999 10.008">0.8</tspan></text>
<text
         id="text88"
         style="font-variant:normal;font-weight:normal;font-size:12px;font-family:Helvetica;-inkscape-font-specification:Helvetica;writing-mode:lr-tb;fill:#000000;fill-opacity:1;fill-rule:nonzero;stroke:none"
         transform="matrix(0,1,1,0,41.76,227.61)"><tspan
           id="tspan90"
           y="0"
           x="0 6.6719999 10.008">1.0</tspan></text>
<text
         id="text92"
         style="font-variant:normal;font-weight:normal;font-size:12px;font-family:Helvetica;-inkscape-font-specification:Helvetica;writing-mode:lr-tb;fill:#000000;fill-opacity:1;fill-rule:nonzero;stroke:none"
         transform="matrix(0,1,1,0,41.76,260.12)"><tspan
           id="tspan94"
           y="0"
           x="0 6.6719999 10.008">1.2</tspan></text>
<text
         id="text96"
         style="font-variant:normal;font-weight:normal;font-size:12px;font-family:Helvetica;-inkscape-font-specification:Helvetica;writing-mode:lr-tb;fill:#000000;fill-opacity:1;fill-rule:nonzero;stroke:none"
         transform="matrix(0,1,1,0,41.76,292.62)"><tspan
           id="tspan98"
           y="0"
           x="0 6.6719999 10.008">1.4</tspan></text>
</g><g
       id="g100"><g
         clip-path="url(#clipPath104)"
         id="g102"><path
           id="path108"
           style="fill:none;stroke:#000000;stroke-width:0.75;stroke-linecap:round;stroke-linejoin:round;stroke-miterlimit:10;stroke-dasharray:none;stroke-opacity:1"
           d="m 91.57,237.15 0,-15.74" /><path
           id="path110"
           style="fill:none;stroke:#000000;stroke-width:0.75;stroke-linecap:round;stroke-linejoin:round;stroke-miterlimit:10;stroke-dasharray:none;stroke-opacity:1"
           d="m 98.77,237.15 -7.2,0 -7.2,0" /><path
           id="path112"
           style="fill:none;stroke:#000000;stroke-width:0.75;stroke-linecap:round;stroke-linejoin:round;stroke-miterlimit:10;stroke-dasharray:none;stroke-opacity:1"
           d="m 84.37,221.41 7.2,0 7.2,0" /><path
           id="path114"
           style="fill:none;stroke:#000000;stroke-width:0.75;stroke-linecap:round;stroke-linejoin:round;stroke-miterlimit:10;stroke-dasharray:none;stroke-opacity:1"
           d="m 131.23,280.41 0,-19.42" /><path
           id="path116"
           style="fill:none;stroke:#000000;stroke-width:0.75;stroke-linecap:round;stroke-linejoin:round;stroke-miterlimit:10;stroke-dasharray:none;stroke-opacity:1"
           d="m 138.43,280.41 -7.2,0 -7.2,0" /><path
           id="path118"
           style="fill:none;stroke:#000000;stroke-width:0.75;stroke-linecap:round;stroke-linejoin:round;stroke-miterlimit:10;stroke-dasharray:none;stroke-opacity:1"
           d="m 124.03,260.99 7.2,0 7.2,0" /><path
           id="path120"
           style="fill:none;stroke:#000000;stroke-width:0.75;stroke-linecap:round;stroke-linejoin:round;stroke-miterlimit:10;stroke-dasharray:none;stroke-opacity:1"
           d="m 210.57,243.53 0,-11.11" /><path
           id="path122"
           style="fill:none;stroke:#000000;stroke-width:0.75;stroke-linecap:round;stroke-linejoin:round;stroke-miterlimit:10;stroke-dasharray:none;stroke-opacity:1"
           d="m 217.77,243.53 -7.2,0 -7.2,0" /><path
           id="path124"
           style="fill:none;stroke:#000000;stroke-width:0.75;stroke-linecap:round;stroke-linejoin:round;stroke-miterlimit:10;stroke-dasharray:none;stroke-opacity:1"
           d="m 203.37,232.42 7.2,0 7.2,0" /><path
           id="path126"
           style="fill:none;stroke:#000000;stroke-width:0.75;stroke-linecap:round;stroke-linejoin:round;stroke-miterlimit:10;stroke-dasharray:none;stroke-opacity:1"
           d="m 250.23,288.86 0,-9.06" /><path
           id="path128"
           style="fill:none;stroke:#000000;stroke-width:0.75;stroke-linecap:round;stroke-linejoin:round;stroke-miterlimit:10;stroke-dasharray:none;stroke-opacity:1"
           d="m 257.43,288.86 -7.2,0 -7.2,0" /><path
           id="path130"
           style="fill:none;stroke:#000000;stroke-width:0.75;stroke-linecap:round;stroke-linejoin:round;stroke-miterlimit:10;stroke-dasharray:none;stroke-opacity:1"
           d="m 243.03,279.8 7.2,0 7.2,0" /><path
           id="path132"
           style="fill:none;stroke:#000000;stroke-width:0.75;stroke-linecap:round;stroke-linejoin:round;stroke-miterlimit:10;stroke-dasharray:none;stroke-opacity:1"
           d="m 329.57,271.04 0,-7.84" /><path
           id="path134"
           style="fill:none;stroke:#000000;stroke-width:0.75;stroke-linecap:round;stroke-linejoin:round;stroke-miterlimit:10;stroke-dasharray:none;stroke-opacity:1"
           d="m 336.77,271.04 -7.2,0 -7.2,0" /><path
           id="path136"
           style="fill:none;stroke:#000000;stroke-width:0.75;stroke-linecap:round;stroke-linejoin:round;stroke-miterlimit:10;stroke-dasharray:none;stroke-opacity:1"
           d="m 322.37,263.2 7.2,0 7.2,0" /><path
           id="path138"
           style="fill:none;stroke:#000000;stroke-width:0.75;stroke-linecap:round;stroke-linejoin:round;stroke-miterlimit:10;stroke-dasharray:none;stroke-opacity:1"
           d="m 369.23,290.38 0,-11.66" /><path
           id="path140"
           style="fill:none;stroke:#000000;stroke-width:0.75;stroke-linecap:round;stroke-linejoin:round;stroke-miterlimit:10;stroke-dasharray:none;stroke-opacity:1"
           d="m 376.43,290.38 -7.2,0 -7.2,0" /><path
           id="path142"
           style="fill:none;stroke:#000000;stroke-width:0.75;stroke-linecap:round;stroke-linejoin:round;stroke-miterlimit:10;stroke-dasharray:none;stroke-opacity:1"
           d="m 362.03,278.72 7.2,0 7.2,0" /><path
           id="path144"
           style="fill:none;stroke:#ff0000;stroke-width:0.75;stroke-linecap:round;stroke-linejoin:round;stroke-miterlimit:10;stroke-dasharray:none;stroke-opacity:1"
           d="m 87.75,232.66 3.82,3.82 3.82,-3.82 -3.82,-3.81 -3.82,3.81" /><path
           id="path146"
           style="fill:none;stroke:#ff0000;stroke-width:0.75;stroke-linecap:round;stroke-linejoin:round;stroke-miterlimit:10;stroke-dasharray:none;stroke-opacity:1"
           d="m 127.41,266.71 3.82,3.81 3.82,-3.81 -3.82,-3.82 -3.82,3.82" /><path
           id="path148"
           style="fill:none;stroke:#ff0000;stroke-width:0.75;stroke-linecap:round;stroke-linejoin:round;stroke-miterlimit:10;stroke-dasharray:none;stroke-opacity:1"
           d="m 206.75,245.11 3.82,3.82 3.82,-3.82 -3.82,-3.82 -3.82,3.82" /><path
           id="path150"
           style="fill:none;stroke:#ff0000;stroke-width:0.75;stroke-linecap:round;stroke-linejoin:round;stroke-miterlimit:10;stroke-dasharray:none;stroke-opacity:1"
           d="m 246.41,279.15 3.82,3.82 3.82,-3.82 -3.82,-3.82 -3.82,3.82" /><path
           id="path152"
           style="fill:none;stroke:#ff0000;stroke-width:0.75;stroke-linecap:round;stroke-linejoin:round;stroke-miterlimit:10;stroke-dasharray:none;stroke-opacity:1"
           d="m 325.75,260.73 3.82,3.82 3.82,-3.82 -3.82,-3.82 -3.82,3.82" /><path
           id="path154"
           style="fill:none;stroke:#ff0000;stroke-width:0.75;stroke-linecap:round;stroke-linejoin:round;stroke-miterlimit:10;stroke-dasharray:none;stroke-opacity:1"
           d="m 365.41,294.77 3.82,3.82 3.82,-3.82 -3.82,-3.82 -3.82,3.82" /></g></g></g></svg>