<?xml version="1.0" encoding="UTF-8" standalone="no"?>
<!-- Created with Inkscape (http://www.inkscape.org/) -->

<svg
   xmlns:dc="http://purl.org/dc/elements/1.1/"
   xmlns:cc="http://creativecommons.org/ns#"
   xmlns:rdf="http://www.w3.org/1999/02/22-rdf-syntax-ns#"
   xmlns:svg="http://www.w3.org/2000/svg"
   xmlns="http://www.w3.org/2000/svg"
   xmlns:sodipodi="http://sodipodi.sourceforge.net/DTD/sodipodi-0.dtd"
   xmlns:inkscape="http://www.inkscape.org/namespaces/inkscape"
   id="svg2"
   version="1.1"
   inkscape:version="0.91 r13725"
   xml:space="preserve"
   width="540"
   height="360"
   viewBox="0 0 540 360"
   sodipodi:docname="fvals.svg"><metadata
     id="metadata8"><rdf:RDF><cc:Work
         rdf:about=""><dc:format>image/svg+xml</dc:format><dc:type
           rdf:resource="http://purl.org/dc/dcmitype/StillImage" /><dc:title></dc:title></cc:Work></rdf:RDF></metadata><defs
     id="defs6"><clipPath
       clipPathUnits="userSpaceOnUse"
       id="clipPath18"><path
         d="m 43.2,43.2 374.4,0 0,201.6 -374.4,0 0,-201.6 z"
         id="path20"
         inkscape:connector-curvature="0" /></clipPath><clipPath
       clipPathUnits="userSpaceOnUse"
       id="clipPath118"><path
         d="m 43.2,43.2 374.4,0 0,201.6 -374.4,0 0,-201.6 z"
         id="path120"
         inkscape:connector-curvature="0" /></clipPath></defs><sodipodi:namedview
     pagecolor="#ffffff"
     bordercolor="#666666"
     borderopacity="1"
     objecttolerance="10"
     gridtolerance="10"
     guidetolerance="10"
     inkscape:pageopacity="0"
     inkscape:pageshadow="2"
     inkscape:window-width="1920"
     inkscape:window-height="1034"
     id="namedview4"
     showgrid="false"
     inkscape:zoom="1.3111111"
     inkscape:cx="98.217531"
     inkscape:cy="99.766615"
     inkscape:window-x="0"
     inkscape:window-y="0"
     inkscape:window-maximized="1"
     inkscape:current-layer="g10" /><g
     id="g10"
     inkscape:groupmode="layer"
     inkscape:label="fvals"
     transform="matrix(1.25,0,0,-1.25,0,360)"><g
       id="g12" /><g
       id="g14"
       transform="translate(0,-1.6)"><g
         id="g16"
         clip-path="url(#clipPath18)"><path
           d="m 57.07,50.67 3.46,0 3.47,0 3.47,0 3.46,0.01 3.47,0.11 3.47,0.48 3.46,1.4 3.47,3.15 3.47,5.8 3.46,9.12 3.47,12.67 3.47,15.91 3.46,18.39 3.47,19.75 3.47,19.9 3.46,18.86 3.47,16.83 3.47,14.08 3.46,10.88 3.47,7.52 3.47,4.19 3.46,1.09 3.47,-1.66 3.47,-4.01 3.46,-5.93 3.47,-7.42 3.47,-8.49 3.46,-9.22 3.47,-9.63 3.47,-9.77 3.46,-9.71 3.47,-9.47 3.47,-9.11 3.46,-8.67 3.47,-8.16 3.47,-7.61 3.46,-7.06 3.47,-6.49 3.47,-5.95 3.46,-5.43 3.47,-4.92 3.47,-4.46 3.46,-4.02 3.47,-3.61 3.47,-3.24 3.46,-2.9 3.47,-2.59 3.47,-2.32 3.46,-2.06 3.47,-1.83 3.47,-1.63 3.46,-1.45 3.47,-1.28 3.47,-1.14 3.46,-1.01 3.47,-0.9 3.47,-0.79 3.46,-0.7 3.47,-0.63 3.47,-0.55 3.46,-0.48 3.47,-0.43 3.47,-0.39 3.46,-0.34 3.47,-0.29 3.47,-0.27 3.46,-0.24 3.47,-0.2 3.47,-0.19 3.46,-0.16 3.47,-0.15 3.47,-0.13 3.46,-0.11 3.47,-0.1 3.47,-0.09 3.46,-0.08 3.47,-0.07 3.47,-0.07 3.46,-0.05 3.47,-0.05 3.47,-0.05 3.46,-0.04 3.47,-0.03 3.47,-0.04 3.46,-0.03 3.47,-0.02 3.47,-0.02 3.46,-0.02 3.47,-0.02 3.47,-0.02 3.46,-0.01 3.47,-0.02 3.47,-0.01 3.46,-0.01 3.47,-0.01 3.47,-0.01 3.46,0 3.47,-0.01 3.47,-0.01 3.46,0"
           style="fill:none;stroke:#0000ff;stroke-width:0.75;stroke-linecap:round;stroke-linejoin:round;stroke-miterlimit:10;stroke-dasharray:none;stroke-opacity:1"
           id="path22"
           inkscape:connector-curvature="0" /></g></g><g
       id="g24"
       transform="translate(0,-1.6)"><path
         d="m 57.07,43.2 346.66,0"
         style="fill:none;stroke:#000000;stroke-width:0.75;stroke-linecap:round;stroke-linejoin:round;stroke-miterlimit:10;stroke-dasharray:none;stroke-opacity:1"
         id="path26"
         inkscape:connector-curvature="0" /><path
         d="m 57.07,43.2 0,-7.2"
         style="fill:none;stroke:#000000;stroke-width:0.75;stroke-linecap:round;stroke-linejoin:round;stroke-miterlimit:10;stroke-dasharray:none;stroke-opacity:1"
         id="path28"
         inkscape:connector-curvature="0" /><path
         d="m 143.73,43.2 0,-7.2"
         style="fill:none;stroke:#000000;stroke-width:0.75;stroke-linecap:round;stroke-linejoin:round;stroke-miterlimit:10;stroke-dasharray:none;stroke-opacity:1"
         id="path30"
         inkscape:connector-curvature="0" /><path
         d="m 230.4,43.2 0,-7.2"
         style="fill:none;stroke:#000000;stroke-width:0.75;stroke-linecap:round;stroke-linejoin:round;stroke-miterlimit:10;stroke-dasharray:none;stroke-opacity:1"
         id="path32"
         inkscape:connector-curvature="0" /><path
         d="m 317.07,43.2 0,-7.2"
         style="fill:none;stroke:#000000;stroke-width:0.75;stroke-linecap:round;stroke-linejoin:round;stroke-miterlimit:10;stroke-dasharray:none;stroke-opacity:1"
         id="path34"
         inkscape:connector-curvature="0" /><path
         d="m 403.73,43.2 0,-7.2"
         style="fill:none;stroke:#000000;stroke-width:0.75;stroke-linecap:round;stroke-linejoin:round;stroke-miterlimit:10;stroke-dasharray:none;stroke-opacity:1"
         id="path36"
         inkscape:connector-curvature="0" /><text
         transform="matrix(1,0,0,-1,53.73,17.28)"
         style="font-variant:normal;font-weight:normal;font-size:12px;font-family:Helvetica;-inkscape-font-specification:Helvetica;writing-mode:lr-tb;fill:#000000;fill-opacity:1;fill-rule:nonzero;stroke:none"
         id="text38"><tspan
           x="0"
           y="0"
           id="tspan40">0</tspan></text>
<text
         transform="matrix(1,0,0,-1,140.4,17.28)"
         style="font-variant:normal;font-weight:normal;font-size:12px;font-family:Helvetica;-inkscape-font-specification:Helvetica;writing-mode:lr-tb;fill:#000000;fill-opacity:1;fill-rule:nonzero;stroke:none"
         id="text42"><tspan
           x="0"
           y="0"
           id="tspan44">1</tspan></text>
<text
         transform="matrix(1,0,0,-1,227.06,17.28)"
         style="font-variant:normal;font-weight:normal;font-size:12px;font-family:Helvetica;-inkscape-font-specification:Helvetica;writing-mode:lr-tb;fill:#000000;fill-opacity:1;fill-rule:nonzero;stroke:none"
         id="text46"><tspan
           x="0"
           y="0"
           id="tspan48">2</tspan></text>
<text
         transform="matrix(1,0,0,-1,313.73,17.28)"
         style="font-variant:normal;font-weight:normal;font-size:12px;font-family:Helvetica;-inkscape-font-specification:Helvetica;writing-mode:lr-tb;fill:#000000;fill-opacity:1;fill-rule:nonzero;stroke:none"
         id="text50"><tspan
           x="0"
           y="0"
           id="tspan52">3</tspan></text>
<text
         transform="matrix(1,0,0,-1,400.4,17.28)"
         style="font-variant:normal;font-weight:normal;font-size:12px;font-family:Helvetica;-inkscape-font-specification:Helvetica;writing-mode:lr-tb;fill:#000000;fill-opacity:1;fill-rule:nonzero;stroke:none"
         id="text54"><tspan
           x="0"
           y="0"
           id="tspan56">4</tspan></text>
<path
         d="m 43.2,50.67 0,186.66"
         style="fill:none;stroke:#000000;stroke-width:0.75;stroke-linecap:round;stroke-linejoin:round;stroke-miterlimit:10;stroke-dasharray:none;stroke-opacity:1"
         id="path58"
         inkscape:connector-curvature="0" /><path
         d="m 43.2,50.67 -7.2,0"
         style="fill:none;stroke:#000000;stroke-width:0.75;stroke-linecap:round;stroke-linejoin:round;stroke-miterlimit:10;stroke-dasharray:none;stroke-opacity:1"
         id="path60"
         inkscape:connector-curvature="0" /><path
         d="m 43.2,81.78 -7.2,0"
         style="fill:none;stroke:#000000;stroke-width:0.75;stroke-linecap:round;stroke-linejoin:round;stroke-miterlimit:10;stroke-dasharray:none;stroke-opacity:1"
         id="path62"
         inkscape:connector-curvature="0" /><path
         d="m 43.2,112.89 -7.2,0"
         style="fill:none;stroke:#000000;stroke-width:0.75;stroke-linecap:round;stroke-linejoin:round;stroke-miterlimit:10;stroke-dasharray:none;stroke-opacity:1"
         id="path64"
         inkscape:connector-curvature="0" /><path
         d="M 43.2,144 36,144"
         style="fill:none;stroke:#000000;stroke-width:0.75;stroke-linecap:round;stroke-linejoin:round;stroke-miterlimit:10;stroke-dasharray:none;stroke-opacity:1"
         id="path66"
         inkscape:connector-curvature="0" /><path
         d="m 43.2,175.11 -7.2,0"
         style="fill:none;stroke:#000000;stroke-width:0.75;stroke-linecap:round;stroke-linejoin:round;stroke-miterlimit:10;stroke-dasharray:none;stroke-opacity:1"
         id="path68"
         inkscape:connector-curvature="0" /><path
         d="m 43.2,206.22 -7.2,0"
         style="fill:none;stroke:#000000;stroke-width:0.75;stroke-linecap:round;stroke-linejoin:round;stroke-miterlimit:10;stroke-dasharray:none;stroke-opacity:1"
         id="path70"
         inkscape:connector-curvature="0" /><path
         d="m 43.2,237.33 -7.2,0"
         style="fill:none;stroke:#000000;stroke-width:0.75;stroke-linecap:round;stroke-linejoin:round;stroke-miterlimit:10;stroke-dasharray:none;stroke-opacity:1"
         id="path72"
         inkscape:connector-curvature="0" /><text
         transform="matrix(0,1,1,0,25.92,42.33)"
         style="font-variant:normal;font-weight:normal;font-size:12px;font-family:Helvetica;-inkscape-font-specification:Helvetica;writing-mode:lr-tb;fill:#000000;fill-opacity:1;fill-rule:nonzero;stroke:none"
         id="text74"><tspan
           x="0 6.6719999 10.008"
           y="0"
           sodipodi:role="line"
           id="tspan76">0.0</tspan></text>
<text
         transform="matrix(0,1,1,0,25.92,73.44)"
         style="font-variant:normal;font-weight:normal;font-size:12px;font-family:Helvetica;-inkscape-font-specification:Helvetica;writing-mode:lr-tb;fill:#000000;fill-opacity:1;fill-rule:nonzero;stroke:none"
         id="text78"><tspan
           x="0 6.6719999 10.008"
           y="0"
           sodipodi:role="line"
           id="tspan80">0.2</tspan></text>
<text
         transform="matrix(0,1,1,0,25.92,104.55)"
         style="font-variant:normal;font-weight:normal;font-size:12px;font-family:Helvetica;-inkscape-font-specification:Helvetica;writing-mode:lr-tb;fill:#000000;fill-opacity:1;fill-rule:nonzero;stroke:none"
         id="text82"><tspan
           x="0 6.6719999 10.008"
           y="0"
           sodipodi:role="line"
           id="tspan84">0.4</tspan></text>
<text
         transform="matrix(0,1,1,0,25.92,135.66)"
         style="font-variant:normal;font-weight:normal;font-size:12px;font-family:Helvetica;-inkscape-font-specification:Helvetica;writing-mode:lr-tb;fill:#000000;fill-opacity:1;fill-rule:nonzero;stroke:none"
         id="text86"><tspan
           x="0 6.6719999 10.008"
           y="0"
           sodipodi:role="line"
           id="tspan88">0.6</tspan></text>
<text
         transform="matrix(0,1,1,0,25.92,166.77)"
         style="font-variant:normal;font-weight:normal;font-size:12px;font-family:Helvetica;-inkscape-font-specification:Helvetica;writing-mode:lr-tb;fill:#000000;fill-opacity:1;fill-rule:nonzero;stroke:none"
         id="text90"><tspan
           x="0 6.6719999 10.008"
           y="0"
           sodipodi:role="line"
           id="tspan92">0.8</tspan></text>
<text
         transform="matrix(0,1,1,0,25.92,197.88)"
         style="font-variant:normal;font-weight:normal;font-size:12px;font-family:Helvetica;-inkscape-font-specification:Helvetica;writing-mode:lr-tb;fill:#000000;fill-opacity:1;fill-rule:nonzero;stroke:none"
         id="text94"><tspan
           x="0 6.6719999 10.008"
           y="0"
           sodipodi:role="line"
           id="tspan96">1.0</tspan></text>
<text
         transform="matrix(0,1,1,0,25.92,228.99)"
         style="font-variant:normal;font-weight:normal;font-size:12px;font-family:Helvetica;-inkscape-font-specification:Helvetica;writing-mode:lr-tb;fill:#000000;fill-opacity:1;fill-rule:nonzero;stroke:none"
         id="text98"><tspan
           x="0 6.6719999 10.008"
           y="0"
           sodipodi:role="line"
           id="tspan100">1.2</tspan></text>
<path
         d="m 43.2,43.2 374.4,0 0,201.6 -374.4,0 0,-201.6"
         style="fill:none;stroke:#000000;stroke-width:0.75;stroke-linecap:round;stroke-linejoin:round;stroke-miterlimit:10;stroke-dasharray:none;stroke-opacity:1"
         id="path102"
         inkscape:connector-curvature="0" /></g><g
       id="g104"
       transform="translate(0,-1.6)"><text
         transform="matrix(1,0,0,-1,210.88,2.88)"
         style="font-variant:normal;font-weight:normal;font-size:12px;font-family:Helvetica;-inkscape-font-specification:Helvetica;writing-mode:lr-tb;fill:#000000;fill-opacity:1;fill-rule:nonzero;stroke:none"
         id="text106"><tspan
           x="0 7.3319998 10.668 16.368 23.040001 25.704 32.375999"
           y="0"
           sodipodi:role="line"
           id="tspan108">F value</tspan></text>
<text
         transform="matrix(0,1,1,0,11.52,124)"
         style="font-variant:normal;font-weight:normal;font-size:12px;font-family:Helvetica;-inkscape-font-specification:Helvetica;writing-mode:lr-tb;fill:#000000;fill-opacity:1;fill-rule:nonzero;stroke:none"
         id="text110"><tspan
           x="0 8.6639996 15.336 22.007999 28.007999 30.672001 34.007999"
           y="0"
           sodipodi:role="line"
           id="tspan112">Density</tspan></text>
</g><g
       id="g114"
       transform="translate(0,-1.6)"><g
         id="g116"
         clip-path="url(#clipPath118)"><path
           d="m 98.86,43.2 0,201.6"
           style="fill:none;stroke:#0000ff;stroke-width:0.75;stroke-linecap:round;stroke-linejoin:round;stroke-miterlimit:10;stroke-dasharray:none;stroke-opacity:1"
           id="path122"
           inkscape:connector-curvature="0" /><path
           d="m 236.81,43.2 0,201.6"
           style="fill:none;stroke:#0000ff;stroke-width:0.75;stroke-linecap:round;stroke-linejoin:round;stroke-miterlimit:10;stroke-dasharray:none;stroke-opacity:1"
           id="path124"
           inkscape:connector-curvature="0" /></g></g><g
       id="g126"
       transform="translate(0,-3.2)"><path
         d="m 57.07,257.51 346.66,0"
         style="fill:none;stroke:#bebebe;stroke-width:4.5;stroke-linecap:butt;stroke-linejoin:round;stroke-miterlimit:10;stroke-dasharray:none;stroke-opacity:1"
         id="path128"
         inkscape:connector-curvature="0" /><path
         d="m 69.54,264.71 -12.47,-7.2 12.47,-7.2"
         style="fill:none;stroke:#bebebe;stroke-width:4.5;stroke-linecap:butt;stroke-linejoin:round;stroke-miterlimit:10;stroke-dasharray:none;stroke-opacity:1"
         id="path130"
         inkscape:connector-curvature="0" /><path
         d="m 391.26,250.31 12.47,7.2 -12.47,7.2"
         style="fill:none;stroke:#bebebe;stroke-width:4.5;stroke-linecap:butt;stroke-linejoin:round;stroke-miterlimit:10;stroke-dasharray:none;stroke-opacity:1"
         id="path132"
         inkscape:connector-curvature="0" /><text
         transform="scale(1,-1)"
         style="font-variant:normal;font-weight:normal;font-size:12px;font-family:Helvetica;-inkscape-font-specification:Helvetica;writing-mode:lr-tb;fill:#000000;fill-opacity:1;fill-rule:nonzero;stroke:none"
         id="text134"
         x="35.720001"
         y="-282.08005"><tspan
           x="35.720001 42.391998 49.063999 55.736 62.408001 69.080002 75.751999"
           y="-282.08005"
           sodipodi:role="line"
           id="tspan136">unequal</tspan></text>
<text
         transform="scale(1,-1)"
         style="font-variant:normal;font-weight:normal;font-size:12px;font-family:Helvetica;-inkscape-font-specification:Helvetica;writing-mode:lr-tb;fill:#000000;fill-opacity:1;fill-rule:nonzero;stroke:none"
         id="text138"
         x="31.450001"
         y="-267.68005"><tspan
           x="31.450001 37.150002 43.821999 47.998001 50.661999 57.334 64.005997 70.005997 76.678001"
           y="-267.68005"
           sodipodi:role="line"
           id="tspan140">variances</tspan></text>
<text
         transform="scale(1,-1)"
         style="font-variant:normal;font-weight:normal;font-size:12px;font-family:Helvetica;-inkscape-font-specification:Helvetica;writing-mode:lr-tb;fill:#000000;fill-opacity:1;fill-rule:nonzero;stroke:none"
         id="text142"
         x="129.06"
         y="-282.08005"><tspan
           x="129.06 135.73199 142.40401 149.076 155.748"
           y="-282.08005"
           sodipodi:role="line"
           id="tspan144">equal</tspan></text>
<text
         transform="scale(1,-1)"
         style="font-variant:normal;font-weight:normal;font-size:12px;font-family:Helvetica;-inkscape-font-specification:Helvetica;writing-mode:lr-tb;fill:#000000;fill-opacity:1;fill-rule:nonzero;stroke:none"
         id="text146"
         x="118.12"
         y="-267.68005"><tspan
           x="118.12 123.82 130.492 134.668 137.332 144.004 150.67599 156.67599 163.34801"
           y="-267.68005"
           sodipodi:role="line"
           id="tspan148">variances</tspan></text>
<text
         transform="scale(1,-1)"
         style="font-variant:normal;font-weight:normal;font-size:12px;font-family:Helvetica;-inkscape-font-specification:Helvetica;writing-mode:lr-tb;fill:#000000;fill-opacity:1;fill-rule:nonzero;stroke:none"
         id="text150"
         x="295.72"
         y="-282.08005"><tspan
           x="295.72 302.392 309.064 315.73599 322.40799 329.07999 335.75201"
           y="-282.08005"
           sodipodi:role="line"
           id="tspan152">unequal</tspan></text>
<text
         transform="scale(1,-1)"
         style="font-variant:normal;font-weight:normal;font-size:12px;font-family:Helvetica;-inkscape-font-specification:Helvetica;writing-mode:lr-tb;fill:#000000;fill-opacity:1;fill-rule:nonzero;stroke:none"
         id="text154"
         x="291.45001"
         y="-267.68005"><tspan
           x="291.45001 297.14999 303.82199 307.99799 310.66199 317.33401 324.00601 330.00601 336.67801"
           y="-267.68005"
           sodipodi:role="line"
           id="tspan156">variances</tspan></text>
</g></g></svg>