<?xml version="1.0" encoding="UTF-8" standalone="no"?>
<svg
   xmlns:dc="http://purl.org/dc/elements/1.1/"
   xmlns:cc="http://creativecommons.org/ns#"
   xmlns:rdf="http://www.w3.org/1999/02/22-rdf-syntax-ns#"
   xmlns:svg="http://www.w3.org/2000/svg"
   xmlns="http://www.w3.org/2000/svg"
   viewBox="0 0 900 360"
   height="360"
   width="900"
   xml:space="preserve"
   version="1.1"
   id="svg2"><metadata
     id="metadata8"><rdf:RDF><cc:Work
         rdf:about=""><dc:format>image/svg+xml</dc:format><dc:type
           rdf:resource="http://purl.org/dc/dcmitype/StillImage" /></cc:Work></rdf:RDF></metadata><defs
     id="defs6"><clipPath
       id="clipPath98"
       clipPathUnits="userSpaceOnUse"><path
         id="path100"
         d="M 0,0 360,0 360,288 0,288 0,0 Z" /></clipPath><clipPath
       id="clipPath114"
       clipPathUnits="userSpaceOnUse"><path
         id="path116"
         d="m 43.2,43.2 302.4,0 0,201.6 -302.4,0 0,-201.6 z" /></clipPath><clipPath
       id="clipPath144"
       clipPathUnits="userSpaceOnUse"><path
         id="path146"
         d="m 403.2,43.2 302.4,0 0,201.6 -302.4,0 0,-201.6 z" /></clipPath><clipPath
       id="clipPath232"
       clipPathUnits="userSpaceOnUse"><path
         id="path234"
         d="m 360,0 360,0 0,288 -360,0 0,-288 z" /></clipPath><clipPath
       id="clipPath248"
       clipPathUnits="userSpaceOnUse"><path
         id="path250"
         d="m 403.2,43.2 302.4,0 0,201.6 -302.4,0 0,-201.6 z" /></clipPath></defs><g
     transform="matrix(1.25,0,0,-1.25,0,360)"
     id="g10"><g
       id="g12" /><g
       id="g14"><path
         id="path16"
         style="fill:none;stroke:#000000;stroke-width:0.75;stroke-linecap:round;stroke-linejoin:round;stroke-miterlimit:10;stroke-dasharray:none;stroke-opacity:1"
         d="m 45.9,43.2 270,0" /><path
         id="path18"
         style="fill:none;stroke:#000000;stroke-width:0.75;stroke-linecap:round;stroke-linejoin:round;stroke-miterlimit:10;stroke-dasharray:none;stroke-opacity:1"
         d="m 45.9,43.2 0,-4.32" /><path
         id="path20"
         style="fill:none;stroke:#000000;stroke-width:0.75;stroke-linecap:round;stroke-linejoin:round;stroke-miterlimit:10;stroke-dasharray:none;stroke-opacity:1"
         d="m 99.9,43.2 0,-4.32" /><path
         id="path22"
         style="fill:none;stroke:#000000;stroke-width:0.75;stroke-linecap:round;stroke-linejoin:round;stroke-miterlimit:10;stroke-dasharray:none;stroke-opacity:1"
         d="m 153.9,43.2 0,-4.32" /><path
         id="path24"
         style="fill:none;stroke:#000000;stroke-width:0.75;stroke-linecap:round;stroke-linejoin:round;stroke-miterlimit:10;stroke-dasharray:none;stroke-opacity:1"
         d="m 207.9,43.2 0,-4.32" /><path
         id="path26"
         style="fill:none;stroke:#000000;stroke-width:0.75;stroke-linecap:round;stroke-linejoin:round;stroke-miterlimit:10;stroke-dasharray:none;stroke-opacity:1"
         d="m 261.9,43.2 0,-4.32" /><path
         id="path28"
         style="fill:none;stroke:#000000;stroke-width:0.75;stroke-linecap:round;stroke-linejoin:round;stroke-miterlimit:10;stroke-dasharray:none;stroke-opacity:1"
         d="m 315.9,43.2 0,-4.32" /><text
         id="text30"
         style="font-variant:normal;font-weight:normal;font-size:12px;font-family:Helvetica;-inkscape-font-specification:Helvetica;writing-mode:lr-tb;fill:#000000;fill-opacity:1;fill-rule:nonzero;stroke:none"
         transform="matrix(1,0,0,-1,42.56,21.6)"><tspan
           id="tspan32"
           y="0"
           x="0">0</tspan></text>
<text
         id="text34"
         style="font-variant:normal;font-weight:normal;font-size:12px;font-family:Helvetica;-inkscape-font-specification:Helvetica;writing-mode:lr-tb;fill:#000000;fill-opacity:1;fill-rule:nonzero;stroke:none"
         transform="matrix(1,0,0,-1,96.56,21.6)"><tspan
           id="tspan36"
           y="0"
           x="0">2</tspan></text>
<text
         id="text38"
         style="font-variant:normal;font-weight:normal;font-size:12px;font-family:Helvetica;-inkscape-font-specification:Helvetica;writing-mode:lr-tb;fill:#000000;fill-opacity:1;fill-rule:nonzero;stroke:none"
         transform="matrix(1,0,0,-1,150.56,21.6)"><tspan
           id="tspan40"
           y="0"
           x="0">4</tspan></text>
<text
         id="text42"
         style="font-variant:normal;font-weight:normal;font-size:12px;font-family:Helvetica;-inkscape-font-specification:Helvetica;writing-mode:lr-tb;fill:#000000;fill-opacity:1;fill-rule:nonzero;stroke:none"
         transform="matrix(1,0,0,-1,204.56,21.6)"><tspan
           id="tspan44"
           y="0"
           x="0">6</tspan></text>
<text
         id="text46"
         style="font-variant:normal;font-weight:normal;font-size:12px;font-family:Helvetica;-inkscape-font-specification:Helvetica;writing-mode:lr-tb;fill:#000000;fill-opacity:1;fill-rule:nonzero;stroke:none"
         transform="matrix(1,0,0,-1,258.56,21.6)"><tspan
           id="tspan48"
           y="0"
           x="0">8</tspan></text>
<text
         id="text50"
         style="font-variant:normal;font-weight:normal;font-size:12px;font-family:Helvetica;-inkscape-font-specification:Helvetica;writing-mode:lr-tb;fill:#000000;fill-opacity:1;fill-rule:nonzero;stroke:none"
         transform="matrix(1,0,0,-1,309.23,21.6)"><tspan
           id="tspan52"
           y="0"
           x="0 6.6719999">10</tspan></text>
<path
         id="path54"
         style="fill:none;stroke:#000000;stroke-width:0.75;stroke-linecap:round;stroke-linejoin:round;stroke-miterlimit:10;stroke-dasharray:none;stroke-opacity:1"
         d="m 43.2,58.13 0,186.67" /><path
         id="path56"
         style="fill:none;stroke:#000000;stroke-width:0.75;stroke-linecap:round;stroke-linejoin:round;stroke-miterlimit:10;stroke-dasharray:none;stroke-opacity:1"
         d="m 43.2,58.13 -4.32,0" /><path
         id="path58"
         style="fill:none;stroke:#000000;stroke-width:0.75;stroke-linecap:round;stroke-linejoin:round;stroke-miterlimit:10;stroke-dasharray:none;stroke-opacity:1"
         d="m 43.2,95.47 -4.32,0" /><path
         id="path60"
         style="fill:none;stroke:#000000;stroke-width:0.75;stroke-linecap:round;stroke-linejoin:round;stroke-miterlimit:10;stroke-dasharray:none;stroke-opacity:1"
         d="m 43.2,132.8 -4.32,0" /><path
         id="path62"
         style="fill:none;stroke:#000000;stroke-width:0.75;stroke-linecap:round;stroke-linejoin:round;stroke-miterlimit:10;stroke-dasharray:none;stroke-opacity:1"
         d="m 43.2,170.13 -4.32,0" /><path
         id="path64"
         style="fill:none;stroke:#000000;stroke-width:0.75;stroke-linecap:round;stroke-linejoin:round;stroke-miterlimit:10;stroke-dasharray:none;stroke-opacity:1"
         d="m 43.2,207.47 -4.32,0" /><path
         id="path66"
         style="fill:none;stroke:#000000;stroke-width:0.75;stroke-linecap:round;stroke-linejoin:round;stroke-miterlimit:10;stroke-dasharray:none;stroke-opacity:1"
         d="m 43.2,244.8 -4.32,0" /><text
         id="text68"
         style="font-variant:normal;font-weight:normal;font-size:12px;font-family:Helvetica;-inkscape-font-specification:Helvetica;writing-mode:lr-tb;fill:#000000;fill-opacity:1;fill-rule:nonzero;stroke:none"
         transform="matrix(0,1,1,0,30.24,51.29)"><tspan
           id="tspan70"
           y="0"
           x="0 7.0079999">−5</tspan></text>
<text
         id="text72"
         style="font-variant:normal;font-weight:normal;font-size:12px;font-family:Helvetica;-inkscape-font-specification:Helvetica;writing-mode:lr-tb;fill:#000000;fill-opacity:1;fill-rule:nonzero;stroke:none"
         transform="matrix(0,1,1,0,30.24,92.13)"><tspan
           id="tspan74"
           y="0"
           x="0">0</tspan></text>
<text
         id="text76"
         style="font-variant:normal;font-weight:normal;font-size:12px;font-family:Helvetica;-inkscape-font-specification:Helvetica;writing-mode:lr-tb;fill:#000000;fill-opacity:1;fill-rule:nonzero;stroke:none"
         transform="matrix(0,1,1,0,30.24,129.46)"><tspan
           id="tspan78"
           y="0"
           x="0">5</tspan></text>
<text
         id="text80"
         style="font-variant:normal;font-weight:normal;font-size:12px;font-family:Helvetica;-inkscape-font-specification:Helvetica;writing-mode:lr-tb;fill:#000000;fill-opacity:1;fill-rule:nonzero;stroke:none"
         transform="matrix(0,1,1,0,30.24,163.46)"><tspan
           id="tspan82"
           y="0"
           x="0 6.6719999">10</tspan></text>
<text
         id="text84"
         style="font-variant:normal;font-weight:normal;font-size:12px;font-family:Helvetica;-inkscape-font-specification:Helvetica;writing-mode:lr-tb;fill:#000000;fill-opacity:1;fill-rule:nonzero;stroke:none"
         transform="matrix(0,1,1,0,30.24,200.79)"><tspan
           id="tspan86"
           y="0"
           x="0 6.6719999">15</tspan></text>
<text
         id="text88"
         style="font-variant:normal;font-weight:normal;font-size:12px;font-family:Helvetica;-inkscape-font-specification:Helvetica;writing-mode:lr-tb;fill:#000000;fill-opacity:1;fill-rule:nonzero;stroke:none"
         transform="matrix(0,1,1,0,30.24,238.13)"><tspan
           id="tspan90"
           y="0"
           x="0 6.6719999">20</tspan></text>
<path
         id="path92"
         style="fill:none;stroke:#000000;stroke-width:0.75;stroke-linecap:round;stroke-linejoin:round;stroke-miterlimit:10;stroke-dasharray:none;stroke-opacity:1"
         d="m 43.2,43.2 302.4,0 0,201.6 -302.4,0 0,-201.6" /></g><g
       id="g94"><g
         clip-path="url(#clipPath98)"
         id="g96"><text
           id="text102"
           style="font-variant:normal;font-weight:normal;font-size:12px;font-family:Helvetica;-inkscape-font-specification:Helvetica;writing-mode:lr-tb;fill:#000000;fill-opacity:1;fill-rule:nonzero;stroke:none"
           transform="matrix(1,0,0,-1,162.54,5.76)"><tspan
             id="tspan104"
             y="0"
             x="0 8.0039997 14.004 20.676001 23.34 30.011999 36.683998 43.355999 46.692001 53.363998 57.720001">Explanatory</tspan></text>
<text
           id="text106"
           style="font-variant:normal;font-weight:normal;font-size:12px;font-family:Helvetica;-inkscape-font-specification:Helvetica;writing-mode:lr-tb;fill:#000000;fill-opacity:1;fill-rule:nonzero;stroke:none"
           transform="matrix(0,1,1,0,14.4,116.99)"><tspan
             id="tspan108"
             y="0"
             x="0 8.6639996 15.336 21.336 28.007999 34.68 41.352001 47.352001">Response</tspan></text>
</g></g><g
       id="g110"><g
         clip-path="url(#clipPath114)"
         id="g112"><path
           id="path118"
           style="fill:none;stroke:#fa8072;stroke-width:1.5;stroke-linecap:round;stroke-linejoin:round;stroke-miterlimit:10;stroke-dasharray:none;stroke-opacity:1"
           d="m 46.08,49.32 0.51,6.95 0.45,3 0.43,2 0.4,1.53 0.39,1.25 0.38,1.06 0.36,0.92 0.35,0.83 0.34,0.75 0.33,0.68 0.33,0.63 0.32,0.58 0.31,0.55 0.3,0.52 0.3,0.49 0.29,0.46 0.29,0.44 0.28,0.42 0.28,0.41 0.27,0.39 0.27,0.37 0.26,0.36 0.26,0.35 0.25,0.33 0.25,0.33 0.25,0.32 0.24,0.31 0.24,0.3 0.24,0.29 0.23,0.28 0.23,0.28 0.22,0.28 0.23,0.26 0.22,0.26 0.21,0.26 0.21,0.25 0.21,0.24 0.21,0.24 0.21,0.24 0.2,0.23 0.19,0.23 0.2,0.22 0.19,0.22 0.19,0.22 0.19,0.22 0.19,0.21 0.18,0.21 0.18,0.2 0.18,0.2 0.17,0.2 0.17,0.2 0.17,0.19 0.17,0.2 0.17,0.19 0.16,0.19 0.16,0.18 0.16,0.19 0.16,0.18 0.15,0.18 0.16,0.18 0.15,0.17 0.14,0.18 0.15,0.17 0.14,0.17 0.15,0.17 0.14,0.17 0.13,0.17 0.14,0.16 0.13,0.17 0.13,0.16 0.13,0.16 0.13,0.16 0.13,0.16 0.12,0.16 0.12,0.16 0.12,0.15 0.12,0.16 0.12,0.15 0.11,0.15 0.12,0.16 0.11,0.15 0.11,0.15 0.1,0.15 0.11,0.14 0.1,0.15 0.1,0.15 0.11,0.14 0.09,0.15 0.1,0.14 0.09,0.15 0.1,0.14 0.09,0.14 0.09,0.14 0.09,0.14 0.08,0.14 0.09,0.14 0.08,0.14 0.08,0.14 0.08,0.14 0.08,0.13 0.08,0.14 0.07,0.14 0.07,0.13 0.08,0.14 0.07,0.13 0.06,0.14 0.07,0.13 0.06,0.13 0.07,0.14 0.06,0.13 0.06,0.13 0.06,0.13 0.05,0.13 0.06,0.13 0.05,0.13 0.06,0.13 0.05,0.13 0.05,0.13 0.04,0.13 0.05,0.13 0.04,0.13 0.05,0.13 0.04,0.13 0.04,0.13 0.03,0.12 0.04,0.13 0.04,0.13 0.03,0.13 0.03,0.12 0.03,0.13 0.03,0.13 0.03,0.12 0.02,0.13 0.03,0.12 0.02,0.13 0.02,0.13 0.02,0.12 0.02,0.13 0.02,0.12 0.01,0.13 0.02,0.12 0.01,0.13 0.01,0.12 0.01,0.13 0,0.12 0.01,0.13 0.01,0.12 0,0.13 0,0.12 0,0.13 0,0.12 0,0.13 -0.01,0.12 -0.01,0.13 0,0.12 -0.01,0.13 -0.01,0.12 -0.01,0.13 -0.02,0.12 -0.01,0.13 -0.02,0.13 -0.02,0.12 -0.02,0.13 -0.02,0.12 -0.02,0.13 -0.03,0.12 -0.02,0.13 -0.03,0.13 -0.03,0.12 -0.03,0.13 -0.03,0.13 -0.03,0.12 -0.04,0.13 -0.04,0.13 -0.03,0.13 -0.04,0.13 -0.04,0.12 -0.05,0.13 -0.04,0.13 -0.05,0.13 -0.04,0.13 -0.05,0.13 -0.05,0.13 -0.06,0.13 -0.05,0.13 -0.06,0.13 -0.05,0.13 -0.06,0.13 -0.06,0.14 -0.06,0.13 -0.07,0.13 -0.06,0.13 -0.07,0.14 -0.06,0.13 -0.07,0.14 -0.08,0.13 -0.07,0.14 -0.07,0.13 -0.08,0.14 -0.08,0.14 -0.08,0.13 -0.08,0.14 -0.08,0.14 -0.09,0.14 -0.08,0.14 -0.09,0.14 -0.09,0.14 -0.09,0.14 -0.1,0.15 -0.09,0.14 -0.1,0.15 -0.09,0.14 -0.11,0.15 -0.1,0.14 -0.1,0.15 -0.11,0.15 -0.1,0.15 -0.11,0.15 -0.11,0.15 -0.12,0.15 -0.11,0.15 -0.12,0.16 -0.12,0.15 -0.12,0.16 -0.12,0.15 -0.12,0.16 -0.13,0.16 -0.13,0.16 -0.13,0.16 -0.13,0.17 -0.13,0.16 -0.14,0.17 -0.13,0.16 -0.14,0.17 -0.15,0.17 -0.14,0.17 -0.15,0.18 -0.14,0.17 -0.15,0.18 -0.16,0.18 -0.15,0.18 -0.16,0.18 -0.16,0.18 -0.16,0.19 -0.16,0.19 -0.17,0.19 -0.17,0.19 -0.17,0.19 -0.17,0.2 -0.17,0.2 -0.18,0.2 -0.18,0.21 -0.18,0.21 -0.19,0.21 -0.19,0.21 -0.19,0.22 -0.19,0.22 -0.2,0.22 -0.19,0.23 -0.2,0.23 -0.21,0.24 -0.21,0.24 -0.21,0.25 -0.21,0.25 -0.21,0.25 -0.22,0.26 -0.23,0.27 -0.22,0.27 -0.23,0.28 -0.23,0.28 -0.24,0.3 -0.24,0.3 -0.24,0.3 -0.25,0.32 -0.25,0.33 -0.25,0.34 -0.26,0.34 -0.26,0.36 -0.27,0.38 -0.27,0.39 -0.28,0.4 -0.28,0.42 -0.29,0.44 -0.29,0.47 -0.3,0.48 -0.3,0.52 -0.31,0.55 -0.32,0.59 -0.33,0.63 -0.33,0.68 -0.34,0.74 -0.35,0.83 -0.36,0.93 -0.38,1.06 -0.39,1.24 -0.4,1.53 -0.43,2 -0.45,3 -0.51,6.95" /><path
           id="path120"
           style="fill:none;stroke:#fa8072;stroke-width:1.5;stroke-linecap:round;stroke-linejoin:round;stroke-miterlimit:10;stroke-dasharray:none;stroke-opacity:1"
           d="m 73.08,56.79 0.51,6.95 0.45,3 0.43,2 0.4,1.53 0.39,1.24 0.38,1.06 0.36,0.93 0.35,0.83 0.34,0.74 0.33,0.68 0.33,0.63 0.32,0.59 0.31,0.55 0.3,0.52 0.3,0.48 0.29,0.47 0.29,0.44 0.28,0.42 0.28,0.4 0.27,0.39 0.27,0.38 0.26,0.36 0.26,0.34 0.25,0.34 0.25,0.33 0.25,0.32 0.24,0.3 0.24,0.3 0.24,0.3 0.23,0.28 0.23,0.28 0.22,0.27 0.23,0.27 0.22,0.26 0.21,0.25 0.21,0.25 0.21,0.25 0.21,0.24 0.21,0.24 0.2,0.23 0.19,0.23 0.2,0.22 0.19,0.22 0.19,0.22 0.19,0.21 0.19,0.21 0.18,0.21 0.18,0.21 0.18,0.2 0.17,0.2 0.17,0.2 0.17,0.19 0.17,0.19 0.17,0.19 0.16,0.19 0.16,0.19 0.16,0.18 0.16,0.18 0.15,0.18 0.16,0.18 0.15,0.18 0.14,0.17 0.15,0.18 0.14,0.17 0.15,0.17 0.14,0.17 0.13,0.16 0.14,0.17 0.13,0.16 0.13,0.17 0.13,0.16 0.13,0.16 0.13,0.16 0.12,0.16 0.12,0.15 0.12,0.16 0.12,0.15 0.12,0.16 0.11,0.15 0.12,0.15 0.11,0.15 0.11,0.15 0.1,0.15 0.11,0.15 0.1,0.15 0.1,0.14 0.11,0.15 0.09,0.14 0.1,0.15 0.09,0.14 0.1,0.15 0.09,0.14 0.09,0.14 0.09,0.14 0.08,0.14 0.09,0.14 0.08,0.14 0.08,0.14 0.08,0.13 0.08,0.14 0.08,0.14 0.07,0.13 0.07,0.14 0.08,0.13 0.07,0.14 0.06,0.13 0.07,0.14 0.06,0.13 0.07,0.13 0.06,0.13 0.06,0.14 0.06,0.13 0.05,0.13 0.06,0.13 0.05,0.13 0.06,0.13 0.05,0.13 0.05,0.13 0.04,0.13 0.05,0.13 0.04,0.13 0.05,0.13 0.04,0.12 0.04,0.13 0.03,0.13 0.04,0.13 0.04,0.13 0.03,0.12 0.03,0.13 0.03,0.13 0.03,0.12 0.03,0.13 0.02,0.13 0.03,0.12 0.02,0.13 0.02,0.12 0.02,0.13 0.02,0.12 0.02,0.13 0.01,0.13 0.02,0.12 0.01,0.13 0.01,0.12 0.01,0.13 0,0.12 0.01,0.13 0.01,0.12 0,0.13 0,0.12 0,0.13 0,0.12 0,0.13 -0.01,0.12 -0.01,0.13 0,0.12 -0.01,0.13 -0.01,0.12 -0.01,0.13 -0.02,0.12 -0.01,0.13 -0.02,0.12 -0.02,0.13 -0.02,0.12 -0.02,0.13 -0.02,0.13 -0.03,0.12 -0.02,0.13 -0.03,0.12 -0.03,0.13 -0.03,0.13 -0.03,0.12 -0.03,0.13 -0.04,0.13 -0.04,0.13 -0.03,0.12 -0.04,0.13 -0.04,0.13 -0.05,0.13 -0.04,0.13 -0.05,0.13 -0.04,0.13 -0.05,0.13 -0.05,0.13 -0.06,0.13 -0.05,0.13 -0.06,0.13 -0.05,0.13 -0.06,0.13 -0.06,0.13 -0.06,0.13 -0.07,0.14 -0.06,0.13 -0.07,0.13 -0.06,0.14 -0.07,0.13 -0.08,0.14 -0.07,0.13 -0.07,0.14 -0.08,0.14 -0.08,0.13 -0.08,0.14 -0.08,0.14 -0.08,0.14 -0.09,0.14 -0.08,0.14 -0.09,0.14 -0.09,0.14 -0.09,0.14 -0.1,0.14 -0.09,0.15 -0.1,0.14 -0.09,0.15 -0.11,0.14 -0.1,0.15 -0.1,0.15 -0.11,0.14 -0.1,0.15 -0.11,0.15 -0.11,0.15 -0.12,0.16 -0.11,0.15 -0.12,0.15 -0.12,0.16 -0.12,0.15 -0.12,0.16 -0.12,0.16 -0.13,0.16 -0.13,0.16 -0.13,0.16 -0.13,0.16 -0.13,0.17 -0.14,0.16 -0.13,0.17 -0.14,0.17 -0.15,0.17 -0.14,0.17 -0.15,0.17 -0.14,0.18 -0.15,0.17 -0.16,0.18 -0.15,0.18 -0.16,0.18 -0.16,0.19 -0.16,0.18 -0.16,0.19 -0.17,0.19 -0.17,0.2 -0.17,0.19 -0.17,0.2 -0.17,0.2 -0.18,0.2 -0.18,0.2 -0.18,0.21 -0.19,0.21 -0.19,0.22 -0.19,0.22 -0.19,0.22 -0.2,0.22 -0.19,0.23 -0.2,0.23 -0.21,0.24 -0.21,0.24 -0.21,0.24 -0.21,0.25 -0.21,0.26 -0.22,0.26 -0.23,0.26 -0.22,0.28 -0.23,0.28 -0.23,0.28 -0.24,0.29 -0.24,0.3 -0.24,0.31 -0.25,0.32 -0.25,0.33 -0.25,0.33 -0.26,0.35 -0.26,0.36 -0.27,0.37 -0.27,0.39 -0.28,0.41 -0.28,0.42 -0.29,0.44 -0.29,0.46 -0.3,0.49 -0.3,0.52 -0.31,0.55 -0.32,0.58 -0.33,0.63 -0.33,0.68 -0.34,0.75 -0.35,0.83 -0.36,0.92 -0.38,1.06 -0.39,1.25 -0.4,1.53 -0.43,2 -0.45,3 -0.51,6.95" /><path
           id="path122"
           style="fill:none;stroke:#fa8072;stroke-width:1.5;stroke-linecap:round;stroke-linejoin:round;stroke-miterlimit:10;stroke-dasharray:none;stroke-opacity:1"
           d="m 100.08,64.25 0.51,6.96 0.45,2.99 0.43,2 0.4,1.53 0.39,1.25 0.38,1.06 0.36,0.93 0.35,0.82 0.34,0.75 0.33,0.68 0.33,0.63 0.32,0.59 0.31,0.55 0.3,0.51 0.3,0.49 0.29,0.46 0.29,0.44 0.28,0.43 0.28,0.4 0.27,0.39 0.27,0.37 0.26,0.36 0.26,0.35 0.25,0.34 0.25,0.33 0.25,0.31 0.24,0.31 0.24,0.3 0.24,0.29 0.23,0.29 0.23,0.28 0.22,0.27 0.23,0.26 0.22,0.26 0.21,0.26 0.21,0.25 0.21,0.25 0.21,0.24 0.21,0.23 0.2,0.23 0.19,0.23 0.2,0.23 0.19,0.22 0.19,0.22 0.19,0.21 0.19,0.21 0.18,0.21 0.18,0.2 0.18,0.21 0.17,0.2 0.17,0.19 0.17,0.2 0.17,0.19 0.17,0.19 0.16,0.19 0.16,0.19 0.16,0.18 0.16,0.18 0.15,0.18 0.16,0.18 0.15,0.18 0.14,0.17 0.15,0.17 0.14,0.18 0.15,0.17 0.14,0.16 0.13,0.17 0.14,0.17 0.13,0.16 0.13,0.16 0.13,0.17 0.13,0.16 0.13,0.16 0.12,0.15 0.12,0.16 0.12,0.16 0.12,0.15 0.12,0.15 0.11,0.16 0.12,0.15 0.11,0.15 0.11,0.15 0.1,0.15 0.11,0.15 0.1,0.14 0.1,0.15 0.11,0.15 0.09,0.14 0.1,0.15 0.09,0.14 0.1,0.14 0.09,0.14 0.09,0.15 0.09,0.14 0.08,0.14 0.09,0.14 0.08,0.13 0.08,0.14 0.08,0.14 0.08,0.14 0.08,0.13 0.07,0.14 0.07,0.14 0.08,0.13 0.07,0.14 0.06,0.13 0.07,0.13 0.06,0.14 0.07,0.13 0.06,0.13 0.06,0.13 0.06,0.14 0.05,0.13 0.06,0.13 0.05,0.13 0.06,0.13 0.05,0.13 0.05,0.13 0.04,0.13 0.05,0.13 0.04,0.12 0.05,0.13 0.04,0.13 0.04,0.13 0.03,0.13 0.04,0.12 0.04,0.13 0.03,0.13 0.03,0.13 0.03,0.12 0.03,0.13 0.03,0.13 0.02,0.12 0.03,0.13 0.02,0.12 0.02,0.13 0.02,0.13 0.02,0.12 0.02,0.13 0.01,0.12 0.02,0.13 0.01,0.12 0.01,0.13 0.01,0.12 0,0.13 0.01,0.12 0.01,0.13 0,0.12 0,0.13 0,0.12 0,0.13 0,0.12 -0.01,0.13 -0.01,0.12 0,0.13 -0.01,0.12 -0.01,0.13 -0.01,0.12 -0.02,0.13 -0.01,0.12 -0.02,0.13 -0.02,0.12 -0.02,0.13 -0.02,0.13 -0.02,0.12 -0.03,0.13 -0.02,0.12 -0.03,0.13 -0.03,0.13 -0.03,0.12 -0.03,0.13 -0.03,0.13 -0.04,0.13 -0.04,0.12 -0.03,0.13 -0.04,0.13 -0.04,0.13 -0.05,0.13 -0.04,0.12 -0.05,0.13 -0.04,0.13 -0.05,0.13 -0.05,0.13 -0.06,0.13 -0.05,0.13 -0.06,0.13 -0.05,0.13 -0.06,0.14 -0.06,0.13 -0.06,0.13 -0.07,0.13 -0.06,0.14 -0.07,0.13 -0.06,0.13 -0.07,0.14 -0.08,0.13 -0.07,0.14 -0.07,0.14 -0.08,0.13 -0.08,0.14 -0.08,0.14 -0.08,0.14 -0.08,0.13 -0.09,0.14 -0.08,0.14 -0.09,0.14 -0.09,0.15 -0.09,0.14 -0.1,0.14 -0.09,0.14 -0.1,0.15 -0.09,0.14 -0.11,0.15 -0.1,0.15 -0.1,0.14 -0.11,0.15 -0.1,0.15 -0.11,0.15 -0.11,0.15 -0.12,0.15 -0.11,0.16 -0.12,0.15 -0.12,0.15 -0.12,0.16 -0.12,0.16 -0.12,0.15 -0.13,0.16 -0.13,0.16 -0.13,0.17 -0.13,0.16 -0.13,0.16 -0.14,0.17 -0.13,0.17 -0.14,0.16 -0.15,0.17 -0.14,0.18 -0.15,0.17 -0.14,0.17 -0.15,0.18 -0.16,0.18 -0.15,0.18 -0.16,0.18 -0.16,0.18 -0.16,0.19 -0.16,0.19 -0.17,0.19 -0.17,0.19 -0.17,0.2 -0.17,0.19 -0.17,0.2 -0.18,0.21 -0.18,0.2 -0.18,0.21 -0.19,0.21 -0.19,0.21 -0.19,0.22 -0.19,0.22 -0.2,0.23 -0.19,0.23 -0.2,0.23 -0.21,0.23 -0.21,0.24 -0.21,0.25 -0.21,0.25 -0.21,0.26 -0.22,0.26 -0.23,0.26 -0.22,0.27 -0.23,0.28 -0.23,0.29 -0.24,0.29 -0.24,0.3 -0.24,0.31 -0.25,0.31 -0.25,0.33 -0.25,0.34 -0.26,0.35 -0.26,0.36 -0.27,0.37 -0.27,0.39 -0.28,0.4 -0.28,0.43 -0.29,0.44 -0.29,0.46 -0.3,0.49 -0.3,0.51 -0.31,0.55 -0.32,0.59 -0.33,0.63 -0.33,0.68 -0.34,0.75 -0.35,0.82 -0.36,0.93 -0.38,1.06 -0.39,1.25 -0.4,1.53 -0.43,2 -0.45,2.99 -0.51,6.96" /><path
           id="path124"
           style="fill:none;stroke:#fa8072;stroke-width:1.5;stroke-linecap:round;stroke-linejoin:round;stroke-miterlimit:10;stroke-dasharray:none;stroke-opacity:1"
           d="m 127.08,71.72 0.51,6.95 0.45,3 0.43,2 0.4,1.53 0.39,1.25 0.38,1.06 0.36,0.92 0.35,0.83 0.34,0.75 0.33,0.68 0.33,0.63 0.32,0.58 0.31,0.55 0.3,0.52 0.3,0.49 0.29,0.46 0.29,0.44 0.28,0.42 0.28,0.41 0.27,0.39 0.27,0.37 0.26,0.36 0.26,0.35 0.25,0.33 0.25,0.33 0.25,0.32 0.24,0.31 0.24,0.3 0.24,0.29 0.23,0.28 0.23,0.28 0.22,0.28 0.23,0.26 0.22,0.26 0.21,0.26 0.21,0.25 0.21,0.24 0.21,0.24 0.21,0.24 0.2,0.23 0.19,0.23 0.2,0.22 0.19,0.22 0.19,0.22 0.19,0.22 0.19,0.21 0.18,0.21 0.18,0.2 0.18,0.2 0.17,0.2 0.17,0.2 0.17,0.19 0.17,0.2 0.17,0.19 0.16,0.19 0.16,0.18 0.16,0.19 0.16,0.18 0.15,0.18 0.16,0.18 0.15,0.17 0.14,0.18 0.15,0.17 0.14,0.17 0.15,0.17 0.14,0.17 0.13,0.17 0.14,0.16 0.13,0.17 0.13,0.16 0.13,0.16 0.13,0.16 0.13,0.16 0.12,0.16 0.12,0.16 0.12,0.15 0.12,0.16 0.12,0.15 0.11,0.15 0.12,0.16 0.11,0.15 0.11,0.15 0.1,0.15 0.11,0.14 0.1,0.15 0.1,0.15 0.11,0.14 0.09,0.15 0.1,0.14 0.09,0.15 0.1,0.14 0.09,0.14 0.09,0.14 0.09,0.14 0.08,0.14 0.09,0.14 0.08,0.14 0.08,0.14 0.08,0.14 0.08,0.13 0.08,0.14 0.07,0.14 0.07,0.13 0.08,0.14 0.07,0.13 0.06,0.14 0.07,0.13 0.06,0.13 0.07,0.14 0.06,0.13 0.06,0.13 0.06,0.13 0.05,0.13 0.06,0.13 0.05,0.13 0.06,0.13 0.05,0.13 0.05,0.13 0.04,0.13 0.05,0.13 0.04,0.13 0.05,0.13 0.04,0.13 0.04,0.13 0.03,0.12 0.04,0.13 0.04,0.13 0.03,0.13 0.03,0.12 0.03,0.13 0.03,0.13 0.03,0.12 0.02,0.13 0.03,0.12 0.02,0.13 0.02,0.13 0.02,0.12 0.02,0.13 0.02,0.12 0.01,0.13 0.02,0.12 0.01,0.13 0.01,0.12 0.01,0.13 0,0.12 0.01,0.13 0.01,0.12 0,0.13 0,0.12 0,0.13 0,0.12 0,0.13 -0.01,0.12 -0.01,0.13 0,0.12 -0.01,0.13 -0.01,0.12 -0.01,0.13 -0.02,0.12 -0.01,0.13 -0.02,0.13 -0.02,0.12 -0.02,0.13 -0.02,0.12 -0.02,0.13 -0.03,0.12 -0.02,0.13 -0.03,0.13 -0.03,0.12 -0.03,0.13 -0.03,0.13 -0.03,0.12 -0.04,0.13 -0.04,0.13 -0.03,0.13 -0.04,0.13 -0.04,0.12 -0.05,0.13 -0.04,0.13 -0.05,0.13 -0.04,0.13 -0.05,0.13 -0.05,0.13 -0.06,0.13 -0.05,0.13 -0.06,0.13 -0.05,0.13 -0.06,0.13 -0.06,0.14 -0.06,0.13 -0.07,0.13 -0.06,0.13 -0.07,0.14 -0.06,0.13 -0.07,0.14 -0.08,0.13 -0.07,0.14 -0.07,0.13 -0.08,0.14 -0.08,0.14 -0.08,0.13 -0.08,0.14 -0.08,0.14 -0.09,0.14 -0.08,0.14 -0.09,0.14 -0.09,0.14 -0.09,0.14 -0.1,0.15 -0.09,0.14 -0.1,0.15 -0.09,0.14 -0.11,0.15 -0.1,0.14 -0.1,0.15 -0.11,0.15 -0.1,0.15 -0.11,0.15 -0.11,0.15 -0.12,0.15 -0.11,0.15 -0.12,0.16 -0.12,0.15 -0.12,0.16 -0.12,0.15 -0.12,0.16 -0.13,0.16 -0.13,0.16 -0.13,0.16 -0.13,0.17 -0.13,0.16 -0.14,0.17 -0.13,0.16 -0.14,0.17 -0.15,0.17 -0.14,0.17 -0.15,0.18 -0.14,0.17 -0.15,0.18 -0.16,0.18 -0.15,0.18 -0.16,0.18 -0.16,0.18 -0.16,0.19 -0.16,0.19 -0.17,0.19 -0.17,0.19 -0.17,0.19 -0.17,0.2 -0.17,0.2 -0.18,0.2 -0.18,0.21 -0.18,0.21 -0.19,0.21 -0.19,0.21 -0.19,0.22 -0.19,0.22 -0.2,0.22 -0.19,0.23 -0.2,0.23 -0.21,0.24 -0.21,0.24 -0.21,0.25 -0.21,0.25 -0.21,0.25 -0.22,0.26 -0.23,0.27 -0.22,0.27 -0.23,0.28 -0.23,0.28 -0.24,0.3 -0.24,0.3 -0.24,0.3 -0.25,0.32 -0.25,0.33 -0.25,0.34 -0.26,0.34 -0.26,0.36 -0.27,0.38 -0.27,0.39 -0.28,0.4 -0.28,0.42 -0.29,0.44 -0.29,0.47 -0.3,0.48 -0.3,0.52 -0.31,0.55 -0.32,0.59 -0.33,0.63 -0.33,0.68 -0.34,0.74 -0.35,0.83 -0.36,0.93 -0.38,1.06 -0.39,1.24 -0.4,1.53 -0.43,2 -0.45,3 -0.51,6.95" /><path
           id="path126"
           style="fill:none;stroke:#fa8072;stroke-width:1.5;stroke-linecap:round;stroke-linejoin:round;stroke-miterlimit:10;stroke-dasharray:none;stroke-opacity:1"
           d="m 154.08,79.19 0.51,6.95 0.45,3 0.43,2 0.4,1.53 0.39,1.24 0.38,1.06 0.36,0.93 0.35,0.83 0.34,0.74 0.33,0.68 0.33,0.63 0.32,0.59 0.31,0.55 0.3,0.52 0.3,0.48 0.29,0.47 0.29,0.44 0.28,0.42 0.28,0.4 0.27,0.39 0.27,0.38 0.26,0.36 0.26,0.34 0.25,0.34 0.25,0.33 0.25,0.32 0.24,0.3 0.24,0.3 0.24,0.3 0.23,0.28 0.23,0.28 0.22,0.27 0.23,0.27 0.22,0.26 0.21,0.25 0.21,0.25 0.21,0.25 0.21,0.24 0.21,0.24 0.2,0.23 0.19,0.23 0.2,0.22 0.19,0.22 0.19,0.22 0.19,0.21 0.19,0.21 0.18,0.21 0.18,0.21 0.18,0.2 0.17,0.2 0.17,0.2 0.17,0.19 0.17,0.19 0.17,0.19 0.16,0.19 0.16,0.19 0.16,0.18 0.16,0.18 0.15,0.18 0.16,0.18 0.15,0.18 0.14,0.17 0.15,0.18 0.14,0.17 0.15,0.17 0.14,0.17 0.13,0.16 0.14,0.17 0.13,0.16 0.13,0.17 0.13,0.16 0.13,0.16 0.13,0.16 0.12,0.16 0.12,0.15 0.12,0.16 0.12,0.15 0.12,0.16 0.11,0.15 0.12,0.15 0.11,0.15 0.11,0.15 0.1,0.15 0.11,0.15 0.1,0.15 0.1,0.14 0.11,0.15 0.09,0.14 0.1,0.15 0.09,0.14 0.1,0.15 0.09,0.14 0.09,0.14 0.09,0.14 0.08,0.14 0.09,0.14 0.08,0.14 0.08,0.14 0.08,0.13 0.08,0.14 0.08,0.14 0.07,0.13 0.07,0.14 0.08,0.13 0.07,0.14 0.06,0.13 0.07,0.14 0.06,0.13 0.07,0.13 0.06,0.13 0.06,0.14 0.06,0.13 0.05,0.13 0.06,0.13 0.05,0.13 0.06,0.13 0.05,0.13 0.05,0.13 0.04,0.13 0.05,0.13 0.04,0.13 0.05,0.13 0.04,0.12 0.04,0.13 0.03,0.13 0.04,0.13 0.04,0.13 0.03,0.12 0.03,0.13 0.03,0.13 0.03,0.12 0.03,0.13 0.02,0.13 0.03,0.12 0.02,0.13 0.02,0.12 0.02,0.13 0.02,0.12 0.02,0.13 0.01,0.13 0.02,0.12 0.01,0.13 0.01,0.12 0.01,0.13 0,0.12 0.01,0.13 0.01,0.12 0,0.13 0,0.12 0,0.13 0,0.12 0,0.13 -0.01,0.12 -0.01,0.13 0,0.12 -0.01,0.13 -0.01,0.12 -0.01,0.13 -0.02,0.12 -0.01,0.13 -0.02,0.12 -0.02,0.13 -0.02,0.12 -0.02,0.13 -0.02,0.13 -0.03,0.12 -0.02,0.13 -0.03,0.12 -0.03,0.13 -0.03,0.13 -0.03,0.12 -0.03,0.13 -0.04,0.13 -0.04,0.13 -0.03,0.12 -0.04,0.13 -0.04,0.13 -0.05,0.13 -0.04,0.13 -0.05,0.13 -0.04,0.13 -0.05,0.13 -0.05,0.13 -0.06,0.13 -0.05,0.13 -0.06,0.13 -0.05,0.13 -0.06,0.13 -0.06,0.13 -0.06,0.13 -0.07,0.14 -0.06,0.13 -0.07,0.13 -0.06,0.14 -0.07,0.13 -0.08,0.14 -0.07,0.13 -0.07,0.14 -0.08,0.14 -0.08,0.13 -0.08,0.14 -0.08,0.14 -0.08,0.14 -0.09,0.14 -0.08,0.14 -0.09,0.14 -0.09,0.14 -0.09,0.14 -0.1,0.14 -0.09,0.15 -0.1,0.14 -0.09,0.15 -0.11,0.14 -0.1,0.15 -0.1,0.15 -0.11,0.14 -0.1,0.15 -0.11,0.15 -0.11,0.15 -0.12,0.16 -0.11,0.15 -0.12,0.15 -0.12,0.16 -0.12,0.15 -0.12,0.16 -0.12,0.16 -0.13,0.16 -0.13,0.16 -0.13,0.16 -0.13,0.16 -0.13,0.17 -0.14,0.16 -0.13,0.17 -0.14,0.17 -0.15,0.17 -0.14,0.17 -0.15,0.17 -0.14,0.18 -0.15,0.17 -0.16,0.18 -0.15,0.18 -0.16,0.18 -0.16,0.19 -0.16,0.18 -0.16,0.19 -0.17,0.19 -0.17,0.2 -0.17,0.19 -0.17,0.2 -0.17,0.2 -0.18,0.2 -0.18,0.2 -0.18,0.21 -0.19,0.21 -0.19,0.22 -0.19,0.22 -0.19,0.22 -0.2,0.22 -0.19,0.23 -0.2,0.23 -0.21,0.24 -0.21,0.24 -0.21,0.24 -0.21,0.25 -0.21,0.26 -0.22,0.26 -0.23,0.26 -0.22,0.28 -0.23,0.28 -0.23,0.28 -0.24,0.29 -0.24,0.3 -0.24,0.31 -0.25,0.32 -0.25,0.33 -0.25,0.33 -0.26,0.35 -0.26,0.36 -0.27,0.37 -0.27,0.39 -0.28,0.41 -0.28,0.42 -0.29,0.44 -0.29,0.46 -0.3,0.49 -0.3,0.52 -0.31,0.55 -0.32,0.58 -0.33,0.63 -0.33,0.68 -0.34,0.75 -0.35,0.83 -0.36,0.92 -0.38,1.06 -0.39,1.25 -0.4,1.53 -0.43,2 -0.45,3 -0.51,6.95" /><path
           id="path128"
           style="fill:none;stroke:#fa8072;stroke-width:1.5;stroke-linecap:round;stroke-linejoin:round;stroke-miterlimit:10;stroke-dasharray:none;stroke-opacity:1"
           d="m 181.08,86.65 0.51,6.96 0.45,2.99 0.43,2 0.4,1.53 0.39,1.25 0.38,1.06 0.36,0.93 0.35,0.82 0.34,0.75 0.33,0.68 0.33,0.63 0.32,0.59 0.31,0.55 0.3,0.51 0.3,0.49 0.29,0.46 0.29,0.44 0.28,0.43 0.28,0.4 0.27,0.39 0.27,0.37 0.26,0.36 0.26,0.35 0.25,0.34 0.25,0.33 0.25,0.31 0.24,0.31 0.24,0.3 0.24,0.29 0.23,0.29 0.23,0.28 0.22,0.27 0.23,0.26 0.22,0.26 0.21,0.26 0.21,0.25 0.21,0.25 0.21,0.24 0.21,0.23 0.2,0.23 0.19,0.23 0.2,0.23 0.19,0.22 0.19,0.22 0.19,0.21 0.19,0.21 0.18,0.21 0.18,0.2 0.18,0.21 0.17,0.2 0.17,0.19 0.17,0.2 0.17,0.19 0.17,0.19 0.16,0.19 0.16,0.19 0.16,0.18 0.16,0.18 0.15,0.18 0.16,0.18 0.15,0.18 0.14,0.17 0.15,0.17 0.14,0.18 0.15,0.17 0.14,0.16 0.13,0.17 0.14,0.17 0.13,0.16 0.13,0.16 0.13,0.17 0.13,0.16 0.13,0.16 0.12,0.15 0.12,0.16 0.12,0.16 0.12,0.15 0.12,0.15 0.11,0.16 0.12,0.15 0.11,0.15 0.11,0.15 0.1,0.15 0.11,0.15 0.1,0.14 0.1,0.15 0.11,0.15 0.09,0.14 0.1,0.15 0.09,0.14 0.1,0.14 0.09,0.14 0.09,0.15 0.09,0.14 0.08,0.14 0.09,0.14 0.08,0.13 0.08,0.14 0.08,0.14 0.08,0.14 0.08,0.13 0.07,0.14 0.07,0.14 0.08,0.13 0.07,0.14 0.06,0.13 0.07,0.13 0.06,0.14 0.07,0.13 0.06,0.13 0.06,0.13 0.06,0.14 0.05,0.13 0.06,0.13 0.05,0.13 0.06,0.13 0.05,0.13 0.05,0.13 0.04,0.13 0.05,0.13 0.04,0.12 0.05,0.13 0.04,0.13 0.04,0.13 0.03,0.13 0.04,0.12 0.04,0.13 0.03,0.13 0.03,0.13 0.03,0.12 0.03,0.13 0.03,0.13 0.02,0.12 0.03,0.13 0.02,0.12 0.02,0.13 0.02,0.13 0.02,0.12 0.02,0.13 0.01,0.12 0.02,0.13 0.01,0.12 0.01,0.13 0.01,0.12 0,0.13 0.01,0.12 0.01,0.13 0,0.12 0,0.13 0,0.12 0,0.13 0,0.12 -0.01,0.13 -0.01,0.12 0,0.13 -0.01,0.12 -0.01,0.13 -0.01,0.12 -0.02,0.13 -0.01,0.12 -0.02,0.13 -0.02,0.12 -0.02,0.13 -0.02,0.13 -0.02,0.12 -0.03,0.13 -0.02,0.12 -0.03,0.13 -0.03,0.13 -0.03,0.12 -0.03,0.13 -0.03,0.13 -0.04,0.13 -0.04,0.12 -0.03,0.13 -0.04,0.13 -0.04,0.13 -0.05,0.13 -0.04,0.12 -0.05,0.13 -0.04,0.13 -0.05,0.13 -0.05,0.13 -0.06,0.13 -0.05,0.13 -0.06,0.13 -0.05,0.13 -0.06,0.14 -0.06,0.13 -0.06,0.13 -0.07,0.13 -0.06,0.14 -0.07,0.13 -0.06,0.13 -0.07,0.14 -0.08,0.13 -0.07,0.14 -0.07,0.14 -0.08,0.13 -0.08,0.14 -0.08,0.14 -0.08,0.14 -0.08,0.13 -0.09,0.14 -0.08,0.14 -0.09,0.14 -0.09,0.15 -0.09,0.14 -0.1,0.14 -0.09,0.14 -0.1,0.15 -0.09,0.14 -0.11,0.15 -0.1,0.15 -0.1,0.14 -0.11,0.15 -0.1,0.15 -0.11,0.15 -0.11,0.15 -0.12,0.15 -0.11,0.16 -0.12,0.15 -0.12,0.15 -0.12,0.16 -0.12,0.16 -0.12,0.15 -0.13,0.16 -0.13,0.16 -0.13,0.17 -0.13,0.16 -0.13,0.16 -0.14,0.17 -0.13,0.17 -0.14,0.16 -0.15,0.17 -0.14,0.18 -0.15,0.17 -0.14,0.17 -0.15,0.18 -0.16,0.18 -0.15,0.18 -0.16,0.18 -0.16,0.18 -0.16,0.19 -0.16,0.19 -0.17,0.19 -0.17,0.19 -0.17,0.2 -0.17,0.19 -0.17,0.2 -0.18,0.21 -0.18,0.2 -0.18,0.21 -0.19,0.21 -0.19,0.21 -0.19,0.22 -0.19,0.22 -0.2,0.23 -0.19,0.23 -0.2,0.23 -0.21,0.23 -0.21,0.24 -0.21,0.25 -0.21,0.25 -0.21,0.26 -0.22,0.26 -0.23,0.26 -0.22,0.27 -0.23,0.28 -0.23,0.29 -0.24,0.29 -0.24,0.3 -0.24,0.31 -0.25,0.31 -0.25,0.33 -0.25,0.34 -0.26,0.35 -0.26,0.36 -0.27,0.37 -0.27,0.39 -0.28,0.4 -0.28,0.43 -0.29,0.44 -0.29,0.46 -0.3,0.49 -0.3,0.51 -0.31,0.55 -0.32,0.59 -0.33,0.63 -0.33,0.68 -0.34,0.75 -0.35,0.82 -0.36,0.93 -0.38,1.06 -0.39,1.25 -0.4,1.53 -0.43,2 -0.45,2.99 -0.51,6.96" /><path
           id="path130"
           style="fill:none;stroke:#fa8072;stroke-width:1.5;stroke-linecap:round;stroke-linejoin:round;stroke-miterlimit:10;stroke-dasharray:none;stroke-opacity:1"
           d="m 208.08,94.12 0.51,6.95 0.45,3 0.43,2 0.4,1.53 0.39,1.25 0.38,1.06 0.36,0.92 0.35,0.83 0.34,0.75 0.33,0.68 0.33,0.63 0.32,0.58 0.31,0.55 0.3,0.52 0.3,0.49 0.29,0.46 0.29,0.44 0.28,0.42 0.28,0.41 0.27,0.39 0.27,0.37 0.26,0.36 0.26,0.35 0.25,0.33 0.25,0.33 0.25,0.32 0.24,0.31 0.24,0.3 0.24,0.29 0.23,0.28 0.23,0.28 0.22,0.28 0.23,0.26 0.22,0.26 0.21,0.26 0.21,0.25 0.21,0.24 0.21,0.24 0.21,0.24 0.2,0.23 0.19,0.23 0.2,0.22 0.19,0.22 0.19,0.22 0.19,0.22 0.19,0.21 0.18,0.21 0.18,0.2 0.18,0.2 0.17,0.2 0.17,0.2 0.17,0.19 0.17,0.2 0.17,0.19 0.16,0.19 0.16,0.18 0.16,0.19 0.16,0.18 0.15,0.18 0.16,0.18 0.15,0.17 0.14,0.18 0.15,0.17 0.14,0.17 0.15,0.17 0.14,0.17 0.13,0.17 0.14,0.16 0.13,0.17 0.13,0.16 0.13,0.16 0.13,0.16 0.13,0.16 0.12,0.16 0.12,0.16 0.12,0.15 0.12,0.16 0.12,0.15 0.11,0.15 0.12,0.16 0.11,0.15 0.11,0.15 0.1,0.15 0.11,0.14 0.1,0.15 0.1,0.15 0.11,0.14 0.09,0.15 0.1,0.14 0.09,0.15 0.1,0.14 0.09,0.14 0.09,0.14 0.09,0.14 0.08,0.14 0.09,0.14 0.08,0.14 0.08,0.14 0.08,0.14 0.08,0.13 0.08,0.14 0.07,0.14 0.07,0.13 0.08,0.14 0.07,0.13 0.06,0.14 0.07,0.13 0.06,0.13 0.07,0.14 0.06,0.13 0.06,0.13 0.06,0.13 0.05,0.13 0.06,0.13 0.05,0.13 0.06,0.13 0.05,0.13 0.05,0.13 0.04,0.13 0.05,0.13 0.04,0.13 0.05,0.13 0.04,0.13 0.04,0.13 0.03,0.12 0.04,0.13 0.04,0.13 0.03,0.13 0.03,0.12 0.03,0.13 0.03,0.13 0.03,0.12 0.02,0.13 0.03,0.12 0.02,0.13 0.02,0.13 0.02,0.12 0.02,0.13 0.02,0.12 0.01,0.13 0.02,0.12 0.01,0.13 0.01,0.12 0.01,0.13 0,0.12 0.01,0.13 0.01,0.12 0,0.13 0,0.12 0,0.13 0,0.12 0,0.13 -0.01,0.12 -0.01,0.13 0,0.12 -0.01,0.13 -0.01,0.12 -0.01,0.13 -0.02,0.12 -0.01,0.13 -0.02,0.13 -0.02,0.12 -0.02,0.13 -0.02,0.12 -0.02,0.13 -0.03,0.12 -0.02,0.13 -0.03,0.13 -0.03,0.12 -0.03,0.13 -0.03,0.13 -0.03,0.12 -0.04,0.13 -0.04,0.13 -0.03,0.13 -0.04,0.13 -0.04,0.12 -0.05,0.13 -0.04,0.13 -0.05,0.13 -0.04,0.13 -0.05,0.13 -0.05,0.13 -0.06,0.13 -0.05,0.13 -0.06,0.13 -0.05,0.13 -0.06,0.13 -0.06,0.14 -0.06,0.13 -0.07,0.13 -0.06,0.13 -0.07,0.14 -0.06,0.13 -0.07,0.14 -0.08,0.13 -0.07,0.14 -0.07,0.13 -0.08,0.14 -0.08,0.14 -0.08,0.13 -0.08,0.14 -0.08,0.14 -0.09,0.14 -0.08,0.14 -0.09,0.14 -0.09,0.14 -0.09,0.14 -0.1,0.15 -0.09,0.14 -0.1,0.15 -0.09,0.14 -0.11,0.15 -0.1,0.14 -0.1,0.15 -0.11,0.15 -0.1,0.15 -0.11,0.15 -0.11,0.15 -0.12,0.15 -0.11,0.15 -0.12,0.16 -0.12,0.15 -0.12,0.16 -0.12,0.15 -0.12,0.16 -0.13,0.16 -0.13,0.16 -0.13,0.16 -0.13,0.17 -0.13,0.16 -0.14,0.17 -0.13,0.16 -0.14,0.17 -0.15,0.17 -0.14,0.17 -0.15,0.18 -0.14,0.17 -0.15,0.18 -0.16,0.18 -0.15,0.18 -0.16,0.18 -0.16,0.18 -0.16,0.19 -0.16,0.19 -0.17,0.19 -0.17,0.19 -0.17,0.19 -0.17,0.2 -0.17,0.2 -0.18,0.2 -0.18,0.21 -0.18,0.21 -0.19,0.21 -0.19,0.21 -0.19,0.22 -0.19,0.22 -0.2,0.22 -0.19,0.23 -0.2,0.23 -0.21,0.24 -0.21,0.24 -0.21,0.25 -0.21,0.25 -0.21,0.25 -0.22,0.26 -0.23,0.27 -0.22,0.27 -0.23,0.28 -0.23,0.28 -0.24,0.3 -0.24,0.3 -0.24,0.3 -0.25,0.32 -0.25,0.33 -0.25,0.34 -0.26,0.34 -0.26,0.36 -0.27,0.38 -0.27,0.39 -0.28,0.4 -0.28,0.42 -0.29,0.44 -0.29,0.47 -0.3,0.48 -0.3,0.52 -0.31,0.55 -0.32,0.59 -0.33,0.63 -0.33,0.68 -0.34,0.74 -0.35,0.83 -0.36,0.93 -0.38,1.06 -0.39,1.24 -0.4,1.53 -0.43,2 -0.45,3 -0.51,6.95" /><path
           id="path132"
           style="fill:none;stroke:#fa8072;stroke-width:1.5;stroke-linecap:round;stroke-linejoin:round;stroke-miterlimit:10;stroke-dasharray:none;stroke-opacity:1"
           d="m 235.08,101.59 0.51,6.95 0.45,3 0.43,2 0.4,1.53 0.39,1.24 0.38,1.06 0.36,0.93 0.35,0.83 0.34,0.74 0.33,0.68 0.33,0.63 0.32,0.59 0.31,0.55 0.3,0.52 0.3,0.48 0.29,0.47 0.29,0.44 0.28,0.42 0.28,0.4 0.27,0.39 0.27,0.38 0.26,0.36 0.26,0.34 0.25,0.34 0.25,0.33 0.25,0.32 0.24,0.3 0.24,0.3 0.24,0.3 0.23,0.28 0.23,0.28 0.22,0.27 0.23,0.27 0.22,0.26 0.21,0.25 0.21,0.25 0.21,0.25 0.21,0.24 0.21,0.24 0.2,0.23 0.19,0.23 0.2,0.22 0.19,0.22 0.19,0.22 0.19,0.21 0.19,0.21 0.18,0.21 0.18,0.21 0.18,0.2 0.17,0.2 0.17,0.2 0.17,0.19 0.17,0.19 0.17,0.19 0.16,0.19 0.16,0.19 0.16,0.18 0.16,0.18 0.15,0.18 0.16,0.18 0.15,0.18 0.14,0.17 0.15,0.18 0.14,0.17 0.15,0.17 0.14,0.17 0.13,0.16 0.14,0.17 0.13,0.16 0.13,0.17 0.13,0.16 0.13,0.16 0.13,0.16 0.12,0.16 0.12,0.15 0.12,0.16 0.12,0.15 0.12,0.16 0.11,0.15 0.12,0.15 0.11,0.15 0.11,0.15 0.1,0.15 0.11,0.15 0.1,0.15 0.1,0.14 0.11,0.15 0.09,0.14 0.1,0.15 0.09,0.14 0.1,0.15 0.09,0.14 0.09,0.14 0.09,0.14 0.08,0.14 0.09,0.14 0.08,0.14 0.08,0.14 0.08,0.13 0.08,0.14 0.08,0.14 0.07,0.13 0.07,0.14 0.08,0.13 0.07,0.14 0.06,0.13 0.07,0.14 0.06,0.13 0.07,0.13 0.06,0.13 0.06,0.14 0.06,0.13 0.05,0.13 0.06,0.13 0.05,0.13 0.06,0.13 0.05,0.13 0.05,0.13 0.04,0.13 0.05,0.13 0.04,0.13 0.05,0.13 0.04,0.12 0.04,0.13 0.03,0.13 0.04,0.13 0.04,0.13 0.03,0.12 0.03,0.13 0.03,0.13 0.03,0.12 0.03,0.13 0.02,0.13 0.03,0.12 0.02,0.13 0.02,0.12 0.02,0.13 0.02,0.12 0.02,0.13 0.01,0.13 0.02,0.12 0.01,0.13 0.01,0.12 0.01,0.13 0,0.12 0.01,0.13 0.01,0.12 0,0.13 0,0.12 0,0.13 0,0.12 0,0.13 -0.01,0.12 -0.01,0.13 0,0.12 -0.01,0.13 -0.01,0.12 -0.01,0.13 -0.02,0.12 -0.01,0.13 -0.02,0.12 -0.02,0.13 -0.02,0.12 -0.02,0.13 -0.02,0.13 -0.03,0.12 -0.02,0.13 -0.03,0.12 -0.03,0.13 -0.03,0.13 -0.03,0.12 -0.03,0.13 -0.04,0.13 -0.04,0.13 -0.03,0.12 -0.04,0.13 -0.04,0.13 -0.05,0.13 -0.04,0.13 -0.05,0.13 -0.04,0.13 -0.05,0.13 -0.05,0.13 -0.06,0.13 -0.05,0.13 -0.06,0.13 -0.05,0.13 -0.06,0.13 -0.06,0.13 -0.06,0.13 -0.07,0.14 -0.06,0.13 -0.07,0.13 -0.06,0.14 -0.07,0.13 -0.08,0.14 -0.07,0.13 -0.07,0.14 -0.08,0.14 -0.08,0.13 -0.08,0.14 -0.08,0.14 -0.08,0.14 -0.09,0.14 -0.08,0.14 -0.09,0.14 -0.09,0.14 -0.09,0.14 -0.1,0.14 -0.09,0.15 -0.1,0.14 -0.09,0.15 -0.11,0.14 -0.1,0.15 -0.1,0.15 -0.11,0.14 -0.1,0.15 -0.11,0.15 -0.11,0.15 -0.12,0.16 -0.11,0.15 -0.12,0.15 -0.12,0.16 -0.12,0.15 -0.12,0.16 -0.12,0.16 -0.13,0.16 -0.13,0.16 -0.13,0.16 -0.13,0.16 -0.13,0.17 -0.14,0.16 -0.13,0.17 -0.14,0.17 -0.15,0.17 -0.14,0.17 -0.15,0.17 -0.14,0.18 -0.15,0.17 -0.16,0.18 -0.15,0.18 -0.16,0.18 -0.16,0.19 -0.16,0.18 -0.16,0.19 -0.17,0.19 -0.17,0.2 -0.17,0.19 -0.17,0.2 -0.17,0.2 -0.18,0.2 -0.18,0.2 -0.18,0.21 -0.19,0.21 -0.19,0.22 -0.19,0.22 -0.19,0.22 -0.2,0.22 -0.19,0.23 -0.2,0.23 -0.21,0.24 -0.21,0.24 -0.21,0.24 -0.21,0.25 -0.21,0.26 -0.22,0.26 -0.23,0.26 -0.22,0.28 -0.23,0.28 -0.23,0.28 -0.24,0.29 -0.24,0.3 -0.24,0.31 -0.25,0.32 -0.25,0.33 -0.25,0.33 -0.26,0.35 -0.26,0.36 -0.27,0.37 -0.27,0.39 -0.28,0.41 -0.28,0.42 -0.29,0.44 -0.29,0.46 -0.3,0.49 -0.3,0.52 -0.31,0.55 -0.32,0.58 -0.33,0.63 -0.33,0.68 -0.34,0.75 -0.35,0.83 -0.36,0.92 -0.38,1.06 -0.39,1.25 -0.4,1.53 -0.43,2 -0.45,3 -0.51,6.95" /><path
           id="path134"
           style="fill:none;stroke:#fa8072;stroke-width:1.5;stroke-linecap:round;stroke-linejoin:round;stroke-miterlimit:10;stroke-dasharray:none;stroke-opacity:1"
           d="m 262.08,109.05 0.51,6.96 0.45,2.99 0.43,2 0.4,1.53 0.39,1.25 0.38,1.06 0.36,0.93 0.35,0.82 0.34,0.75 0.33,0.68 0.33,0.63 0.32,0.59 0.31,0.55 0.3,0.51 0.3,0.49 0.29,0.46 0.29,0.44 0.28,0.43 0.28,0.4 0.27,0.39 0.27,0.37 0.26,0.36 0.26,0.35 0.25,0.34 0.25,0.33 0.25,0.31 0.24,0.31 0.24,0.3 0.24,0.29 0.23,0.29 0.23,0.28 0.22,0.27 0.23,0.26 0.22,0.26 0.21,0.26 0.21,0.25 0.21,0.25 0.21,0.24 0.21,0.23 0.2,0.23 0.19,0.23 0.2,0.23 0.19,0.22 0.19,0.22 0.19,0.21 0.19,0.21 0.18,0.21 0.18,0.2 0.18,0.21 0.17,0.2 0.17,0.19 0.17,0.2 0.17,0.19 0.17,0.19 0.16,0.19 0.16,0.19 0.16,0.18 0.16,0.18 0.15,0.18 0.16,0.18 0.15,0.18 0.14,0.17 0.15,0.17 0.14,0.18 0.15,0.17 0.14,0.16 0.13,0.17 0.14,0.17 0.13,0.16 0.13,0.16 0.13,0.17 0.13,0.16 0.13,0.16 0.12,0.15 0.12,0.16 0.12,0.16 0.12,0.15 0.12,0.15 0.11,0.16 0.12,0.15 0.11,0.15 0.11,0.15 0.1,0.15 0.11,0.15 0.1,0.14 0.1,0.15 0.11,0.15 0.09,0.14 0.1,0.15 0.09,0.14 0.1,0.14 0.09,0.14 0.09,0.15 0.09,0.14 0.08,0.14 0.09,0.14 0.08,0.13 0.08,0.14 0.08,0.14 0.08,0.14 0.08,0.13 0.07,0.14 0.07,0.14 0.08,0.13 0.07,0.14 0.06,0.13 0.07,0.13 0.06,0.14 0.07,0.13 0.06,0.13 0.06,0.13 0.06,0.14 0.05,0.13 0.06,0.13 0.05,0.13 0.06,0.13 0.05,0.13 0.05,0.13 0.04,0.13 0.05,0.13 0.04,0.12 0.05,0.13 0.04,0.13 0.04,0.13 0.03,0.13 0.04,0.12 0.04,0.13 0.03,0.13 0.03,0.13 0.03,0.12 0.03,0.13 0.03,0.13 0.02,0.12 0.03,0.13 0.02,0.12 0.02,0.13 0.02,0.13 0.02,0.12 0.02,0.13 0.01,0.12 0.02,0.13 0.01,0.12 0.01,0.13 0.01,0.12 0,0.13 0.01,0.12 0.01,0.13 0,0.12 0,0.13 0,0.12 0,0.13 0,0.12 -0.01,0.13 -0.01,0.12 0,0.13 -0.01,0.12 -0.01,0.13 -0.01,0.12 -0.02,0.13 -0.01,0.12 -0.02,0.13 -0.02,0.12 -0.02,0.13 -0.02,0.13 -0.02,0.12 -0.03,0.13 -0.02,0.12 -0.03,0.13 -0.03,0.13 -0.03,0.12 -0.03,0.13 -0.03,0.13 -0.04,0.13 -0.04,0.12 -0.03,0.13 -0.04,0.13 -0.04,0.13 -0.05,0.13 -0.04,0.12 -0.05,0.13 -0.04,0.13 -0.05,0.13 -0.05,0.13 -0.06,0.13 -0.05,0.13 -0.06,0.13 -0.05,0.13 -0.06,0.14 -0.06,0.13 -0.06,0.13 -0.07,0.13 -0.06,0.14 -0.07,0.13 -0.06,0.13 -0.07,0.14 -0.08,0.13 -0.07,0.14 -0.07,0.14 -0.08,0.13 -0.08,0.14 -0.08,0.14 -0.08,0.14 -0.08,0.13 -0.09,0.14 -0.08,0.14 -0.09,0.14 -0.09,0.15 -0.09,0.14 -0.1,0.14 -0.09,0.14 -0.1,0.15 -0.09,0.14 -0.11,0.15 -0.1,0.15 -0.1,0.14 -0.11,0.15 -0.1,0.15 -0.11,0.15 -0.11,0.15 -0.12,0.15 -0.11,0.16 -0.12,0.15 -0.12,0.15 -0.12,0.16 -0.12,0.16 -0.12,0.15 -0.13,0.16 -0.13,0.16 -0.13,0.17 -0.13,0.16 -0.13,0.16 -0.14,0.17 -0.13,0.17 -0.14,0.16 -0.15,0.17 -0.14,0.18 -0.15,0.17 -0.14,0.17 -0.15,0.18 -0.16,0.18 -0.15,0.18 -0.16,0.18 -0.16,0.18 -0.16,0.19 -0.16,0.19 -0.17,0.19 -0.17,0.19 -0.17,0.2 -0.17,0.19 -0.17,0.2 -0.18,0.21 -0.18,0.2 -0.18,0.21 -0.19,0.21 -0.19,0.21 -0.19,0.22 -0.19,0.22 -0.2,0.23 -0.19,0.23 -0.2,0.23 -0.21,0.23 -0.21,0.24 -0.21,0.25 -0.21,0.25 -0.21,0.26 -0.22,0.26 -0.23,0.26 -0.22,0.27 -0.23,0.28 -0.23,0.29 -0.24,0.29 -0.24,0.3 -0.24,0.31 -0.25,0.31 -0.25,0.33 -0.25,0.34 -0.26,0.35 -0.26,0.36 -0.27,0.37 -0.27,0.39 -0.28,0.4 -0.28,0.43 -0.29,0.44 -0.29,0.46 -0.3,0.49 -0.3,0.51 -0.31,0.55 -0.32,0.59 -0.33,0.63 -0.33,0.68 -0.34,0.75 -0.35,0.82 -0.36,0.93 -0.38,1.06 -0.39,1.25 -0.4,1.53 -0.43,2 -0.45,2.99 -0.51,6.96" /><path
           id="path136"
           style="fill:none;stroke:#fa8072;stroke-width:1.5;stroke-linecap:round;stroke-linejoin:round;stroke-miterlimit:10;stroke-dasharray:none;stroke-opacity:1"
           d="m 289.08,116.52 0.51,6.95 0.45,3 0.43,2 0.4,1.53 0.39,1.25 0.38,1.06 0.36,0.92 0.35,0.83 0.34,0.75 0.33,0.68 0.33,0.63 0.32,0.58 0.31,0.55 0.3,0.52 0.3,0.49 0.29,0.46 0.29,0.44 0.28,0.42 0.28,0.41 0.27,0.39 0.27,0.37 0.26,0.36 0.26,0.35 0.25,0.33 0.25,0.33 0.25,0.32 0.24,0.31 0.24,0.3 0.24,0.29 0.23,0.28 0.23,0.28 0.22,0.28 0.23,0.26 0.22,0.26 0.21,0.26 0.21,0.25 0.21,0.24 0.21,0.24 0.21,0.24 0.2,0.23 0.19,0.23 0.2,0.22 0.19,0.22 0.19,0.22 0.19,0.22 0.19,0.21 0.18,0.21 0.18,0.2 0.18,0.2 0.17,0.2 0.17,0.2 0.17,0.19 0.17,0.2 0.17,0.19 0.16,0.19 0.16,0.18 0.16,0.19 0.16,0.18 0.15,0.18 0.16,0.18 0.15,0.17 0.14,0.18 0.15,0.17 0.14,0.17 0.15,0.17 0.14,0.17 0.13,0.17 0.14,0.16 0.13,0.17 0.13,0.16 0.13,0.16 0.13,0.16 0.13,0.16 0.12,0.16 0.12,0.16 0.12,0.15 0.12,0.16 0.12,0.15 0.11,0.15 0.12,0.16 0.11,0.15 0.11,0.15 0.1,0.15 0.11,0.14 0.1,0.15 0.1,0.15 0.11,0.14 0.09,0.15 0.1,0.14 0.09,0.15 0.1,0.14 0.09,0.14 0.09,0.14 0.09,0.14 0.08,0.14 0.09,0.14 0.08,0.14 0.08,0.14 0.08,0.14 0.08,0.13 0.08,0.14 0.07,0.14 0.07,0.13 0.08,0.14 0.07,0.13 0.06,0.14 0.07,0.13 0.06,0.13 0.07,0.14 0.06,0.13 0.06,0.13 0.06,0.13 0.05,0.13 0.06,0.13 0.05,0.13 0.06,0.13 0.05,0.13 0.05,0.13 0.04,0.13 0.05,0.13 0.04,0.13 0.05,0.13 0.04,0.13 0.04,0.13 0.03,0.12 0.04,0.13 0.04,0.13 0.03,0.13 0.03,0.12 0.03,0.13 0.03,0.13 0.03,0.12 0.02,0.13 0.03,0.12 0.02,0.13 0.02,0.13 0.02,0.12 0.02,0.13 0.02,0.12 0.01,0.13 0.02,0.12 0.01,0.13 0.01,0.12 0.01,0.13 0,0.12 0.01,0.13 0.01,0.12 0,0.13 0,0.12 0,0.13 0,0.12 0,0.13 -0.01,0.12 -0.01,0.13 0,0.12 -0.01,0.13 -0.01,0.12 -0.01,0.13 -0.02,0.12 -0.01,0.13 -0.02,0.13 -0.02,0.12 -0.02,0.13 -0.02,0.12 -0.02,0.13 -0.03,0.12 -0.02,0.13 -0.03,0.13 -0.03,0.12 -0.03,0.13 -0.03,0.13 -0.03,0.12 -0.04,0.13 -0.04,0.13 -0.03,0.13 -0.04,0.13 -0.04,0.12 -0.05,0.13 -0.04,0.13 -0.05,0.13 -0.04,0.13 -0.05,0.13 -0.05,0.13 -0.06,0.13 -0.05,0.13 -0.06,0.13 -0.05,0.13 -0.06,0.13 -0.06,0.14 -0.06,0.13 -0.07,0.13 -0.06,0.13 -0.07,0.14 -0.06,0.13 -0.07,0.14 -0.08,0.13 -0.07,0.14 -0.07,0.13 -0.08,0.14 -0.08,0.14 -0.08,0.13 -0.08,0.14 -0.08,0.14 -0.09,0.14 -0.08,0.14 -0.09,0.14 -0.09,0.14 -0.09,0.14 -0.1,0.15 -0.09,0.14 -0.1,0.15 -0.09,0.14 -0.11,0.15 -0.1,0.14 -0.1,0.15 -0.11,0.15 -0.1,0.15 -0.11,0.15 -0.11,0.15 -0.12,0.15 -0.11,0.15 -0.12,0.16 -0.12,0.15 -0.12,0.16 -0.12,0.15 -0.12,0.16 -0.13,0.16 -0.13,0.16 -0.13,0.16 -0.13,0.17 -0.13,0.16 -0.14,0.17 -0.13,0.16 -0.14,0.17 -0.15,0.17 -0.14,0.17 -0.15,0.18 -0.14,0.17 -0.15,0.18 -0.16,0.18 -0.15,0.18 -0.16,0.18 -0.16,0.18 -0.16,0.19 -0.16,0.19 -0.17,0.19 -0.17,0.19 -0.17,0.19 -0.17,0.2 -0.17,0.2 -0.18,0.2 -0.18,0.21 -0.18,0.21 -0.19,0.21 -0.19,0.21 -0.19,0.22 -0.19,0.22 -0.2,0.22 -0.19,0.23 -0.2,0.23 -0.21,0.24 -0.21,0.24 -0.21,0.25 -0.21,0.25 -0.21,0.25 -0.22,0.26 -0.23,0.27 -0.22,0.27 -0.23,0.28 -0.23,0.28 -0.24,0.3 -0.24,0.3 -0.24,0.3 -0.25,0.32 -0.25,0.33 -0.25,0.34 -0.26,0.34 -0.26,0.36 -0.27,0.38 -0.27,0.39 -0.28,0.4 -0.28,0.42 -0.29,0.44 -0.29,0.47 -0.3,0.48 -0.3,0.52 -0.31,0.55 -0.32,0.59 -0.33,0.63 -0.33,0.68 -0.34,0.74 -0.35,0.83 -0.36,0.93 -0.38,1.06 -0.39,1.24 -0.4,1.53 -0.43,2 -0.45,3 -0.51,6.95" /><path
           id="path138"
           style="fill:none;stroke:#fa8072;stroke-width:1.5;stroke-linecap:round;stroke-linejoin:round;stroke-miterlimit:10;stroke-dasharray:none;stroke-opacity:1"
           d="m 316.08,123.99 0.51,6.95 0.45,3 0.43,2 0.4,1.53 0.39,1.24 0.38,1.06 0.36,0.93 0.35,0.83 0.34,0.74 0.33,0.68 0.33,0.63 0.32,0.59 0.31,0.55 0.3,0.52 0.3,0.48 0.29,0.47 0.29,0.44 0.28,0.42 0.28,0.4 0.27,0.39 0.27,0.38 0.26,0.36 0.26,0.34 0.25,0.34 0.25,0.33 0.25,0.32 0.24,0.3 0.24,0.3 0.24,0.3 0.23,0.28 0.23,0.28 0.22,0.27 0.23,0.27 0.22,0.26 0.21,0.25 0.21,0.25 0.21,0.25 0.21,0.24 0.21,0.24 0.2,0.23 0.19,0.23 0.2,0.22 0.19,0.22 0.19,0.22 0.19,0.21 0.19,0.21 0.18,0.21 0.18,0.21 0.18,0.2 0.17,0.2 0.17,0.2 0.17,0.19 0.17,0.19 0.17,0.19 0.16,0.19 0.16,0.19 0.16,0.18 0.16,0.18 0.15,0.18 0.16,0.18 0.15,0.18 0.14,0.17 0.15,0.18 0.14,0.17 0.15,0.17 0.14,0.17 0.13,0.16 0.14,0.17 0.13,0.16 0.13,0.17 0.13,0.16 0.13,0.16 0.13,0.16 0.12,0.16 0.12,0.15 0.12,0.16 0.12,0.15 0.12,0.16 0.11,0.15 0.12,0.15 0.11,0.15 0.11,0.15 0.1,0.15 0.11,0.15 0.1,0.15 0.1,0.14 0.11,0.15 0.09,0.14 0.1,0.15 0.09,0.14 0.1,0.15 0.09,0.14 0.09,0.14 0.09,0.14 0.08,0.14 0.09,0.14 0.08,0.14 0.08,0.14 0.08,0.13 0.08,0.14 0.08,0.14 0.07,0.13 0.07,0.14 0.08,0.13 0.07,0.14 0.06,0.13 0.07,0.14 0.06,0.13 0.07,0.13 0.06,0.13 0.06,0.14 0.06,0.13 0.05,0.13 0.06,0.13 0.05,0.13 0.06,0.13 0.05,0.13 0.05,0.13 0.04,0.13 0.05,0.13 0.04,0.13 0.05,0.13 0.04,0.12 0.04,0.13 0.03,0.13 0.04,0.13 0.04,0.13 0.03,0.12 0.03,0.13 0.03,0.13 0.03,0.12 0.03,0.13 0.02,0.13 0.03,0.12 0.02,0.13 0.02,0.12 0.02,0.13 0.02,0.12 0.02,0.13 0.01,0.13 0.02,0.12 0.01,0.13 0.01,0.12 0.01,0.13 0,0.12 0.01,0.13 0.01,0.12 0,0.13 0,0.12 0,0.13 0,0.12 0,0.13 -0.01,0.12 -0.01,0.13 0,0.12 -0.01,0.13 -0.01,0.12 -0.01,0.13 -0.02,0.12 -0.01,0.13 -0.02,0.12 -0.02,0.13 -0.02,0.12 -0.02,0.13 -0.02,0.13 -0.03,0.12 -0.02,0.13 -0.03,0.12 -0.03,0.13 -0.03,0.13 -0.03,0.12 -0.03,0.13 -0.04,0.13 -0.04,0.13 -0.03,0.12 -0.04,0.13 -0.04,0.13 -0.05,0.13 -0.04,0.13 -0.05,0.13 -0.04,0.13 -0.05,0.13 -0.05,0.13 -0.06,0.13 -0.05,0.13 -0.06,0.13 -0.05,0.13 -0.06,0.13 -0.06,0.13 -0.06,0.13 -0.07,0.14 -0.06,0.13 -0.07,0.13 -0.06,0.14 -0.07,0.13 -0.08,0.14 -0.07,0.13 -0.07,0.14 -0.08,0.14 -0.08,0.13 -0.08,0.14 -0.08,0.14 -0.08,0.14 -0.09,0.14 -0.08,0.14 -0.09,0.14 -0.09,0.14 -0.09,0.14 -0.1,0.14 -0.09,0.15 -0.1,0.14 -0.09,0.15 -0.11,0.14 -0.1,0.15 -0.1,0.15 -0.11,0.14 -0.1,0.15 -0.11,0.15 -0.11,0.15 -0.12,0.16 -0.11,0.15 -0.12,0.15 -0.12,0.16 -0.12,0.15 -0.12,0.16 -0.12,0.16 -0.13,0.16 -0.13,0.16 -0.13,0.16 -0.13,0.16 -0.13,0.17 -0.14,0.16 -0.13,0.17 -0.14,0.17 -0.15,0.17 -0.14,0.17 -0.15,0.17 -0.14,0.18 -0.15,0.17 -0.16,0.18 -0.15,0.18 -0.16,0.18 -0.16,0.19 -0.16,0.18 -0.16,0.19 -0.17,0.19 -0.17,0.2 -0.17,0.19 -0.17,0.2 -0.17,0.2 -0.18,0.2 -0.18,0.2 -0.18,0.21 -0.19,0.21 -0.19,0.22 -0.19,0.22 -0.19,0.22 -0.2,0.22 -0.19,0.23 -0.2,0.23 -0.21,0.24 -0.21,0.24 -0.21,0.24 -0.21,0.25 -0.21,0.26 -0.22,0.26 -0.23,0.26 -0.22,0.28 -0.23,0.28 -0.23,0.28 -0.24,0.29 -0.24,0.3 -0.24,0.31 -0.25,0.32 -0.25,0.33 -0.25,0.33 -0.26,0.35 -0.26,0.36 -0.27,0.37 -0.27,0.39 -0.28,0.41 -0.28,0.42 -0.29,0.44 -0.29,0.46 -0.3,0.49 -0.3,0.52 -0.31,0.55 -0.32,0.58 -0.33,0.63 -0.33,0.68 -0.34,0.75 -0.35,0.83 -0.36,0.92 -0.38,1.06 -0.39,1.25 -0.4,1.53 -0.43,2 -0.45,3 -0.51,6.95" /></g></g><g
       id="g140"><g
         clip-path="url(#clipPath144)"
         id="g142" /></g><g
       id="g148"><path
         id="path150"
         style="fill:none;stroke:#000000;stroke-width:0.75;stroke-linecap:round;stroke-linejoin:round;stroke-miterlimit:10;stroke-dasharray:none;stroke-opacity:1"
         d="m 405.9,43.2 270,0" /><path
         id="path152"
         style="fill:none;stroke:#000000;stroke-width:0.75;stroke-linecap:round;stroke-linejoin:round;stroke-miterlimit:10;stroke-dasharray:none;stroke-opacity:1"
         d="m 405.9,43.2 0,-4.32" /><path
         id="path154"
         style="fill:none;stroke:#000000;stroke-width:0.75;stroke-linecap:round;stroke-linejoin:round;stroke-miterlimit:10;stroke-dasharray:none;stroke-opacity:1"
         d="m 459.9,43.2 0,-4.32" /><path
         id="path156"
         style="fill:none;stroke:#000000;stroke-width:0.75;stroke-linecap:round;stroke-linejoin:round;stroke-miterlimit:10;stroke-dasharray:none;stroke-opacity:1"
         d="m 513.9,43.2 0,-4.32" /><path
         id="path158"
         style="fill:none;stroke:#000000;stroke-width:0.75;stroke-linecap:round;stroke-linejoin:round;stroke-miterlimit:10;stroke-dasharray:none;stroke-opacity:1"
         d="m 567.9,43.2 0,-4.32" /><path
         id="path160"
         style="fill:none;stroke:#000000;stroke-width:0.75;stroke-linecap:round;stroke-linejoin:round;stroke-miterlimit:10;stroke-dasharray:none;stroke-opacity:1"
         d="m 621.9,43.2 0,-4.32" /><path
         id="path162"
         style="fill:none;stroke:#000000;stroke-width:0.75;stroke-linecap:round;stroke-linejoin:round;stroke-miterlimit:10;stroke-dasharray:none;stroke-opacity:1"
         d="m 675.9,43.2 0,-4.32" /><text
         id="text164"
         style="font-variant:normal;font-weight:normal;font-size:12px;font-family:Helvetica;-inkscape-font-specification:Helvetica;writing-mode:lr-tb;fill:#000000;fill-opacity:1;fill-rule:nonzero;stroke:none"
         transform="matrix(1,0,0,-1,402.56,21.6)"><tspan
           id="tspan166"
           y="0"
           x="0">0</tspan></text>
<text
         id="text168"
         style="font-variant:normal;font-weight:normal;font-size:12px;font-family:Helvetica;-inkscape-font-specification:Helvetica;writing-mode:lr-tb;fill:#000000;fill-opacity:1;fill-rule:nonzero;stroke:none"
         transform="matrix(1,0,0,-1,456.56,21.6)"><tspan
           id="tspan170"
           y="0"
           x="0">2</tspan></text>
<text
         id="text172"
         style="font-variant:normal;font-weight:normal;font-size:12px;font-family:Helvetica;-inkscape-font-specification:Helvetica;writing-mode:lr-tb;fill:#000000;fill-opacity:1;fill-rule:nonzero;stroke:none"
         transform="matrix(1,0,0,-1,510.56,21.6)"><tspan
           id="tspan174"
           y="0"
           x="0">4</tspan></text>
<text
         id="text176"
         style="font-variant:normal;font-weight:normal;font-size:12px;font-family:Helvetica;-inkscape-font-specification:Helvetica;writing-mode:lr-tb;fill:#000000;fill-opacity:1;fill-rule:nonzero;stroke:none"
         transform="matrix(1,0,0,-1,564.56,21.6)"><tspan
           id="tspan178"
           y="0"
           x="0">6</tspan></text>
<text
         id="text180"
         style="font-variant:normal;font-weight:normal;font-size:12px;font-family:Helvetica;-inkscape-font-specification:Helvetica;writing-mode:lr-tb;fill:#000000;fill-opacity:1;fill-rule:nonzero;stroke:none"
         transform="matrix(1,0,0,-1,618.56,21.6)"><tspan
           id="tspan182"
           y="0"
           x="0">8</tspan></text>
<text
         id="text184"
         style="font-variant:normal;font-weight:normal;font-size:12px;font-family:Helvetica;-inkscape-font-specification:Helvetica;writing-mode:lr-tb;fill:#000000;fill-opacity:1;fill-rule:nonzero;stroke:none"
         transform="matrix(1,0,0,-1,669.23,21.6)"><tspan
           id="tspan186"
           y="0"
           x="0 6.6719999">10</tspan></text>
<path
         id="path188"
         style="fill:none;stroke:#000000;stroke-width:0.75;stroke-linecap:round;stroke-linejoin:round;stroke-miterlimit:10;stroke-dasharray:none;stroke-opacity:1"
         d="m 403.2,58.13 0,186.67" /><path
         id="path190"
         style="fill:none;stroke:#000000;stroke-width:0.75;stroke-linecap:round;stroke-linejoin:round;stroke-miterlimit:10;stroke-dasharray:none;stroke-opacity:1"
         d="m 403.2,58.13 -4.32,0" /><path
         id="path192"
         style="fill:none;stroke:#000000;stroke-width:0.75;stroke-linecap:round;stroke-linejoin:round;stroke-miterlimit:10;stroke-dasharray:none;stroke-opacity:1"
         d="m 403.2,95.47 -4.32,0" /><path
         id="path194"
         style="fill:none;stroke:#000000;stroke-width:0.75;stroke-linecap:round;stroke-linejoin:round;stroke-miterlimit:10;stroke-dasharray:none;stroke-opacity:1"
         d="m 403.2,132.8 -4.32,0" /><path
         id="path196"
         style="fill:none;stroke:#000000;stroke-width:0.75;stroke-linecap:round;stroke-linejoin:round;stroke-miterlimit:10;stroke-dasharray:none;stroke-opacity:1"
         d="m 403.2,170.13 -4.32,0" /><path
         id="path198"
         style="fill:none;stroke:#000000;stroke-width:0.75;stroke-linecap:round;stroke-linejoin:round;stroke-miterlimit:10;stroke-dasharray:none;stroke-opacity:1"
         d="m 403.2,207.47 -4.32,0" /><path
         id="path200"
         style="fill:none;stroke:#000000;stroke-width:0.75;stroke-linecap:round;stroke-linejoin:round;stroke-miterlimit:10;stroke-dasharray:none;stroke-opacity:1"
         d="m 403.2,244.8 -4.32,0" /><text
         id="text202"
         style="font-variant:normal;font-weight:normal;font-size:12px;font-family:Helvetica;-inkscape-font-specification:Helvetica;writing-mode:lr-tb;fill:#000000;fill-opacity:1;fill-rule:nonzero;stroke:none"
         transform="matrix(0,1,1,0,390.24,51.29)"><tspan
           id="tspan204"
           y="0"
           x="0 7.0079999">−5</tspan></text>
<text
         id="text206"
         style="font-variant:normal;font-weight:normal;font-size:12px;font-family:Helvetica;-inkscape-font-specification:Helvetica;writing-mode:lr-tb;fill:#000000;fill-opacity:1;fill-rule:nonzero;stroke:none"
         transform="matrix(0,1,1,0,390.24,92.13)"><tspan
           id="tspan208"
           y="0"
           x="0">0</tspan></text>
<text
         id="text210"
         style="font-variant:normal;font-weight:normal;font-size:12px;font-family:Helvetica;-inkscape-font-specification:Helvetica;writing-mode:lr-tb;fill:#000000;fill-opacity:1;fill-rule:nonzero;stroke:none"
         transform="matrix(0,1,1,0,390.24,129.46)"><tspan
           id="tspan212"
           y="0"
           x="0">5</tspan></text>
<text
         id="text214"
         style="font-variant:normal;font-weight:normal;font-size:12px;font-family:Helvetica;-inkscape-font-specification:Helvetica;writing-mode:lr-tb;fill:#000000;fill-opacity:1;fill-rule:nonzero;stroke:none"
         transform="matrix(0,1,1,0,390.24,163.46)"><tspan
           id="tspan216"
           y="0"
           x="0 6.6719999">10</tspan></text>
<text
         id="text218"
         style="font-variant:normal;font-weight:normal;font-size:12px;font-family:Helvetica;-inkscape-font-specification:Helvetica;writing-mode:lr-tb;fill:#000000;fill-opacity:1;fill-rule:nonzero;stroke:none"
         transform="matrix(0,1,1,0,390.24,200.79)"><tspan
           id="tspan220"
           y="0"
           x="0 6.6719999">15</tspan></text>
<text
         id="text222"
         style="font-variant:normal;font-weight:normal;font-size:12px;font-family:Helvetica;-inkscape-font-specification:Helvetica;writing-mode:lr-tb;fill:#000000;fill-opacity:1;fill-rule:nonzero;stroke:none"
         transform="matrix(0,1,1,0,390.24,238.13)"><tspan
           id="tspan224"
           y="0"
           x="0 6.6719999">20</tspan></text>
<path
         id="path226"
         style="fill:none;stroke:#000000;stroke-width:0.75;stroke-linecap:round;stroke-linejoin:round;stroke-miterlimit:10;stroke-dasharray:none;stroke-opacity:1"
         d="m 403.2,43.2 302.4,0 0,201.6 -302.4,0 0,-201.6" /></g><g
       id="g228"><g
         clip-path="url(#clipPath232)"
         id="g230"><text
           id="text236"
           style="font-variant:normal;font-weight:normal;font-size:12px;font-family:Helvetica;-inkscape-font-specification:Helvetica;writing-mode:lr-tb;fill:#000000;fill-opacity:1;fill-rule:nonzero;stroke:none"
           transform="matrix(1,0,0,-1,522.54,5.76)"><tspan
             id="tspan238"
             y="0"
             x="0 8.0039997 14.004 20.676001 23.34 30.011999 36.683998 43.355999 46.692001 53.363998 57.720001">Explanatory</tspan></text>
<text
           id="text240"
           style="font-variant:normal;font-weight:normal;font-size:12px;font-family:Helvetica;-inkscape-font-specification:Helvetica;writing-mode:lr-tb;fill:#000000;fill-opacity:1;fill-rule:nonzero;stroke:none"
           transform="matrix(0,1,1,0,374.4,116.99)"><tspan
             id="tspan242"
             y="0"
             x="0 8.6639996 15.336 21.336 28.007999 34.68 41.352001 47.352001">Response</tspan></text>
</g></g><g
       id="g244"><g
         clip-path="url(#clipPath248)"
         id="g246"><path
           id="path252"
           style="fill:#fa8072;fill-opacity:1;fill-rule:nonzero;stroke:none"
           d="m 405.9,93.97 21.6,0 0,2.99 -21.6,0 0,-2.99 z" /><path
           id="path254"
           style="fill:#fa8072;fill-opacity:1;fill-rule:nonzero;stroke:none"
           d="m 432.9,93.97 21.6,0 0,2.99 -21.6,0 0,-2.99 z" /><path
           id="path256"
           style="fill:#fa8072;fill-opacity:1;fill-rule:nonzero;stroke:none"
           d="m 432.9,101.44 21.6,0 0,2.99 -21.6,0 0,-2.99 z" /><path
           id="path258"
           style="fill:#fa8072;fill-opacity:1;fill-rule:nonzero;stroke:none"
           d="m 432.9,108.91 10.8,0 0,2.99 -10.8,0 0,-2.99 z" /><path
           id="path260"
           style="fill:#fa8072;fill-opacity:1;fill-rule:nonzero;stroke:none"
           d="m 432.9,116.37 3.6,0 0,2.99 -3.6,0 0,-2.99 z" /><path
           id="path262"
           style="fill:#fa8072;fill-opacity:1;fill-rule:nonzero;stroke:none"
           d="m 432.9,123.84 0.9,0 0,2.99 -0.9,0 0,-2.99 z" /><path
           id="path264"
           style="fill:#fa8072;fill-opacity:1;fill-rule:nonzero;stroke:none"
           d="m 432.9,131.31 0.18,0 0,2.99 -0.18,0 0,-2.99 z" /><path
           id="path266"
           style="fill:#fa8072;fill-opacity:1;fill-rule:nonzero;stroke:none"
           d="m 459.9,93.97 10.8,0 0,2.99 -10.8,0 0,-2.99 z" /><path
           id="path268"
           style="fill:#fa8072;fill-opacity:1;fill-rule:nonzero;stroke:none"
           d="m 459.9,101.44 21.6,0 0,2.99 -21.6,0 0,-2.99 z" /><path
           id="path270"
           style="fill:#fa8072;fill-opacity:1;fill-rule:nonzero;stroke:none"
           d="m 459.9,108.91 21.6,0 0,2.99 -21.6,0 0,-2.99 z" /><path
           id="path272"
           style="fill:#fa8072;fill-opacity:1;fill-rule:nonzero;stroke:none"
           d="m 459.9,116.37 14.4,0 0,2.99 -14.4,0 0,-2.99 z" /><path
           id="path274"
           style="fill:#fa8072;fill-opacity:1;fill-rule:nonzero;stroke:none"
           d="m 459.9,123.84 7.2,0 0,2.99 -7.2,0 0,-2.99 z" /><path
           id="path276"
           style="fill:#fa8072;fill-opacity:1;fill-rule:nonzero;stroke:none"
           d="m 459.9,131.31 2.88,0 0,2.99 -2.88,0 0,-2.99 z" /><path
           id="path278"
           style="fill:#fa8072;fill-opacity:1;fill-rule:nonzero;stroke:none"
           d="m 459.9,138.77 0.96,0 0,2.99 -0.96,0 0,-2.99 z" /><path
           id="path280"
           style="fill:#fa8072;fill-opacity:1;fill-rule:nonzero;stroke:none"
           d="m 459.9,146.24 0.27,0 0,2.99 -0.27,0 0,-2.99 z" /><path
           id="path282"
           style="fill:#fa8072;fill-opacity:1;fill-rule:nonzero;stroke:none"
           d="m 459.9,153.71 0.07,0 0,2.99 -0.07,0 0,-2.99 z" /><path
           id="path284"
           style="fill:#fa8072;fill-opacity:1;fill-rule:nonzero;stroke:none"
           d="m 486.9,93.97 4.8,0 0,2.99 -4.8,0 0,-2.99 z" /><path
           id="path286"
           style="fill:#fa8072;fill-opacity:1;fill-rule:nonzero;stroke:none"
           d="m 486.9,101.44 14.4,0 0,2.99 -14.4,0 0,-2.99 z" /><path
           id="path288"
           style="fill:#fa8072;fill-opacity:1;fill-rule:nonzero;stroke:none"
           d="m 486.9,108.91 21.6,0 0,2.99 -21.6,0 0,-2.99 z" /><path
           id="path290"
           style="fill:#fa8072;fill-opacity:1;fill-rule:nonzero;stroke:none"
           d="m 486.9,116.37 21.6,0 0,2.99 -21.6,0 0,-2.99 z" /><path
           id="path292"
           style="fill:#fa8072;fill-opacity:1;fill-rule:nonzero;stroke:none"
           d="m 486.9,123.84 16.2,0 0,2.99 -16.2,0 0,-2.99 z" /><path
           id="path294"
           style="fill:#fa8072;fill-opacity:1;fill-rule:nonzero;stroke:none"
           d="m 486.9,131.31 9.72,0 0,2.99 -9.72,0 0,-2.99 z" /><path
           id="path296"
           style="fill:#fa8072;fill-opacity:1;fill-rule:nonzero;stroke:none"
           d="m 486.9,138.77 4.86,0 0,2.99 -4.86,0 0,-2.99 z" /><path
           id="path298"
           style="fill:#fa8072;fill-opacity:1;fill-rule:nonzero;stroke:none"
           d="m 486.9,146.24 2.08,0 0,2.99 -2.08,0 0,-2.99 z" /><path
           id="path300"
           style="fill:#fa8072;fill-opacity:1;fill-rule:nonzero;stroke:none"
           d="m 486.9,153.71 0.78,0 0,2.99 -0.78,0 0,-2.99 z" /><path
           id="path302"
           style="fill:#fa8072;fill-opacity:1;fill-rule:nonzero;stroke:none"
           d="m 486.9,168.64 0.08,0 0,2.99 -0.08,0 0,-2.99 z" /><path
           id="path304"
           style="fill:#fa8072;fill-opacity:1;fill-rule:nonzero;stroke:none"
           d="m 513.9,93.97 2.02,0 0,2.99 -2.02,0 0,-2.99 z" /><path
           id="path306"
           style="fill:#fa8072;fill-opacity:1;fill-rule:nonzero;stroke:none"
           d="m 513.9,101.44 8.1,0 0,2.99 -8.1,0 0,-2.99 z" /><path
           id="path308"
           style="fill:#fa8072;fill-opacity:1;fill-rule:nonzero;stroke:none"
           d="m 513.9,108.91 16.2,0 0,2.99 -16.2,0 0,-2.99 z" /><path
           id="path310"
           style="fill:#fa8072;fill-opacity:1;fill-rule:nonzero;stroke:none"
           d="m 513.9,116.37 21.6,0 0,2.99 -21.6,0 0,-2.99 z" /><path
           id="path312"
           style="fill:#fa8072;fill-opacity:1;fill-rule:nonzero;stroke:none"
           d="m 513.9,123.84 21.6,0 0,2.99 -21.6,0 0,-2.99 z" /><path
           id="path314"
           style="fill:#fa8072;fill-opacity:1;fill-rule:nonzero;stroke:none"
           d="m 513.9,131.31 17.28,0 0,2.99 -17.28,0 0,-2.99 z" /><path
           id="path316"
           style="fill:#fa8072;fill-opacity:1;fill-rule:nonzero;stroke:none"
           d="m 513.9,138.77 11.52,0 0,2.99 -11.52,0 0,-2.99 z" /><path
           id="path318"
           style="fill:#fa8072;fill-opacity:1;fill-rule:nonzero;stroke:none"
           d="m 513.9,146.24 6.58,0 0,2.99 -6.58,0 0,-2.99 z" /><path
           id="path320"
           style="fill:#fa8072;fill-opacity:1;fill-rule:nonzero;stroke:none"
           d="m 513.9,153.71 3.29,0 0,2.99 -3.29,0 0,-2.99 z" /><path
           id="path322"
           style="fill:#fa8072;fill-opacity:1;fill-rule:nonzero;stroke:none"
           d="m 513.9,161.17 1.46,0 0,2.99 -1.46,0 0,-2.99 z" /><path
           id="path324"
           style="fill:#fa8072;fill-opacity:1;fill-rule:nonzero;stroke:none"
           d="m 513.9,168.64 0.59,0 0,2.99 -0.59,0 0,-2.99 z" /><path
           id="path326"
           style="fill:#fa8072;fill-opacity:1;fill-rule:nonzero;stroke:none"
           d="m 513.9,176.11 0.21,0 0,2.99 -0.21,0 0,-2.99 z" /><path
           id="path328"
           style="fill:#fa8072;fill-opacity:1;fill-rule:nonzero;stroke:none"
           d="m 540.9,93.97 0.83,0 0,2.99 -0.83,0 0,-2.99 z" /><path
           id="path330"
           style="fill:#fa8072;fill-opacity:1;fill-rule:nonzero;stroke:none"
           d="m 540.9,101.44 4.15,0 0,2.99 -4.15,0 0,-2.99 z" /><path
           id="path332"
           style="fill:#fa8072;fill-opacity:1;fill-rule:nonzero;stroke:none"
           d="m 540.9,108.91 10.37,0 0,2.99 -10.37,0 0,-2.99 z" /><path
           id="path334"
           style="fill:#fa8072;fill-opacity:1;fill-rule:nonzero;stroke:none"
           d="m 540.9,116.37 17.28,0 0,2.99 -17.28,0 0,-2.99 z" /><path
           id="path336"
           style="fill:#fa8072;fill-opacity:1;fill-rule:nonzero;stroke:none"
           d="m 540.9,123.84 21.6,0 0,2.99 -21.6,0 0,-2.99 z" /><path
           id="path338"
           style="fill:#fa8072;fill-opacity:1;fill-rule:nonzero;stroke:none"
           d="m 540.9,131.31 21.6,0 0,2.99 -21.6,0 0,-2.99 z" /><path
           id="path340"
           style="fill:#fa8072;fill-opacity:1;fill-rule:nonzero;stroke:none"
           d="m 540.9,138.77 18,0 0,2.99 -18,0 0,-2.99 z" /><path
           id="path342"
           style="fill:#fa8072;fill-opacity:1;fill-rule:nonzero;stroke:none"
           d="m 540.9,146.24 12.86,0 0,2.99 -12.86,0 0,-2.99 z" /><path
           id="path344"
           style="fill:#fa8072;fill-opacity:1;fill-rule:nonzero;stroke:none"
           d="m 540.9,153.71 8.04,0 0,2.99 -8.04,0 0,-2.99 z" /><path
           id="path346"
           style="fill:#fa8072;fill-opacity:1;fill-rule:nonzero;stroke:none"
           d="m 540.9,161.17 4.46,0 0,2.99 -4.46,0 0,-2.99 z" /><path
           id="path348"
           style="fill:#fa8072;fill-opacity:1;fill-rule:nonzero;stroke:none"
           d="m 540.9,168.64 2.23,0 0,2.99 -2.23,0 0,-2.99 z" /><path
           id="path350"
           style="fill:#fa8072;fill-opacity:1;fill-rule:nonzero;stroke:none"
           d="m 540.9,176.11 1.01,0 0,2.99 -1.01,0 0,-2.99 z" /><path
           id="path352"
           style="fill:#fa8072;fill-opacity:1;fill-rule:nonzero;stroke:none"
           d="m 540.9,183.57 0.42,0 0,2.99 -0.42,0 0,-2.99 z" /><path
           id="path354"
           style="fill:#fa8072;fill-opacity:1;fill-rule:nonzero;stroke:none"
           d="m 540.9,191.04 0.16,0 0,2.99 -0.16,0 0,-2.99 z" /><path
           id="path356"
           style="fill:#fa8072;fill-opacity:1;fill-rule:nonzero;stroke:none"
           d="m 567.9,93.97 0.33,0 0,2.99 -0.33,0 0,-2.99 z" /><path
           id="path358"
           style="fill:#fa8072;fill-opacity:1;fill-rule:nonzero;stroke:none"
           d="m 567.9,101.44 2,0 0,2.99 -2,0 0,-2.99 z" /><path
           id="path360"
           style="fill:#fa8072;fill-opacity:1;fill-rule:nonzero;stroke:none"
           d="m 567.9,108.91 6,0 0,2.99 -6,0 0,-2.99 z" /><path
           id="path362"
           style="fill:#fa8072;fill-opacity:1;fill-rule:nonzero;stroke:none"
           d="m 567.9,116.37 12,0 0,2.99 -12,0 0,-2.99 z" /><path
           id="path364"
           style="fill:#fa8072;fill-opacity:1;fill-rule:nonzero;stroke:none"
           d="m 567.9,123.84 18,0 0,2.99 -18,0 0,-2.99 z" /><path
           id="path366"
           style="fill:#fa8072;fill-opacity:1;fill-rule:nonzero;stroke:none"
           d="m 567.9,131.31 21.6,0 0,2.99 -21.6,0 0,-2.99 z" /><path
           id="path368"
           style="fill:#fa8072;fill-opacity:1;fill-rule:nonzero;stroke:none"
           d="m 567.9,138.77 21.6,0 0,2.99 -21.6,0 0,-2.99 z" /><path
           id="path370"
           style="fill:#fa8072;fill-opacity:1;fill-rule:nonzero;stroke:none"
           d="m 567.9,146.24 18.51,0 0,2.99 -18.51,0 0,-2.99 z" /><path
           id="path372"
           style="fill:#fa8072;fill-opacity:1;fill-rule:nonzero;stroke:none"
           d="m 567.9,153.71 13.89,0 0,2.99 -13.89,0 0,-2.99 z" /><path
           id="path374"
           style="fill:#fa8072;fill-opacity:1;fill-rule:nonzero;stroke:none"
           d="m 567.9,161.17 9.26,0 0,2.99 -9.26,0 0,-2.99 z" /><path
           id="path376"
           style="fill:#fa8072;fill-opacity:1;fill-rule:nonzero;stroke:none"
           d="m 567.9,168.64 5.55,0 0,2.99 -5.55,0 0,-2.99 z" /><path
           id="path378"
           style="fill:#fa8072;fill-opacity:1;fill-rule:nonzero;stroke:none"
           d="m 567.9,176.11 3.03,0 0,2.99 -3.03,0 0,-2.99 z" /><path
           id="path380"
           style="fill:#fa8072;fill-opacity:1;fill-rule:nonzero;stroke:none"
           d="m 567.9,183.57 1.51,0 0,2.99 -1.51,0 0,-2.99 z" /><path
           id="path382"
           style="fill:#fa8072;fill-opacity:1;fill-rule:nonzero;stroke:none"
           d="m 567.9,191.04 0.7,0 0,2.99 -0.7,0 0,-2.99 z" /><path
           id="path384"
           style="fill:#fa8072;fill-opacity:1;fill-rule:nonzero;stroke:none"
           d="m 567.9,205.97 0.12,0 0,2.99 -0.12,0 0,-2.99 z" /><path
           id="path386"
           style="fill:#fa8072;fill-opacity:1;fill-rule:nonzero;stroke:none"
           d="m 594.9,101.44 0.93,0 0,2.99 -0.93,0 0,-2.99 z" /><path
           id="path388"
           style="fill:#fa8072;fill-opacity:1;fill-rule:nonzero;stroke:none"
           d="m 594.9,108.91 3.24,0 0,2.99 -3.24,0 0,-2.99 z" /><path
           id="path390"
           style="fill:#fa8072;fill-opacity:1;fill-rule:nonzero;stroke:none"
           d="m 594.9,116.37 7.56,0 0,2.99 -7.56,0 0,-2.99 z" /><path
           id="path392"
           style="fill:#fa8072;fill-opacity:1;fill-rule:nonzero;stroke:none"
           d="m 594.9,123.84 13.22,0 0,2.99 -13.22,0 0,-2.99 z" /><path
           id="path394"
           style="fill:#fa8072;fill-opacity:1;fill-rule:nonzero;stroke:none"
           d="m 594.9,131.31 18.51,0 0,2.99 -18.51,0 0,-2.99 z" /><path
           id="path396"
           style="fill:#fa8072;fill-opacity:1;fill-rule:nonzero;stroke:none"
           d="m 594.9,138.77 21.6,0 0,2.99 -21.6,0 0,-2.99 z" /><path
           id="path398"
           style="fill:#fa8072;fill-opacity:1;fill-rule:nonzero;stroke:none"
           d="m 594.9,146.24 21.6,0 0,2.99 -21.6,0 0,-2.99 z" /><path
           id="path400"
           style="fill:#fa8072;fill-opacity:1;fill-rule:nonzero;stroke:none"
           d="m 594.9,153.71 18.9,0 0,2.99 -18.9,0 0,-2.99 z" /><path
           id="path402"
           style="fill:#fa8072;fill-opacity:1;fill-rule:nonzero;stroke:none"
           d="m 594.9,161.17 14.7,0 0,2.99 -14.7,0 0,-2.99 z" /><path
           id="path404"
           style="fill:#fa8072;fill-opacity:1;fill-rule:nonzero;stroke:none"
           d="m 594.9,168.64 10.29,0 0,2.99 -10.29,0 0,-2.99 z" /><path
           id="path406"
           style="fill:#fa8072;fill-opacity:1;fill-rule:nonzero;stroke:none"
           d="m 594.9,176.11 6.55,0 0,2.99 -6.55,0 0,-2.99 z" /><path
           id="path408"
           style="fill:#fa8072;fill-opacity:1;fill-rule:nonzero;stroke:none"
           d="m 594.9,183.57 3.82,0 0,2.99 -3.82,0 0,-2.99 z" /><path
           id="path410"
           style="fill:#fa8072;fill-opacity:1;fill-rule:nonzero;stroke:none"
           d="m 594.9,191.04 2.06,0 0,2.99 -2.06,0 0,-2.99 z" /><path
           id="path412"
           style="fill:#fa8072;fill-opacity:1;fill-rule:nonzero;stroke:none"
           d="m 594.9,198.51 1.03,0 0,2.99 -1.03,0 0,-2.99 z" /><path
           id="path414"
           style="fill:#fa8072;fill-opacity:1;fill-rule:nonzero;stroke:none"
           d="m 594.9,205.97 0.48,0 0,2.99 -0.48,0 0,-2.99 z" /><path
           id="path416"
           style="fill:#fa8072;fill-opacity:1;fill-rule:nonzero;stroke:none"
           d="m 594.9,213.44 0.21,0 0,2.99 -0.21,0 0,-2.99 z" /><path
           id="path418"
           style="fill:#fa8072;fill-opacity:1;fill-rule:nonzero;stroke:none"
           d="m 621.9,101.44 0.42,0 0,2.99 -0.42,0 0,-2.99 z" /><path
           id="path420"
           style="fill:#fa8072;fill-opacity:1;fill-rule:nonzero;stroke:none"
           d="m 621.9,108.91 1.66,0 0,2.99 -1.66,0 0,-2.99 z" /><path
           id="path422"
           style="fill:#fa8072;fill-opacity:1;fill-rule:nonzero;stroke:none"
           d="m 621.9,116.37 4.43,0 0,2.99 -4.43,0 0,-2.99 z" /><path
           id="path424"
           style="fill:#fa8072;fill-opacity:1;fill-rule:nonzero;stroke:none"
           d="m 621.9,123.84 8.86,0 0,2.99 -8.86,0 0,-2.99 z" /><path
           id="path426"
           style="fill:#fa8072;fill-opacity:1;fill-rule:nonzero;stroke:none"
           d="m 621.9,131.31 14.18,0 0,2.99 -14.18,0 0,-2.99 z" /><path
           id="path428"
           style="fill:#fa8072;fill-opacity:1;fill-rule:nonzero;stroke:none"
           d="m 621.9,138.77 18.9,0 0,2.99 -18.9,0 0,-2.99 z" /><path
           id="path430"
           style="fill:#fa8072;fill-opacity:1;fill-rule:nonzero;stroke:none"
           d="m 621.9,146.24 21.6,0 0,2.99 -21.6,0 0,-2.99 z" /><path
           id="path432"
           style="fill:#fa8072;fill-opacity:1;fill-rule:nonzero;stroke:none"
           d="m 621.9,153.71 21.6,0 0,2.99 -21.6,0 0,-2.99 z" /><path
           id="path434"
           style="fill:#fa8072;fill-opacity:1;fill-rule:nonzero;stroke:none"
           d="m 621.9,161.17 19.2,0 0,2.99 -19.2,0 0,-2.99 z" /><path
           id="path436"
           style="fill:#fa8072;fill-opacity:1;fill-rule:nonzero;stroke:none"
           d="m 621.9,168.64 15.36,0 0,2.99 -15.36,0 0,-2.99 z" /><path
           id="path438"
           style="fill:#fa8072;fill-opacity:1;fill-rule:nonzero;stroke:none"
           d="m 621.9,176.11 11.17,0 0,2.99 -11.17,0 0,-2.99 z" /><path
           id="path440"
           style="fill:#fa8072;fill-opacity:1;fill-rule:nonzero;stroke:none"
           d="m 621.9,183.57 7.45,0 0,2.99 -7.45,0 0,-2.99 z" /><path
           id="path442"
           style="fill:#fa8072;fill-opacity:1;fill-rule:nonzero;stroke:none"
           d="m 621.9,191.04 4.58,0 0,2.99 -4.58,0 0,-2.99 z" /><path
           id="path444"
           style="fill:#fa8072;fill-opacity:1;fill-rule:nonzero;stroke:none"
           d="m 621.9,198.51 2.62,0 0,2.99 -2.62,0 0,-2.99 z" /><path
           id="path446"
           style="fill:#fa8072;fill-opacity:1;fill-rule:nonzero;stroke:none"
           d="m 621.9,205.97 1.4,0 0,2.99 -1.4,0 0,-2.99 z" /><path
           id="path448"
           style="fill:#fa8072;fill-opacity:1;fill-rule:nonzero;stroke:none"
           d="m 621.9,213.44 0.7,0 0,2.99 -0.7,0 0,-2.99 z" /><path
           id="path450"
           style="fill:#fa8072;fill-opacity:1;fill-rule:nonzero;stroke:none"
           d="m 621.9,228.37 0.15,0 0,2.99 -0.15,0 0,-2.99 z" /><path
           id="path452"
           style="fill:#fa8072;fill-opacity:1;fill-rule:nonzero;stroke:none"
           d="m 648.9,101.44 0.18,0 0,2.99 -0.18,0 0,-2.99 z" /><path
           id="path454"
           style="fill:#fa8072;fill-opacity:1;fill-rule:nonzero;stroke:none"
           d="m 648.9,108.91 0.82,0 0,2.99 -0.82,0 0,-2.99 z" /><path
           id="path456"
           style="fill:#fa8072;fill-opacity:1;fill-rule:nonzero;stroke:none"
           d="m 648.9,116.37 2.46,0 0,2.99 -2.46,0 0,-2.99 z" /><path
           id="path458"
           style="fill:#fa8072;fill-opacity:1;fill-rule:nonzero;stroke:none"
           d="m 648.9,123.84 5.53,0 0,2.99 -5.53,0 0,-2.99 z" /><path
           id="path460"
           style="fill:#fa8072;fill-opacity:1;fill-rule:nonzero;stroke:none"
           d="m 648.9,131.31 9.96,0 0,2.99 -9.96,0 0,-2.99 z" /><path
           id="path462"
           style="fill:#fa8072;fill-opacity:1;fill-rule:nonzero;stroke:none"
           d="m 648.9,138.77 14.93,0 0,2.99 -14.93,0 0,-2.99 z" /><path
           id="path464"
           style="fill:#fa8072;fill-opacity:1;fill-rule:nonzero;stroke:none"
           d="m 648.9,146.24 19.2,0 0,2.99 -19.2,0 0,-2.99 z" /><path
           id="path466"
           style="fill:#fa8072;fill-opacity:1;fill-rule:nonzero;stroke:none"
           d="m 648.9,153.71 21.6,0 0,2.99 -21.6,0 0,-2.99 z" /><path
           id="path468"
           style="fill:#fa8072;fill-opacity:1;fill-rule:nonzero;stroke:none"
           d="m 648.9,161.17 21.6,0 0,2.99 -21.6,0 0,-2.99 z" /><path
           id="path470"
           style="fill:#fa8072;fill-opacity:1;fill-rule:nonzero;stroke:none"
           d="m 648.9,168.64 19.44,0 0,2.99 -19.44,0 0,-2.99 z" /><path
           id="path472"
           style="fill:#fa8072;fill-opacity:1;fill-rule:nonzero;stroke:none"
           d="m 648.9,176.11 15.91,0 0,2.99 -15.91,0 0,-2.99 z" /><path
           id="path474"
           style="fill:#fa8072;fill-opacity:1;fill-rule:nonzero;stroke:none"
           d="m 648.9,183.57 11.93,0 0,2.99 -11.93,0 0,-2.99 z" /><path
           id="path476"
           style="fill:#fa8072;fill-opacity:1;fill-rule:nonzero;stroke:none"
           d="m 648.9,191.04 8.26,0 0,2.99 -8.26,0 0,-2.99 z" /><path
           id="path478"
           style="fill:#fa8072;fill-opacity:1;fill-rule:nonzero;stroke:none"
           d="m 648.9,198.51 5.31,0 0,2.99 -5.31,0 0,-2.99 z" /><path
           id="path480"
           style="fill:#fa8072;fill-opacity:1;fill-rule:nonzero;stroke:none"
           d="m 648.9,205.97 3.19,0 0,2.99 -3.19,0 0,-2.99 z" /><path
           id="path482"
           style="fill:#fa8072;fill-opacity:1;fill-rule:nonzero;stroke:none"
           d="m 648.9,213.44 1.79,0 0,2.99 -1.79,0 0,-2.99 z" /><path
           id="path484"
           style="fill:#fa8072;fill-opacity:1;fill-rule:nonzero;stroke:none"
           d="m 648.9,220.91 0.95,0 0,2.99 -0.95,0 0,-2.99 z" /><path
           id="path486"
           style="fill:#fa8072;fill-opacity:1;fill-rule:nonzero;stroke:none"
           d="m 648.9,228.37 0.47,0 0,2.99 -0.47,0 0,-2.99 z" /><path
           id="path488"
           style="fill:#fa8072;fill-opacity:1;fill-rule:nonzero;stroke:none"
           d="m 648.9,243.31 0.1,0 0,2.99 -0.1,0 0,-2.99 z" /><path
           id="path490"
           style="fill:#fa8072;fill-opacity:1;fill-rule:nonzero;stroke:none"
           d="m 675.9,108.91 0.39,0 0,2.99 -0.39,0 0,-2.99 z" /><path
           id="path492"
           style="fill:#fa8072;fill-opacity:1;fill-rule:nonzero;stroke:none"
           d="m 675.9,116.37 1.31,0 0,2.99 -1.31,0 0,-2.99 z" /><path
           id="path494"
           style="fill:#fa8072;fill-opacity:1;fill-rule:nonzero;stroke:none"
           d="m 675.9,123.84 3.27,0 0,2.99 -3.27,0 0,-2.99 z" /><path
           id="path496"
           style="fill:#fa8072;fill-opacity:1;fill-rule:nonzero;stroke:none"
           d="m 675.9,131.31 6.53,0 0,2.99 -6.53,0 0,-2.99 z" /><path
           id="path498"
           style="fill:#fa8072;fill-opacity:1;fill-rule:nonzero;stroke:none"
           d="m 675.9,138.77 10.89,0 0,2.99 -10.89,0 0,-2.99 z" /><path
           id="path500"
           style="fill:#fa8072;fill-opacity:1;fill-rule:nonzero;stroke:none"
           d="m 675.9,146.24 15.55,0 0,2.99 -15.55,0 0,-2.99 z" /><path
           id="path502"
           style="fill:#fa8072;fill-opacity:1;fill-rule:nonzero;stroke:none"
           d="m 675.9,153.71 19.44,0 0,2.99 -19.44,0 0,-2.99 z" /><path
           id="path504"
           style="fill:#fa8072;fill-opacity:1;fill-rule:nonzero;stroke:none"
           d="m 675.9,161.17 21.6,0 0,2.99 -21.6,0 0,-2.99 z" /><path
           id="path506"
           style="fill:#fa8072;fill-opacity:1;fill-rule:nonzero;stroke:none"
           d="m 675.9,168.64 21.6,0 0,2.99 -21.6,0 0,-2.99 z" /><path
           id="path508"
           style="fill:#fa8072;fill-opacity:1;fill-rule:nonzero;stroke:none"
           d="m 675.9,176.11 19.64,0 0,2.99 -19.64,0 0,-2.99 z" /><path
           id="path510"
           style="fill:#fa8072;fill-opacity:1;fill-rule:nonzero;stroke:none"
           d="m 675.9,183.57 16.36,0 0,2.99 -16.36,0 0,-2.99 z" /><path
           id="path512"
           style="fill:#fa8072;fill-opacity:1;fill-rule:nonzero;stroke:none"
           d="m 675.9,191.04 12.59,0 0,2.99 -12.59,0 0,-2.99 z" /><path
           id="path514"
           style="fill:#fa8072;fill-opacity:1;fill-rule:nonzero;stroke:none"
           d="m 675.9,198.51 8.99,0 0,2.99 -8.99,0 0,-2.99 z" /><path
           id="path516"
           style="fill:#fa8072;fill-opacity:1;fill-rule:nonzero;stroke:none"
           d="m 675.9,205.97 5.99,0 0,2.99 -5.99,0 0,-2.99 z" /><path
           id="path518"
           style="fill:#fa8072;fill-opacity:1;fill-rule:nonzero;stroke:none"
           d="m 675.9,213.44 3.75,0 0,2.99 -3.75,0 0,-2.99 z" /><path
           id="path520"
           style="fill:#fa8072;fill-opacity:1;fill-rule:nonzero;stroke:none"
           d="m 675.9,220.91 2.2,0 0,2.99 -2.2,0 0,-2.99 z" /><path
           id="path522"
           style="fill:#fa8072;fill-opacity:1;fill-rule:nonzero;stroke:none"
           d="m 675.9,228.37 1.22,0 0,2.99 -1.22,0 0,-2.99 z" /><path
           id="path524"
           style="fill:#fa8072;fill-opacity:1;fill-rule:nonzero;stroke:none"
           d="m 675.9,235.84 0.64,0 0,2.99 -0.64,0 0,-2.99 z" /><path
           id="path526"
           style="fill:#fa8072;fill-opacity:1;fill-rule:nonzero;stroke:none"
           d="m 675.9,250.77 0.15,0 0,2.99 -0.15,0 0,-2.99 z" /></g></g></g></svg>