<?xml version="1.0" encoding="UTF-8" standalone="no"?>
<svg
   xmlns:dc="http://purl.org/dc/elements/1.1/"
   xmlns:cc="http://creativecommons.org/ns#"
   xmlns:rdf="http://www.w3.org/1999/02/22-rdf-syntax-ns#"
   xmlns:svg="http://www.w3.org/2000/svg"
   xmlns="http://www.w3.org/2000/svg"
   xmlns:sodipodi="http://sodipodi.sourceforge.net/DTD/sodipodi-0.dtd"
   xmlns:inkscape="http://www.inkscape.org/namespaces/inkscape"
   viewBox="0 0 392.62533 385.0744"
   id="svg2"
   version="1.1"
   inkscape:version="0.91 r13725"
   sodipodi:docname="Pop_Grow.svg"
   width="392.62534"
   height="385.0744">
  <metadata
     id="metadata213">
    <rdf:RDF>
      <cc:Work
         rdf:about="">
        <dc:format>image/svg+xml</dc:format>
        <dc:type
           rdf:resource="http://purl.org/dc/dcmitype/StillImage" />
        <dc:title></dc:title>
      </cc:Work>
    </rdf:RDF>
  </metadata>
  <sodipodi:namedview
     pagecolor="#ffffff"
     bordercolor="#666666"
     borderopacity="1"
     objecttolerance="10"
     gridtolerance="10"
     guidetolerance="10"
     inkscape:pageopacity="0"
     inkscape:pageshadow="2"
     inkscape:window-width="1920"
     inkscape:window-height="1034"
     id="namedview211"
     showgrid="false"
     fit-margin-top="0"
     fit-margin-left="0"
     fit-margin-right="0"
     fit-margin-bottom="0"
     inkscape:zoom="0.98333333"
     inkscape:cx="-7.3400866"
     inkscape:cy="156.14985"
     inkscape:window-x="0"
     inkscape:window-y="0"
     inkscape:window-maximized="1"
     inkscape:current-layer="svg2" />
  <defs
     id="defs4">
    <style
       type="text/css"
       id="style6"><![CDATA[
    line, polyline, polygon, path, rect, circle {
      fill: none;
      stroke: #000000;
      stroke-linecap: round;
      stroke-linejoin: round;
      stroke-miterlimit: 10.00;
    }
  ]]></style>
  </defs>
  <defs
     id="defs10">
    <clipPath
       id="cpMC4wMHw0ODAuMDB8NDM5LjA2fDQwLjk0">
      <rect
         x="0"
         y="40.939999"
         width="480"
         height="398.10999"
         id="rect13"
         style="fill:none;stroke:#000000;stroke-linecap:round;stroke-linejoin:round;stroke-miterlimit:10" />
    </clipPath>
  </defs>
  <defs
     id="defs17">
    <clipPath
       id="cpMC4wMHw0ODAuMDB8NDgwLjAwfDAuMDA=">
      <rect
         x="0"
         y="0"
         width="480"
         height="480"
         id="rect20"
         style="fill:none;stroke:#000000;stroke-linecap:round;stroke-linejoin:round;stroke-miterlimit:10" />
    </clipPath>
  </defs>
  <defs
     id="defs22">
    <clipPath
       id="cpMjguMzR8Mzg5LjMxfDQwNy4zOXw0Ni40Mg==">
      <rect
         x="28.34"
         y="46.419998"
         width="360.95999"
         height="360.95999"
         id="rect25"
         style="fill:none;stroke:#000000;stroke-linecap:round;stroke-linejoin:round;stroke-miterlimit:10" />
    </clipPath>
  </defs>
  <rect
     x="28.34"
     y="46.419998"
     width="360.95999"
     height="360.95999"
     style="fill:#ffffff;stroke:none;stroke-width:1.07000005;stroke-linecap:round;stroke-linejoin:round;stroke-miterlimit:10"
     clip-path="url(#cpMjguMzR8Mzg5LjMxfDQwNy4zOXw0Ni40Mg==)"
     id="rect27"
     transform="translate(1.6150885,-46.419998)" />
  <polyline
     points="28.34,390.94 389.31,390.94 "
     style="fill:none;stroke:#ebebeb;stroke-width:0.52999997;stroke-linecap:butt;stroke-linejoin:round;stroke-miterlimit:10"
     clip-path="url(#cpMjguMzR8Mzg5LjMxfDQwNy4zOXw0Ni40Mg==)"
     id="polyline29"
     transform="translate(1.6150885,-46.419998)" />
  <polyline
     points="28.34,327.15 389.31,327.15 "
     style="fill:none;stroke:#ebebeb;stroke-width:0.52999997;stroke-linecap:butt;stroke-linejoin:round;stroke-miterlimit:10"
     clip-path="url(#cpMjguMzR8Mzg5LjMxfDQwNy4zOXw0Ni40Mg==)"
     id="polyline31"
     transform="translate(1.6150885,-46.419998)" />
  <polyline
     points="28.34,263.36 389.31,263.36 "
     style="fill:none;stroke:#ebebeb;stroke-width:0.52999997;stroke-linecap:butt;stroke-linejoin:round;stroke-miterlimit:10"
     clip-path="url(#cpMjguMzR8Mzg5LjMxfDQwNy4zOXw0Ni40Mg==)"
     id="polyline33"
     transform="translate(1.6150885,-46.419998)" />
  <polyline
     points="28.34,199.57 389.31,199.57 "
     style="fill:none;stroke:#ebebeb;stroke-width:0.52999997;stroke-linecap:butt;stroke-linejoin:round;stroke-miterlimit:10"
     clip-path="url(#cpMjguMzR8Mzg5LjMxfDQwNy4zOXw0Ni40Mg==)"
     id="polyline35"
     transform="translate(1.6150885,-46.419998)" />
  <polyline
     points="28.34,135.78 389.31,135.78 "
     style="fill:none;stroke:#ebebeb;stroke-width:0.52999997;stroke-linecap:butt;stroke-linejoin:round;stroke-miterlimit:10"
     clip-path="url(#cpMjguMzR8Mzg5LjMxfDQwNy4zOXw0Ni40Mg==)"
     id="polyline37"
     transform="translate(1.6150885,-46.419998)" />
  <polyline
     points="28.34,71.99 389.31,71.99 "
     style="fill:none;stroke:#ebebeb;stroke-width:0.52999997;stroke-linecap:butt;stroke-linejoin:round;stroke-miterlimit:10"
     clip-path="url(#cpMjguMzR8Mzg5LjMxfDQwNy4zOXw0Ni40Mg==)"
     id="polyline39"
     transform="translate(1.6150885,-46.419998)" />
  <polyline
     points="78.93,407.39 78.93,46.42 "
     style="fill:none;stroke:#ebebeb;stroke-width:0.52999997;stroke-linecap:butt;stroke-linejoin:round;stroke-miterlimit:10"
     clip-path="url(#cpMjguMzR8Mzg5LjMxfDQwNy4zOXw0Ni40Mg==)"
     id="polyline41"
     transform="translate(1.6150885,-46.419998)" />
  <polyline
     points="147.30,407.39 147.30,46.42 "
     style="fill:none;stroke:#ebebeb;stroke-width:0.52999997;stroke-linecap:butt;stroke-linejoin:round;stroke-miterlimit:10"
     clip-path="url(#cpMjguMzR8Mzg5LjMxfDQwNy4zOXw0Ni40Mg==)"
     id="polyline43"
     transform="translate(1.6150885,-46.419998)" />
  <polyline
     points="215.66,407.39 215.66,46.42 "
     style="fill:none;stroke:#ebebeb;stroke-width:0.52999997;stroke-linecap:butt;stroke-linejoin:round;stroke-miterlimit:10"
     clip-path="url(#cpMjguMzR8Mzg5LjMxfDQwNy4zOXw0Ni40Mg==)"
     id="polyline45"
     transform="translate(1.6150885,-46.419998)" />
  <polyline
     points="284.03,407.39 284.03,46.42 "
     style="fill:none;stroke:#ebebeb;stroke-width:0.52999997;stroke-linecap:butt;stroke-linejoin:round;stroke-miterlimit:10"
     clip-path="url(#cpMjguMzR8Mzg5LjMxfDQwNy4zOXw0Ni40Mg==)"
     id="polyline47"
     transform="translate(1.6150885,-46.419998)" />
  <polyline
     points="352.39,407.39 352.39,46.42 "
     style="fill:none;stroke:#ebebeb;stroke-width:0.52999997;stroke-linecap:butt;stroke-linejoin:round;stroke-miterlimit:10"
     clip-path="url(#cpMjguMzR8Mzg5LjMxfDQwNy4zOXw0Ni40Mg==)"
     id="polyline49"
     transform="translate(1.6150885,-46.419998)" />
  <polyline
     points="28.34,359.04 389.31,359.04 "
     style="fill:none;stroke:#ebebeb;stroke-width:1.07000005;stroke-linecap:butt;stroke-linejoin:round;stroke-miterlimit:10"
     clip-path="url(#cpMjguMzR8Mzg5LjMxfDQwNy4zOXw0Ni40Mg==)"
     id="polyline51"
     transform="translate(1.6150885,-46.419998)" />
  <polyline
     points="28.34,295.25 389.31,295.25 "
     style="fill:none;stroke:#ebebeb;stroke-width:1.07000005;stroke-linecap:butt;stroke-linejoin:round;stroke-miterlimit:10"
     clip-path="url(#cpMjguMzR8Mzg5LjMxfDQwNy4zOXw0Ni40Mg==)"
     id="polyline53"
     transform="translate(1.6150885,-46.419998)" />
  <polyline
     points="28.34,231.46 389.31,231.46 "
     style="fill:none;stroke:#ebebeb;stroke-width:1.07000005;stroke-linecap:butt;stroke-linejoin:round;stroke-miterlimit:10"
     clip-path="url(#cpMjguMzR8Mzg5LjMxfDQwNy4zOXw0Ni40Mg==)"
     id="polyline55"
     transform="translate(1.6150885,-46.419998)" />
  <polyline
     points="28.34,167.67 389.31,167.67 "
     style="fill:none;stroke:#ebebeb;stroke-width:1.07000005;stroke-linecap:butt;stroke-linejoin:round;stroke-miterlimit:10"
     clip-path="url(#cpMjguMzR8Mzg5LjMxfDQwNy4zOXw0Ni40Mg==)"
     id="polyline57"
     transform="translate(1.6150885,-46.419998)" />
  <polyline
     points="28.34,103.88 389.31,103.88 "
     style="fill:none;stroke:#ebebeb;stroke-width:1.07000005;stroke-linecap:butt;stroke-linejoin:round;stroke-miterlimit:10"
     clip-path="url(#cpMjguMzR8Mzg5LjMxfDQwNy4zOXw0Ni40Mg==)"
     id="polyline59"
     transform="translate(1.6150885,-46.419998)" />
  <polyline
     points="44.75,407.39 44.75,46.42 "
     style="fill:none;stroke:#ebebeb;stroke-width:1.07000005;stroke-linecap:butt;stroke-linejoin:round;stroke-miterlimit:10"
     clip-path="url(#cpMjguMzR8Mzg5LjMxfDQwNy4zOXw0Ni40Mg==)"
     id="polyline61"
     transform="translate(1.6150885,-46.419998)" />
  <polyline
     points="113.12,407.39 113.12,46.42 "
     style="fill:none;stroke:#ebebeb;stroke-width:1.07000005;stroke-linecap:butt;stroke-linejoin:round;stroke-miterlimit:10"
     clip-path="url(#cpMjguMzR8Mzg5LjMxfDQwNy4zOXw0Ni40Mg==)"
     id="polyline63"
     transform="translate(1.6150885,-46.419998)" />
  <polyline
     points="181.48,407.39 181.48,46.42 "
     style="fill:none;stroke:#ebebeb;stroke-width:1.07000005;stroke-linecap:butt;stroke-linejoin:round;stroke-miterlimit:10"
     clip-path="url(#cpMjguMzR8Mzg5LjMxfDQwNy4zOXw0Ni40Mg==)"
     id="polyline65"
     transform="translate(1.6150885,-46.419998)" />
  <polyline
     points="249.84,407.39 249.84,46.42 "
     style="fill:none;stroke:#ebebeb;stroke-width:1.07000005;stroke-linecap:butt;stroke-linejoin:round;stroke-miterlimit:10"
     clip-path="url(#cpMjguMzR8Mzg5LjMxfDQwNy4zOXw0Ni40Mg==)"
     id="polyline67"
     transform="translate(1.6150885,-46.419998)" />
  <polyline
     points="318.21,407.39 318.21,46.42 "
     style="fill:none;stroke:#ebebeb;stroke-width:1.07000005;stroke-linecap:butt;stroke-linejoin:round;stroke-miterlimit:10"
     clip-path="url(#cpMjguMzR8Mzg5LjMxfDQwNy4zOXw0Ni40Mg==)"
     id="polyline69"
     transform="translate(1.6150885,-46.419998)" />
  <polyline
     points="386.57,407.39 386.57,46.42 "
     style="fill:none;stroke:#ebebeb;stroke-width:1.07000005;stroke-linecap:butt;stroke-linejoin:round;stroke-miterlimit:10"
     clip-path="url(#cpMjguMzR8Mzg5LjMxfDQwNy4zOXw0Ni40Mg==)"
     id="polyline71"
     transform="translate(1.6150885,-46.419998)" />
  <circle
     cx="44.75"
     cy="390.98001"
     r="4.4499998"
     style="fill:#000000;stroke:#000000;stroke-width:0.70999998;stroke-linecap:round;stroke-linejoin:round;stroke-miterlimit:10"
     clip-path="url(#cpMjguMzR8Mzg5LjMxfDQwNy4zOXw0Ni40Mg==)"
     id="circle73"
     transform="translate(1.6150885,-46.419998)" />
  <circle
     cx="72.099998"
     cy="381.51001"
     r="4.4499998"
     style="fill:#000000;stroke:#000000;stroke-width:0.70999998;stroke-linecap:round;stroke-linejoin:round;stroke-miterlimit:10"
     clip-path="url(#cpMjguMzR8Mzg5LjMxfDQwNy4zOXw0Ni40Mg==)"
     id="circle75"
     transform="translate(1.6150885,-46.419998)" />
  <circle
     cx="99.440002"
     cy="375.73001"
     r="4.4499998"
     style="fill:#000000;stroke:#000000;stroke-width:0.70999998;stroke-linecap:round;stroke-linejoin:round;stroke-miterlimit:10"
     clip-path="url(#cpMjguMzR8Mzg5LjMxfDQwNy4zOXw0Ni40Mg==)"
     id="circle77"
     transform="translate(1.6150885,-46.419998)" />
  <circle
     cx="126.79"
     cy="365.07001"
     r="4.4499998"
     style="fill:#000000;stroke:#000000;stroke-width:0.70999998;stroke-linecap:round;stroke-linejoin:round;stroke-miterlimit:10"
     clip-path="url(#cpMjguMzR8Mzg5LjMxfDQwNy4zOXw0Ni40Mg==)"
     id="circle79"
     transform="translate(1.6150885,-46.419998)" />
  <circle
     cx="154.13"
     cy="277.84"
     r="4.4499998"
     style="fill:#000000;stroke:#000000;stroke-width:0.70999998;stroke-linecap:round;stroke-linejoin:round;stroke-miterlimit:10"
     clip-path="url(#cpMjguMzR8Mzg5LjMxfDQwNy4zOXw0Ni40Mg==)"
     id="circle81"
     transform="translate(1.6150885,-46.419998)" />
  <circle
     cx="181.48"
     cy="211.00999"
     r="4.4499998"
     style="fill:#000000;stroke:#000000;stroke-width:0.70999998;stroke-linecap:round;stroke-linejoin:round;stroke-miterlimit:10"
     clip-path="url(#cpMjguMzR8Mzg5LjMxfDQwNy4zOXw0Ni40Mg==)"
     id="circle83"
     transform="translate(1.6150885,-46.419998)" />
  <circle
     cx="208.83"
     cy="134.98"
     r="4.4499998"
     style="fill:#000000;stroke:#000000;stroke-width:0.70999998;stroke-linecap:round;stroke-linejoin:round;stroke-miterlimit:10"
     clip-path="url(#cpMjguMzR8Mzg5LjMxfDQwNy4zOXw0Ni40Mg==)"
     id="circle85"
     transform="translate(1.6150885,-46.419998)" />
  <circle
     cx="263.51999"
     cy="83.129997"
     r="4.4499998"
     style="fill:#000000;stroke:#000000;stroke-width:0.70999998;stroke-linecap:round;stroke-linejoin:round;stroke-miterlimit:10"
     clip-path="url(#cpMjguMzR8Mzg5LjMxfDQwNy4zOXw0Ni40Mg==)"
     id="circle87"
     transform="translate(1.6150885,-46.419998)" />
  <circle
     cx="318.20999"
     cy="62.830002"
     r="4.4499998"
     style="fill:#000000;stroke:#000000;stroke-width:0.70999998;stroke-linecap:round;stroke-linejoin:round;stroke-miterlimit:10"
     clip-path="url(#cpMjguMzR8Mzg5LjMxfDQwNy4zOXw0Ni40Mg==)"
     id="circle89"
     transform="translate(1.6150885,-46.419998)" />
  <circle
     cx="372.89999"
     cy="65.550003"
     r="4.4499998"
     style="fill:#000000;stroke:#000000;stroke-width:0.70999998;stroke-linecap:round;stroke-linejoin:round;stroke-miterlimit:10"
     clip-path="url(#cpMjguMzR8Mzg5LjMxfDQwNy4zOXw0Ni40Mg==)"
     id="circle91"
     transform="translate(1.6150885,-46.419998)" />
  <polyline
     points="44.75,384.43 46.12,384.43 47.49,384.43 48.85,384.43 50.22,384.43 51.59,384.43 52.95,384.43 54.32,384.43 55.69,384.43 57.06,384.43 58.42,384.43 59.79,384.43 61.16,384.43 62.53,384.43 63.89,384.43 65.26,384.43 66.63,384.43 67.99,384.43 69.36,384.43 70.73,384.42 72.10,384.42 73.46,384.42 74.83,384.42 76.20,384.41 77.57,384.40 78.93,384.39 80.30,384.38 81.67,384.36 83.04,384.33 84.40,384.30 85.77,384.25 87.14,384.20 88.50,384.13 89.87,384.04 91.24,383.94 92.61,383.81 93.97,383.65 95.34,383.46 96.71,383.23 98.08,382.97 99.44,382.65 100.81,382.28 102.18,381.86 103.54,381.37 104.91,380.81 106.28,380.17 107.65,379.45 109.01,378.64 110.38,377.74 111.75,376.73 113.12,375.62 114.48,374.40 115.85,373.06 117.22,371.60 118.58,370.01 119.95,368.30 121.32,366.46 122.69,364.49 124.05,362.38 125.42,360.13 126.79,357.76 128.16,355.25 129.52,352.60 130.89,349.82 132.26,346.92 133.62,343.89 134.99,340.74 136.36,337.47 137.73,334.08 139.09,330.59 140.46,327.00 141.83,323.30 143.20,319.52 144.56,315.65 145.93,311.71 147.30,307.69 148.67,303.60 150.03,299.46 151.40,295.27 152.77,291.03 154.13,286.76 155.50,282.45 156.87,278.12 158.24,273.78 159.60,269.42 160.97,265.05 162.34,260.69 163.71,256.34 165.07,251.99 166.44,247.67 167.81,243.36 169.17,239.09 170.54,234.84 171.91,230.63 173.28,226.46 174.64,222.34 176.01,218.26 177.38,214.23 178.75,210.26 180.11,206.34 181.48,202.48 182.85,198.67 184.21,194.94 185.58,191.26 186.95,187.65 188.32,184.11 189.68,180.63 191.05,177.22 192.42,173.88 193.79,170.61 195.15,167.42 196.52,164.29 197.89,161.23 199.25,158.24 200.62,155.32 201.99,152.47 203.36,149.69 204.72,146.98 206.09,144.34 207.46,141.77 208.83,139.26 210.19,136.82 211.56,134.44 212.93,132.13 214.30,129.88 215.66,127.69 217.03,125.57 218.40,123.50 219.76,121.49 221.13,119.55 222.50,117.65 223.87,115.82 225.23,114.03 226.60,112.31 227.97,110.63 229.34,109.00 230.70,107.43 232.07,105.90 233.44,104.42 234.80,102.98 236.17,101.59 237.54,100.24 238.91,98.94 240.27,97.68 241.64,96.45 243.01,95.27 244.38,94.13 245.74,93.02 247.11,91.95 248.48,90.91 249.84,89.91 251.21,88.94 252.58,88.00 253.95,87.09 255.31,86.21 256.68,85.37 258.05,84.55 259.42,83.75 260.78,82.99 262.15,82.25 263.52,81.53 264.88,80.84 266.25,80.18 267.62,79.53 268.99,78.91 270.35,78.31 271.72,77.73 273.09,77.17 274.46,76.63 275.82,76.11 277.19,75.60 278.56,75.11 279.92,74.64 281.29,74.19 282.66,73.75 284.03,73.33 285.39,72.92 286.76,72.53 288.13,72.15 289.50,71.78 290.86,71.42 292.23,71.08 293.60,70.75 294.97,70.43 296.33,70.13 297.70,69.83 299.07,69.55 300.43,69.27 301.80,69.00 303.17,68.75 304.54,68.50 305.90,68.26 307.27,68.03 308.64,67.81 310.01,67.59 311.37,67.39 312.74,67.19 314.11,67.00 315.47,66.81 316.84,66.63 318.21,66.46 319.58,66.29 320.94,66.13 322.31,65.98 323.68,65.83 325.05,65.68 326.41,65.55 327.78,65.41 329.15,65.28 330.51,65.16 331.88,65.04 333.25,64.92 334.62,64.81 335.98,64.70 337.35,64.60 338.72,64.50 340.09,64.40 341.45,64.31 342.82,64.22 344.19,64.13 345.55,64.05 346.92,63.97 348.29,63.89 349.66,63.82 351.02,63.75 352.39,63.68 353.76,63.61 355.13,63.55 356.49,63.48 357.86,63.42 359.23,63.37 360.60,63.31 361.96,63.26 363.33,63.20 364.70,63.15 366.06,63.11 367.43,63.06 368.80,63.02 370.17,62.97 371.53,62.93 372.90,62.89 "
     style="fill:none;stroke:#619cff;stroke-width:2.13000011;stroke-linecap:butt;stroke-linejoin:round;stroke-miterlimit:10"
     clip-path="url(#cpMjguMzR8Mzg5LjMxfDQwNy4zOXw0Ni40Mg==)"
     id="polyline97"
     transform="translate(1.6150885,-46.419998)" />
  <rect
     x="28.34"
     y="46.419998"
     width="360.95999"
     height="360.95999"
     style="fill:none;stroke:#333333;stroke-width:1.07000005;stroke-linecap:round;stroke-linejoin:round;stroke-miterlimit:10"
     clip-path="url(#cpMjguMzR8Mzg5LjMxfDQwNy4zOXw0Ni40Mg==)"
     id="rect99"
     transform="translate(1.6150885,-46.419998)" />
  <defs
     id="defs101">
    <clipPath
       id="clipPath103">
      <rect
         x="0"
         y="0"
         width="480"
         height="480"
         id="rect105"
         style="fill:none;stroke:#000000;stroke-linecap:round;stroke-linejoin:round;stroke-miterlimit:10" />
    </clipPath>
  </defs>
  <text
     id="text109"
     lengthAdjust="spacingAndGlyphs"
     textLength="5.01px"
     style="font-size:8.80000019px;font-family:Arial;fill:#4d4d4d"
     y="315.84003"
     x="20.025089">4</text>
  <text
     id="text113"
     lengthAdjust="spacingAndGlyphs"
     textLength="5.01px"
     style="font-size:8.80000019px;font-family:Arial;fill:#4d4d4d"
     y="252.05"
     x="20.025089">5</text>
  <text
     id="text117"
     lengthAdjust="spacingAndGlyphs"
     textLength="5.01px"
     style="font-size:8.80000019px;font-family:Arial;fill:#4d4d4d"
     y="188.25999"
     x="20.025089">6</text>
  <text
     id="text121"
     lengthAdjust="spacingAndGlyphs"
     textLength="5.01px"
     style="font-size:8.80000019px;font-family:Arial;fill:#4d4d4d"
     y="124.47"
     x="20.025089">7</text>
  <text
     id="text125"
     lengthAdjust="spacingAndGlyphs"
     textLength="5.01px"
     style="font-size:8.80000019px;font-family:Arial;fill:#4d4d4d"
     y="60.68"
     x="20.025089">8</text>
  <polyline
     points="25.60,359.04 28.34,359.04 "
     style="fill:none;stroke:#333333;stroke-width:1.07000005;stroke-linecap:butt;stroke-linejoin:round;stroke-miterlimit:10"
     clip-path="url(#cpMC4wMHw0ODAuMDB8NDgwLjAwfDAuMDA=)"
     id="polyline127"
     transform="translate(1.6150885,-46.419998)" />
  <polyline
     points="25.60,295.25 28.34,295.25 "
     style="fill:none;stroke:#333333;stroke-width:1.07000005;stroke-linecap:butt;stroke-linejoin:round;stroke-miterlimit:10"
     clip-path="url(#cpMC4wMHw0ODAuMDB8NDgwLjAwfDAuMDA=)"
     id="polyline129"
     transform="translate(1.6150885,-46.419998)" />
  <polyline
     points="25.60,231.46 28.34,231.46 "
     style="fill:none;stroke:#333333;stroke-width:1.07000005;stroke-linecap:butt;stroke-linejoin:round;stroke-miterlimit:10"
     clip-path="url(#cpMC4wMHw0ODAuMDB8NDgwLjAwfDAuMDA=)"
     id="polyline131"
     transform="translate(1.6150885,-46.419998)" />
  <polyline
     points="25.60,167.67 28.34,167.67 "
     style="fill:none;stroke:#333333;stroke-width:1.07000005;stroke-linecap:butt;stroke-linejoin:round;stroke-miterlimit:10"
     clip-path="url(#cpMC4wMHw0ODAuMDB8NDgwLjAwfDAuMDA=)"
     id="polyline133"
     transform="translate(1.6150885,-46.419998)" />
  <polyline
     points="25.60,103.88 28.34,103.88 "
     style="fill:none;stroke:#333333;stroke-width:1.07000005;stroke-linecap:butt;stroke-linejoin:round;stroke-miterlimit:10"
     clip-path="url(#cpMC4wMHw0ODAuMDB8NDgwLjAwfDAuMDA=)"
     id="polyline135"
     transform="translate(1.6150885,-46.419998)" />
  <polyline
     points="44.75,410.13 44.75,407.39 "
     style="fill:none;stroke:#333333;stroke-width:1.07000005;stroke-linecap:butt;stroke-linejoin:round;stroke-miterlimit:10"
     clip-path="url(#cpMC4wMHw0ODAuMDB8NDgwLjAwfDAuMDA=)"
     id="polyline137"
     transform="translate(1.6150885,-46.419998)" />
  <polyline
     points="113.12,410.13 113.12,407.39 "
     style="fill:none;stroke:#333333;stroke-width:1.07000005;stroke-linecap:butt;stroke-linejoin:round;stroke-miterlimit:10"
     clip-path="url(#cpMC4wMHw0ODAuMDB8NDgwLjAwfDAuMDA=)"
     id="polyline139"
     transform="translate(1.6150885,-46.419998)" />
  <polyline
     points="181.48,410.13 181.48,407.39 "
     style="fill:none;stroke:#333333;stroke-width:1.07000005;stroke-linecap:butt;stroke-linejoin:round;stroke-miterlimit:10"
     clip-path="url(#cpMC4wMHw0ODAuMDB8NDgwLjAwfDAuMDA=)"
     id="polyline141"
     transform="translate(1.6150885,-46.419998)" />
  <polyline
     points="249.84,410.13 249.84,407.39 "
     style="fill:none;stroke:#333333;stroke-width:1.07000005;stroke-linecap:butt;stroke-linejoin:round;stroke-miterlimit:10"
     clip-path="url(#cpMC4wMHw0ODAuMDB8NDgwLjAwfDAuMDA=)"
     id="polyline143"
     transform="translate(1.6150885,-46.419998)" />
  <polyline
     points="318.21,410.13 318.21,407.39 "
     style="fill:none;stroke:#333333;stroke-width:1.07000005;stroke-linecap:butt;stroke-linejoin:round;stroke-miterlimit:10"
     clip-path="url(#cpMC4wMHw0ODAuMDB8NDgwLjAwfDAuMDA=)"
     id="polyline145"
     transform="translate(1.6150885,-46.419998)" />
  <polyline
     points="386.57,410.13 386.57,407.39 "
     style="fill:none;stroke:#333333;stroke-width:1.07000005;stroke-linecap:butt;stroke-linejoin:round;stroke-miterlimit:10"
     clip-path="url(#cpMC4wMHw0ODAuMDB8NDgwLjAwfDAuMDA=)"
     id="polyline147"
     transform="translate(1.6150885,-46.419998)" />
  <text
     id="text151"
     lengthAdjust="spacingAndGlyphs"
     textLength="5.01px"
     style="font-size:8.80000019px;font-family:Arial;fill:#4d4d4d"
     y="372.34003"
     x="43.865089">0</text>
  <text
     id="text155"
     lengthAdjust="spacingAndGlyphs"
     textLength="5.01px"
     style="font-size:8.80000019px;font-family:Arial;fill:#4d4d4d"
     y="372.34003"
     x="112.22509">5</text>
  <text
     id="text159"
     lengthAdjust="spacingAndGlyphs"
     textLength="10.01px"
     style="font-size:8.80000019px;font-family:Arial;fill:#4d4d4d"
     y="372.34003"
     x="178.08508">10</text>
  <text
     id="text163"
     lengthAdjust="spacingAndGlyphs"
     textLength="10.01px"
     style="font-size:8.80000019px;font-family:Arial;fill:#4d4d4d"
     y="372.34003"
     x="246.45508">15</text>
  <text
     id="text167"
     lengthAdjust="spacingAndGlyphs"
     textLength="10.01px"
     style="font-size:8.80000019px;font-family:Arial;fill:#4d4d4d"
     y="372.34003"
     x="314.81509">20</text>
  <text
     id="text171"
     lengthAdjust="spacingAndGlyphs"
     textLength="10.01px"
     style="font-size:8.80000019px;font-family:Arial;fill:#4d4d4d"
     y="372.34003"
     x="383.18509">25</text>
  <text
     id="text175"
     lengthAdjust="spacingAndGlyphs"
     textLength="24.44px"
     style="font-size:11px;font-family:Arial"
     y="384.84003"
     x="198.21509">
    <tspan
       id="tspan4343"
       style="font-size:20px">Time</tspan>
  </text>
  <text
     y="14.560547"
     x="-232.66818"
     id="text179"
     lengthAdjust="spacingAndGlyphs"
     textLength="77.67px"
     style="font-size:11px;font-family:Arial"
     transform="matrix(0,-1,1,0,0,0)">
    <tspan
       id="tspan4341"
       style="font-size:20px">log(Abundance)</tspan>
  </text>
</svg>
